<svg id="antigravity" xmlns="http://www.w3.org/2000/svg" xmlns:xlink="http://www.w3.org/1999/xlink" viewBox="0 0 311.67 411.93">
    <defs>
        <radialGradient id="radial-gradient" cx="172.1" cy="234.99" r="20.73"
            gradientTransform="matrix(0.32, 0.95, -0.95, 0.32, 366.24, -38.4)"
            gradientUnits="userSpaceOnUse">
            <stop offset="0" stop-color="#ffec41" />
            <stop offset="0.2" stop-color="#ffb44e" />
            <stop offset="0.49" stop-color="#ff6860" />
            <stop offset="0.73" stop-color="#ff306e" />
            <stop offset="0.9" stop-color="#ff0d76" />
            <stop offset="1" stop-color="#ff0079" />
        </radialGradient>
        <linearGradient id="linear-gradient" x1="188.07" y1="211.54" x2="110.45" y2="481.54" gradientUnits="userSpaceOnUse">
            <stop offset="0" stop-color="#5155d4" />
            <stop offset="1" stop-color="#45f7ff" />
        </linearGradient>
        <linearGradient id="linear-gradient-2" x1="182.07" y1="399.14" x2="182.07" y2="268" gradientUnits="userSpaceOnUse">
            <stop offset="0" stop-color="#1ae5ff" />
            <stop offset="0.26" stop-color="#64e8f9" />
            <stop offset="0.7" stop-color="#eaeeee" />
        </linearGradient>
        <linearGradient id="linear-gradient-3" x1="66.69" y1="315.21" x2="194.43" y2="380.67" xlink:href="#linear-gradient-2" />
        <linearGradient id="linear-gradient-4" x1="167.08" y1="237.63" x2="130.21" y2="365.88" xlink:href="#linear-gradient" />
        <linearGradient id="linear-gradient-5" x1="182.07" y1="335.41" x2="182.07" y2="242.63" xlink:href="#linear-gradient-2" />
        <linearGradient id="linear-gradient-6" x1="71.61" y1="271.4" x2="186.18" y2="330.11" xlink:href="#linear-gradient-2" />
        <linearGradient id="linear-gradient-7" x1="167.08" y1="201.83" x2="130.21" y2="330.07" xlink:href="#linear-gradient" />
        <linearGradient id="linear-gradient-8" x1="98.52" y1="328.64" x2="89.9" y2="359.9" gradientUnits="userSpaceOnUse">
            <stop offset="0" stop-color="#ffe900" />
            <stop offset="1" stop-color="#ff13bd" />
        </linearGradient>
        <linearGradient id="linear-gradient-9" x1="96.79" y1="341.85" x2="111.61" y2="332.96" xlink:href="#linear-gradient-8" />
        <linearGradient id="linear-gradient-10" x1="96.58" y1="349.88" x2="113.14" y2="349.88" xlink:href="#linear-gradient-8" />
        <linearGradient id="linear-gradient-11" x1="112.53" y1="330.39" x2="103.64" y2="368.12" xlink:href="#linear-gradient-8" />
        <linearGradient id="linear-gradient-12" x1="108.67" y1="351.43" x2="125.65" y2="339.84" xlink:href="#linear-gradient-8" />
        <linearGradient id="linear-gradient-13" x1="110" y1="358.11" x2="126.56" y2="358.11" xlink:href="#linear-gradient-8" />
        <linearGradient id="linear-gradient-14" x1="212.11" y1="346.25" x2="215.34" y2="367.27" gradientTransform="matrix(-1, 0, 0, 1, 422.87, 0)" xlink:href="#linear-gradient-8" />
        <linearGradient id="linear-gradient-15" x1="217.71" y1="341.85" x2="232.53" y2="332.96" gradientTransform="matrix(-1, 0, 0, 1, 422.87, 0)" xlink:href="#linear-gradient-8" />
        <linearGradient id="linear-gradient-16" x1="228.95" y1="325.08" x2="224.63" y2="354.73" gradientTransform="matrix(-1, 0, 0, 1, 422.87, 0)" xlink:href="#linear-gradient-8" />
        <linearGradient id="linear-gradient-17" x1="223" y1="356.24" x2="236.74" y2="372.41" gradientTransform="matrix(-1, 0, 0, 1, 422.87, 0)" xlink:href="#linear-gradient-8" />
        <linearGradient id="linear-gradient-18" x1="229.6" y1="351.43" x2="246.57" y2="339.84" gradientTransform="matrix(-1, 0, 0, 1, 422.87, 0)" xlink:href="#linear-gradient-8" />
        <linearGradient id="linear-gradient-19" x1="240.79" y1="334.93" x2="237.82" y2="372.66" gradientTransform="matrix(-1, 0, 0, 1, 422.87, 0)" xlink:href="#linear-gradient-8" />
        <linearGradient id="linear-gradient-20" x1="173.68" y1="273.28" x2="173.68" y2="122.18" gradientUnits="userSpaceOnUse">
            <stop offset="0" stop-color="#00cfff" />
            <stop offset="0.1" stop-color="#07bbe7" stop-opacity="0.88" />
            <stop offset="0.44" stop-color="#1c7d9c" stop-opacity="0.51" />
            <stop offset="0.71" stop-color="#2c4f65" stop-opacity="0.23" />
            <stop offset="0.9" stop-color="#353343" stop-opacity="0.06" />
            <stop offset="1" stop-color="#392836" stop-opacity="0" />
        </linearGradient>
        <linearGradient id="linear-gradient-21" x1="120.71" y1="288.93" x2="120.71" y2="121.91" xlink:href="#linear-gradient-20" />
        <linearGradient id="linear-gradient-22" x1="41.44" y1="286.01" x2="68.16" y2="188.22" gradientTransform="translate(17.99 -20.54)" gradientUnits="userSpaceOnUse">
            <stop offset="0" />
            <stop offset="0.08" stop-color="#010708" />
            <stop offset="0.21" stop-color="#031b1e" />
            <stop offset="0.36" stop-color="#073b41" />
            <stop offset="0.53" stop-color="#0c6773" />
            <stop offset="0.73" stop-color="#12a0b2" />
            <stop offset="0.94" stop-color="#1ae4fe" />
            <stop offset="0.94" stop-color="#1ae5ff" />
        </linearGradient>
        <linearGradient id="linear-gradient-23" x1="54.36" y1="231.84" x2="62.78" y2="201.03" gradientTransform="matrix(0.93, -0.36, 0.36, 0.93, -55.66, 16.53)" xlink:href="#linear-gradient-22" />
        <linearGradient id="linear-gradient-24" x1="75.37" y1="165.39" x2="91.33" y2="106.96" gradientTransform="translate(21.75 70.51)" xlink:href="#linear-gradient-22" />
        <linearGradient id="linear-gradient-25" x1="83.09" y1="133.02" x2="88.11" y2="114.62" gradientTransform="translate(69.51 47.83) rotate(20.3)" xlink:href="#linear-gradient-22" />
        <linearGradient id="linear-gradient-26" x1="-42.91" y1="548.06" x2="-38.12" y2="635.98" gradientTransform="matrix(-0.58, 0.82, 0.82, 0.58, -288.29, -177.44)" gradientUnits="userSpaceOnUse">
            <stop offset="0" stop-color="#0cf" />
            <stop offset="1" stop-color="#6b40ea" />
        </linearGradient>
        <linearGradient id="linear-gradient-27" x1="-10.81" y1="574.5" x2="-115.43" y2="567.29" gradientTransform="matrix(-1, 0, 0, 1, 160.92, -456.57)" xlink:href="#linear-gradient-2" />
        <linearGradient id="linear-gradient-28" x1="-304.54" y1="-105.4" x2="-271.17" y2="62.77" gradientTransform="matrix(-0.97, -0.24, -0.24, 0.97, -23.2, -3)" gradientUnits="userSpaceOnUse">
            <stop offset="0" stop-color="#282a57" stop-opacity="0" />
            <stop offset="0.38" stop-color="#787a96" stop-opacity="0.37" />
            <stop offset="1" stop-color="#fff" />
        </linearGradient>
        <linearGradient id="linear-gradient-29" x1="175.29" y1="135.9" x2="168.43" y2="181.91" gradientUnits="userSpaceOnUse">
            <stop offset="0" stop-color="#bdf7a3" />
            <stop offset="1" stop-color="#009ee0" />
        </linearGradient>
        <linearGradient id="linear-gradient-30" x1="166.67" y1="-56.39" x2="188.38" y2="-5.74" gradientTransform="matrix(1, 0, 0, 1, -61.53, 153.3)" gradientUnits="userSpaceOnUse">
            <stop offset="0" stop-color="#fbb03b" />
            <stop offset="0.7" stop-color="#fb8e31" />
        </linearGradient>
        <linearGradient id="linear-gradient-31" x1="169.12" y1="-46.38" x2="190.12" y2="-14.88" gradientTransform="translate(-40.02 207.64) rotate(-18.82)" gradientUnits="userSpaceOnUse">
            <stop offset="0" stop-color="#fbc93b" />
            <stop offset="1" stop-color="#fb8e31" />
        </linearGradient>
        <linearGradient id="linear-gradient-32" x1="170.66" y1="-51.66" x2="173.55" y2="-34.82" gradientTransform="translate(-61.9 153.98)" xlink:href="#linear-gradient-31" />
        <linearGradient id="linear-gradient-33" x1="98.48" y1="112.69" x2="100.42" y2="153.99" gradientTransform="matrix(0.65, 0.76, -0.76, 0.65, 118.96, -14.66)" xlink:href="#linear-gradient-8" />
        <linearGradient id="linear-gradient-34" x1="89.02" y1="135.98" x2="89.35" y2="159.53" gradientTransform="matrix(0.65, 0.76, -0.76, 0.65, 118.96, -14.66)" xlink:href="#linear-gradient-8" />
        <linearGradient id="linear-gradient-35" x1="81.28" y1="136.59" x2="102.8" y2="136.59" gradientTransform="matrix(0.65, 0.76, -0.76, 0.65, 118.96, -14.66)" xlink:href="#linear-gradient-8" />
        <linearGradient id="linear-gradient-36" x1="147.39" y1="88.01" x2="148.02" y2="101.59" gradientTransform="translate(78.92 -64.87) rotate(33.73)" xlink:href="#linear-gradient-8" />
        <linearGradient id="linear-gradient-37" x1="144.28" y1="95.66" x2="144.38" y2="103.41" gradientTransform="translate(78.92 -64.87) rotate(33.73)" xlink:href="#linear-gradient-8" />
        <linearGradient id="linear-gradient-38" x1="141.73" y1="95.87" x2="148.81" y2="95.87" gradientTransform="translate(78.92 -64.87) rotate(33.73)" xlink:href="#linear-gradient-8" />
        <linearGradient id="linear-gradient-39" x1="161.27" y1="280.07" x2="161.91" y2="293.65" gradientTransform="translate(-124.67 -9.59) rotate(-6.32)" xlink:href="#linear-gradient-8" />
        <linearGradient id="linear-gradient-40" x1="158.16" y1="287.73" x2="158.27" y2="295.47" gradientTransform="translate(-124.67 -9.59) rotate(-6.32)" xlink:href="#linear-gradient-8" />
        <linearGradient id="linear-gradient-41" x1="155.61" y1="287.93" x2="162.69" y2="287.93" gradientTransform="translate(-124.67 -9.59) rotate(-6.32)" xlink:href="#linear-gradient-8" />
        <linearGradient id="linear-gradient-42" x1="330.16" y1="197.77" x2="331.13" y2="218.31" gradientTransform="translate(-124.67 -9.59) rotate(-6.32)" xlink:href="#linear-gradient-8" />
        <linearGradient id="linear-gradient-43" x1="325.46" y1="209.36" x2="325.62" y2="221.07" gradientTransform="translate(-124.67 -9.59) rotate(-6.32)" xlink:href="#linear-gradient-8" />
        <linearGradient id="linear-gradient-44" x1="321.61" y1="209.66" x2="332.31" y2="209.66" gradientTransform="translate(-124.67 -9.59) rotate(-6.32)" xlink:href="#linear-gradient-8" />
        <linearGradient id="linear-gradient-45" x1="132.26" y1="29.46" x2="133.16" y2="62.72" xlink:href="#linear-gradient-8" />
        <linearGradient id="linear-gradient-46" x1="104.38" y1="77.04" x2="170.36" y2="77.04" xlink:href="#linear-gradient-8" />
        <linearGradient id="linear-gradient-47" x1="132.73" y1="51.16" x2="136.33" y2="84.42" xlink:href="#linear-gradient-8" />
        <linearGradient id="linear-gradient-48" x1="163.65" y1="64.94" x2="163.05" y2="44.27" gradientUnits="userSpaceOnUse">
            <stop offset="0" stop-color="#6b40ea" />
            <stop offset="0.46" stop-color="#4789f3" />
            <stop offset="1" stop-color="#1ae5ff" />
        </linearGradient>
        <linearGradient id="linear-gradient-49" x1="167.08" y1="69.1" x2="159.89" y2="26.86" xlink:href="#linear-gradient-2" />
        <linearGradient id="linear-gradient-50" x1="160.17" y1="59.89" x2="186.83" y2="61.39" xlink:href="#linear-gradient-48" />
        <linearGradient id="linear-gradient-51" x1="180.98" y1="27.55" x2="181.66" y2="35.84" gradientTransform="matrix(1, 0, 0, 1, 0, 0)" xlink:href="#linear-gradient-26" />
        <linearGradient id="linear-gradient-52" x1="183.84" y1="8.73" x2="182.05" y2="22.63" gradientTransform="matrix(1, 0, 0, 1, 0, 0)" xlink:href="#linear-gradient-28" />
    </defs>
    <g style="isolation:isolate">
        <g id="OBJECTS">
            <g style="mix-blend-mode:overlay">
                <path d="M56.12,168.84a3.28,3.28,0,1,1-3.28,3.28A3.28,3.28,0,0,1,56.12,168.84Z" fill="#fff" />
                <circle cx="231.38" cy="220.68" r="3.96" fill="#fff" />
                <path d="M288.29,303.69a1.35,1.35,0,1,1-1.35,1.35A1.34,1.34,0,0,1,288.29,303.69Z" fill="#fff" />
                <path d="M214.93,275.48a1.35,1.35,0,1,1-1.35,1.35A1.35,1.35,0,0,1,214.93,275.48Z" fill="#fff" />
                <path d="M119.91,171.9a1.35,1.35,0,1,1-1.35,1.35A1.35,1.35,0,0,1,119.91,171.9Z" fill="#fff" />
                <path d="M290.05,177.49a1.35,1.35,0,1,1-1.35,1.34A1.34,1.34,0,0,1,290.05,177.49Z" fill="#fff" />
                <path d="M244.62,85.3a1.35,1.35,0,1,1-1.34,1.34A1.34,1.34,0,0,1,244.62,85.3Z" fill="#fff" />
                <circle cx="147.98" cy="88.27" r="1.35" fill="#fff" />
                <path d="M93.54,217.7A3.28,3.28,0,1,1,90.26,221,3.28,3.28,0,0,1,93.54,217.7Z" fill="#fff" />
                <path d="M13,217.44a1.11,1.11,0,1,1-1.12,1.11A1.11,1.11,0,0,1,13,217.44Z" fill="#fff" />
                <path d="M265,258.64a1.11,1.11,0,1,1-1.11,1.11A1.11,1.11,0,0,1,265,258.64Z" fill="#fff" />
                <path d="M220.13,264.21a1.11,1.11,0,1,1-1.12,1.11A1.11,1.11,0,0,1,220.13,264.21Z" fill="#fff" />
                <path d="M187.83,112.39a1.12,1.12,0,1,1-1.11,1.12A1.12,1.12,0,0,1,187.83,112.39Z" fill="#fff" />
                <path d="M84.27,52.51a1.11,1.11,0,1,1-1.11,1.11A1.12,1.12,0,0,1,84.27,52.51Z" fill="#fff" />
            </g>
            <g style="mix-blend-mode:overlay">
                <path d="M243.21,48.55a1.12,1.12,0,1,1,1.11-1.11A1.11,1.11,0,0,1,243.21,48.55Z" fill="#fff" />
                <circle cx="163.17" cy="38.76" r="1.35" fill="#fff" />
                <path d="M17.67,53.24A1.35,1.35,0,1,1,19,51.89,1.35,1.35,0,0,1,17.67,53.24Z" fill="#fff" />
                <path d="M91,81.45a1.35,1.35,0,1,1,1.34-1.35A1.35,1.35,0,0,1,91,81.45Z" fill="#fff" />
                <path d="M186.05,185a1.35,1.35,0,1,1,1.34-1.34A1.35,1.35,0,0,1,186.05,185Z" fill="#fff" />
                <path d="M15.91,179.44a1.35,1.35,0,1,1,1.34-1.35A1.34,1.34,0,0,1,15.91,179.44Z" fill="#fff" />
                <path d="M61.33,271.63a1.35,1.35,0,1,1,1.35-1.34A1.34,1.34,0,0,1,61.33,271.63Z" fill="#fff" />
                <path d="M158,270a1.35,1.35,0,1,1,1.34-1.35A1.35,1.35,0,0,1,158,270Z" fill="#fff" />
                <path d="M227.62,69a1.12,1.12,0,1,1,1.11-1.12A1.12,1.12,0,0,1,227.62,69Z" fill="#fff" />
                <path d="M293,139.49a1.12,1.12,0,1,1,1.11-1.11A1.11,1.11,0,0,1,293,139.49Z" fill="#fff" />
                <path d="M40.92,98.29A1.12,1.12,0,1,1,42,97.18,1.12,1.12,0,0,1,40.92,98.29Z" fill="#fff" />
                <path d="M85.83,92.72a1.12,1.12,0,1,1,1.11-1.11A1.11,1.11,0,0,1,85.83,92.72Z" fill="#fff" />
                <path d="M118.12,244.53a1.11,1.11,0,1,1,1.12-1.11A1.11,1.11,0,0,1,118.12,244.53Z" fill="#fff" />
                <path d="M221.68,304.42a1.12,1.12,0,1,1,1.12-1.11A1.11,1.11,0,0,1,221.68,304.42Z" fill="#fff" />
            </g>
            <circle cx="195.82" cy="207.11" r="11.51" transform="translate(-89.1 199.12) rotate(-45)" fill="url(#radial-gradient)" />
            <g style="mix-blend-mode:overlay">
                <path
                    d="M206.2,209.09a115.85,115.85,0,0,1,11.39,6.78c.91.64,1.8,1.3,2.66,2a14.33,14.33,0,0,1,2.41,2.39,3.06,3.06,0,0,1,.44.8,1.12,1.12,0,0,1-.12,1.09,1.49,1.49,0,0,1-.91.5,3.93,3.93,0,0,1-.89.08,16.28,16.28,0,0,1-3.36-.45,85.27,85.27,0,0,1-12.6-4.26c-4.09-1.67-8.13-3.5-12.1-5.44s-7.87-4.06-11.7-6.28a88.32,88.32,0,0,1-11.07-7.37,19.1,19.1,0,0,1-2.45-2.32,4,4,0,0,1-.91-1.56,1.07,1.07,0,0,1,.35-1.06,1.91,1.91,0,0,1,.93-.35,11.11,11.11,0,0,1,3.38.34c1.09.24,2.16.54,3.22.86a112.84,112.84,0,0,1,12.33,4.88,127.37,127.37,0,0,0-12.47-4.41c-1.06-.29-2.12-.57-3.19-.78a10.55,10.55,0,0,0-3.18-.26,1.37,1.37,0,0,0-.61.22c-.12.1-.14.22-.1.42a3.55,3.55,0,0,0,.78,1.25,18.53,18.53,0,0,0,2.41,2.17,99,99,0,0,0,11,7.18c3.82,2.19,7.72,4.23,11.68,6.17s7.95,3.81,12,5.5A93.91,93.91,0,0,0,218,221.53a15.24,15.24,0,0,0,3.18.5,1.81,1.81,0,0,0,1.28-.29c.19-.17,0-.72-.32-1.12a14.06,14.06,0,0,0-2.25-2.32c-.83-.71-1.7-1.38-2.58-2A129.16,129.16,0,0,0,206.2,209.09Z"
                    fill="#fff" />
            </g>
            <path d="M255.81,197.62a14.84,14.84,0,1,1-9.07-18.92A14.84,14.84,0,0,1,255.81,197.62Z" fill="#e3eaff" opacity="0.38" />
            <path
                d="M239.14,192l1.4-4a1.08,1.08,0,0,1,1.9-.27l1.94,2.74,2.26,3.19a1.07,1.07,0,0,1-.58,1.66l-3.77,1.08-3.22.91a1.08,1.08,0,0,1-1.32-1.39Z" fill="#e3eaff" />
            <path
                d="M234.05,354.71l-80.22,46.62a10.88,10.88,0,0,1-10.91,0L62.13,354.7a4.71,4.71,0,0,1,0-8.15l80.7-46.9a9.94,9.94,0,0,1,10,0L234,346.56A4.71,4.71,0,0,1,234.05,354.71Z" fill="url(#linear-gradient)" />
            <g style="isolation:isolate">
                <path d="M215.85,303.66,148.3,342.92l0,32.71,66.09-38.4a3,3,0,0,0,1.48-2.58Z" fill="url(#linear-gradient-2)" />
                <path d="M80.48,303.66v31.1A3,3,0,0,0,82,337.35l66.31,38.28,0-32.81Z" fill="url(#linear-gradient-3)" />
                <path d="M214.79,305.25,151.2,342.2a5.76,5.76,0,0,1-5.8,0l-64-37a1.78,1.78,0,0,1,0-3.08l63.16-36.71a6.66,6.66,0,0,1,6.66,0l63.58,36.72A1.78,1.78,0,0,1,214.79,305.25Z" fill="#f2f8fd" />
                <path d="M188.92,305.64l-38.11,22.14a5.18,5.18,0,0,1-5.18,0l-38.37-22.16a2.24,2.24,0,0,1,0-3.87l38.33-22.28a4.73,4.73,0,0,1,4.73,0l38.6,22.29A2.24,2.24,0,0,1,188.92,305.64Z" fill="url(#linear-gradient-4)" />
            </g>
            <g style="isolation:isolate">
                <path d="M215.85,267.86,148.3,307.12l0,11.66,66.09-38.41a3,3,0,0,0,1.48-2.58Z" fill="url(#linear-gradient-5)" />
                <path d="M80.48,267.86v10.05A3,3,0,0,0,82,280.49l66.31,38.29,0-11.76Z" fill="url(#linear-gradient-6)" />
                <path d="M214.79,269.45,151.2,306.4a5.78,5.78,0,0,1-5.8,0l-64-37a1.78,1.78,0,0,1,0-3.08l63.16-36.71a6.66,6.66,0,0,1,6.66,0l63.58,36.71A1.79,1.79,0,0,1,214.79,269.45Z" fill="#f2f8fd" />
                <path d="M188.92,269.84,150.81,292a5.16,5.16,0,0,1-5.18,0l-38.37-22.15a2.24,2.24,0,0,1,0-3.87l38.33-22.28a4.71,4.71,0,0,1,4.73,0L188.91,266A2.25,2.25,0,0,1,188.92,269.84Z" fill="url(#linear-gradient-7)" />
            </g>
            <g style="isolation:isolate">
                <polygon points="96.58 347.14 87.53 341.88 87.57 356.9 96.62 362.16 96.58 347.14" fill="url(#linear-gradient-8)" />
                <polygon points="113.12 337.59 104.06 332.33 87.53 341.88 96.58 347.14 113.12 337.59" fill="url(#linear-gradient-9)" />
                <polygon points="96.58 347.14 96.62 362.16 104.39 357.68 104.37 351.57 113.14 346.51 113.12 337.59 96.58 347.14" fill="url(#linear-gradient-10)" />
            </g>
            <g style="isolation:isolate">
                <polygon points="110 355.38 100.94 350.12 100.99 365.14 110.04 370.4 110 355.38" fill="url(#linear-gradient-11)" />
                <polygon points="126.54 345.83 117.48 340.57 100.94 350.12 110 355.38 126.54 345.83" fill="url(#linear-gradient-12)" />
                <polygon points="110 355.38 110.04 370.4 117.8 365.92 117.79 359.81 126.56 354.75 126.54 345.83 110 355.38" fill="url(#linear-gradient-13)" />
            </g>
            <g style="isolation:isolate">
                <polygon points="205.37 347.14 214.42 341.88 214.38 356.9 205.32 362.16 205.37 347.14" fill="url(#linear-gradient-14)" />
                <polygon points="188.83 337.59 197.88 332.33 214.42 341.88 205.37 347.14 188.83 337.59" fill="url(#linear-gradient-15)" />
                <polygon points="205.37 347.14 205.32 362.16 197.56 357.68 197.58 351.57 188.8 346.51 188.83 337.59 205.37 347.14" fill="url(#linear-gradient-16)" />
            </g>
            <g style="isolation:isolate">
                <polygon points="191.95 355.38 201 350.12 200.96 365.14 191.91 370.4 191.95 355.38" fill="url(#linear-gradient-17)" />
                <polygon points="175.41 345.83 184.46 340.57 201 350.12 191.95 355.38 175.41 345.83" fill="url(#linear-gradient-18)" />
                <polygon points="191.95 355.38 191.91 370.4 184.14 365.92 184.16 359.81 175.38 354.75 175.41 345.83 191.95 355.38" fill="url(#linear-gradient-19)" />
            </g>
            <g style="mix-blend-mode:hard-light">
                <g style="mix-blend-mode:screen">
                    <path d="M200.13,98.77,147.26,129.5l0,170L199,269.41a2.34,2.34,0,0,0,1.16-2Z" fill="url(#linear-gradient-20)" />
                </g>
                <path d="M94.17,98.77V267.48a2.35,2.35,0,0,0,1.17,2l51.9,30,0-170.05Z" fill="url(#linear-gradient-21)" />
            </g>
            <g opacity="0.69">
                <rect x="60.28" y="179.86" width="37.98" height="26.09" rx="2.48"
                    transform="translate(-64.92 42.22) rotate(-21.4)"
                    fill="url(#linear-gradient-22)" style="mix-blend-mode:screen" />
                <path d="M88.91,186.74l-22.14,8.67a2.22,2.22,0,0,1-2.89-1.26h0a2.23,2.23,0,0,1,1.26-2.89l22.14-8.68a2.23,2.23,0,0,1,2.89,1.27h0A2.23,2.23,0,0,1,88.91,186.74Z"
                    fill="url(#linear-gradient-23)" style="mix-blend-mode:screen" />
            </g>
            <g opacity="0.69">
                <rect x="97.62" y="184.75" width="22.69" height="15.59" rx="1.48" transform="translate(73.58 -25.85) rotate(20.3)" fill="url(#linear-gradient-24)"
                    style="mix-blend-mode:screen" />
                <path d="M115.72,193.62l-13.33-4.93a1.33,1.33,0,0,1-.79-1.71h0a1.35,1.35,0,0,1,1.72-.79l13.32,4.93a1.34,1.34,0,0,1,.79,1.71h0A1.33,1.33,0,0,1,115.72,193.62Z"
                    fill="url(#linear-gradient-25)" style="mix-blend-mode:screen" />
            </g>
            <g style="mix-blend-mode:overlay">
                <path d="M120.89,234.45a.76.76,0,0,1,.34.6v6.08c0,.22-.16.31-.35.2l-7.7-4.44a.78.78,0,0,1-.35-.61l0-6.07c0-.22.16-.31.35-.2Z" fill="#fff" />
                <path d="M126.62,247.19a.81.81,0,0,1,.35.61l0,6.08c0,.22-.16.31-.35.2l-7.69-4.45a.75.75,0,0,1-.35-.6l0-6.08c0-.22.15-.31.35-.2Z" fill="#fff" />
            </g>
            <g style="mix-blend-mode:overlay">
                <path d="M79.55,234.45a.75.75,0,0,1,.35.6l0,6.08c0,.22-.15.31-.35.2l-7.69-4.44a.78.78,0,0,1-.35-.61l0-6.07c0-.22.16-.31.35-.2Z" fill="#fff" />
                <path d="M85.29,247.19a.81.81,0,0,1,.35.61l0,6.08c0,.22-.16.31-.35.2l-7.7-4.45a.74.74,0,0,1-.34-.6V243c0-.22.16-.31.35-.2Z" fill="#fff" />
            </g>
            <g style="mix-blend-mode:overlay">
                <path d="M204.24,234.45a.77.77,0,0,0-.35.6l0,6.08c0,.22.16.31.35.2l7.69-4.44a.75.75,0,0,0,.35-.61v-6.07c0-.22-.16-.31-.36-.2Z" fill="#fff" />
                <path
                    d="M198.51,247.19a.78.78,0,0,0-.35.61v6.08c0,.22.16.31.36.2l7.69-4.45a.77.77,0,0,0,.35-.6l0-6.08c0-.22-.16-.31-.35-.2Z"
                    fill="#fff" />
            </g>
            <g opacity="0.35" style="mix-blend-mode:overlay">
                <path d="M129.55,159.78a.75.75,0,0,1,.35.61l0,6.07c0,.23-.15.31-.35.2l-7.69-4.44a.77.77,0,0,1-.35-.6l0-6.08c0-.22.16-.31.35-.2Z" fill="#fff" />
                <path d="M135.29,172.53a.77.77,0,0,1,.35.6l0,6.08c0,.22-.16.31-.35.2l-7.7-4.44a.77.77,0,0,1-.34-.61v-6.07c0-.23.16-.32.35-.2Z" fill="#fff" />
            </g>
            <path d="M169.9,109.51l14.56-20.7a5.93,5.93,0,0,1,8.26-1.44L236,117.79a5.93,5.93,0,0,1,1.44,8.26l-14.57,20.7a5.93,5.93,0,0,1-8.26,1.43l-43.22-30.41A5.93,5.93,0,0,1,169.9,109.51Z"
                fill="url(#linear-gradient-26)" />
            <rect x="186.56" y="83.29" width="37.17" height="64.71" rx="5.93" transform="translate(-7.48 216.88) rotate(-54.87)" fill="url(#linear-gradient-27)" />
            <rect x="189.04" y="93.25" width="33.04" height="45.35" rx="0.6" transform="matrix(-0.58, 0.82, -0.82, -0.58, 418.65, 14.52)" fill="#f9fbfc" />
            <path d="M182.51,103.7l3.75-5.33a.72.72,0,0,0-.17-1h0a.71.71,0,0,0-1,.17l-3.76,5.34a.71.71,0,0,0,.18,1h0A.71.71,0,0,0,182.51,103.7Z"
                  fill="#3bc9ff" />
            <path d="M226.2,132.82a1.92,1.92,0,0,0,2.69-.47,1.93,1.93,0,1,0-2.69.47Z" fill="#3bc9ff" />
            <polygon points="185.56 104.97 236.82 6.85 302.42 59.15 221.21 133.53 185.56 104.97" opacity="0.57" fill="url(#linear-gradient-28)" style="mix-blend-mode:overlay" />
            <path d="M173,136.62h-.24c-.41,0-.82,0-1.24,0a21.22,21.22,0,0,0-21.21,20.83v.55h0v.52h0A21.21,21.21,0,1,0,173,136.62Zm13.46,21.94a15,15,0,0,1-29.87-.21v-1h0a14.94,14.94,0,0,1,14.94-14.57c.42,0,.84,0,1.25.06A15,15,0,0,1,186.47,158.56Z"
                  fill="#fff" opacity="0.43" style="mix-blend-mode:overlay" />
            <path d="M172.77,140.23h0a3.11,3.11,0,0,0,2.38,3,15,15,0,1,1-18.33,17.2,3.1,3.1,0,0,0-3.07-2.52h0a3.12,3.12,0,0,0-3.09,3.65,21.22,21.22,0,1,0,26-24.4A3.13,3.13,0,0,0,172.77,140.23Z"
                  fill="url(#linear-gradient-29)" />
            <rect x="98.68" y="104.37" width="28.92" height="22.45" rx="1.7" transform="translate(-31.24 42.69) rotate(-18.82)" fill="url(#linear-gradient-30)" />
            <path d="M122.3,101.73,121,97.85a.2.2,0,0,0-.25-.12l-12.24,4.17a.2.2,0,0,0-.13.19l.07,3.11a.19.19,0,0,1-.13.18l-11.8,4a1.9,1.9,0,0,0-1.18,2.41l6,17.67a1.9,1.9,0,0,0,2.4,1.18l23.79-8.11a1.89,1.89,0,0,0,1.18-2.4l-6.08-17.86A1.84,1.84,0,0,0,122.3,101.73Z"
                  fill="url(#linear-gradient-31)" />
            <rect x="101.38" y="113.55" width="19.05" height="2.55" transform="translate(-31.12 41.92) rotate(-18.82)" fill="url(#linear-gradient-32)" />
            <g style="isolation:isolate">
                <polygon points="84.82 150.26 78.43 159.92 65.5 159.32 71.89 149.67 84.82 150.26" fill="url(#linear-gradient-33)" />
                <polygon points="71.89 149.67 65.5 159.32 59.56 147.76 65.95 138.11 71.89 149.67" fill="url(#linear-gradient-34)" />
                <polygon points="84.82 150.26 71.89 149.67 65.95 138.11 78.88 138.7 84.82 150.26" fill="url(#linear-gradient-35)" />
            </g>
            <g style="isolation:isolate">
                <polygon points="150.04 96.61 148.87 100.23 144.72 101.18 145.89 97.56 150.04 96.61" fill="url(#linear-gradient-36)" />
                <polygon points="145.89 97.56 144.72 101.18 141.82 98.04 142.99 94.42 145.89 97.56" fill="url(#linear-gradient-37)" />
                <polygon points="150.04 96.61 145.89 97.56 142.99 94.42 147.13 93.47 150.04 96.61" fill="url(#linear-gradient-38)" />
            </g>
            <g style="isolation:isolate">
                <polygon points="68.61 257.63 70.04 261.16 67.48 264.55 66.05 261.03 68.61 257.63" fill="url(#linear-gradient-39)" />
                <polygon points="66.05 261.03 67.48 264.55 63.24 264.02 61.81 260.49 66.05 261.03" fill="url(#linear-gradient-40)" />
                <polygon points="68.61 257.63 66.05 261.03 61.81 260.49 64.37 257.1 68.61 257.63" fill="url(#linear-gradient-41)" />
            </g>
            <g style="isolation:isolate">
                <polygon points="228.52 160.63 230.69 165.96 226.82 171.1 224.65 165.77 228.52 160.63"
                         fill="url(#linear-gradient-42)" />
                <polygon points="224.65 165.77 226.82 171.1 220.4 170.29 218.23 164.96 224.65 165.77"
                         fill="url(#linear-gradient-43)" />
                <polygon points="228.52 160.63 224.65 165.77 218.23 164.96 222.11 159.82 228.52 160.63"
                         fill="url(#linear-gradient-44)" />
            </g>
            <path d="M150.41,196.68v1.57a1.2,1.2,0,0,1-1.8,1L141.23,195a1.2,1.2,0,0,1-.6-1V192.4a1.2,1.2,0,0,1,1.8-1l7.38,4.28A1.21,1.21,0,0,1,150.41,196.68Z"
                  fill="#1ae5ff" />
            <path d="M173.75,217.93v1.57a1.2,1.2,0,0,1-1.8,1l-30.74-17.74a1.21,1.21,0,0,1-.6-1v-1.57a1.19,1.19,0,0,1,1.79-1l30.74,17.74A1.21,1.21,0,0,1,173.75,217.93Z"
                  fill="#1ae5ff" />
            <g opacity="0.53">
                <path d="M161,226.19v1.57a1.2,1.2,0,0,1-1.8,1l-18.06-10.43a1.2,1.2,0,0,1-.6-1v-1.57a1.2,1.2,0,0,1,1.8-1l18.06,10.43A1.16,1.16,0,0,1,161,226.19Z"
                      fill="#1ae5ff" />
            </g>
            <path d="M169,223v1.57a1.2,1.2,0,0,1-1.8,1l-26-15a1.23,1.23,0,0,1-.6-1.05V208a1.2,1.2,0,0,1,1.8-1l26,15A1.18,1.18,0,0,1,169,223Z"
                  fill="#1ae5ff" />
            <path d="M106.39,59.19a9.43,9.43,0,0,1-3.34-1.77,23.28,23.28,0,0,1-3.3-5.65c-.66-1.68-1.64-.92-1.73-.37a19.12,19.12,0,0,0,.75,6c.78,2.79,2,3.23,2.32,4.27s.44,1.12.9,1.29,4-1.29,4-1.29Z"
                  fill="#f1f0f5" />
            <path d="M154.25,64.61s-7.33-3.24-17-6.4c-9.15-3-28.57-.5-31.54-.05a2.17,2.17,0,0,0-.76.27c-1.07.61-1,1-.2,2.78.89,1.93,22,2.83,25.79,3.59s12.28,7.2,18.18,10.55,11,3.21,13.41,1.23S154.25,64.61,154.25,64.61Z"
                  fill="url(#linear-gradient-45)" />
            <path d="M170.36,75.58s-7.1,9.11-22,8.31c-12.1-2.45-14.74-4-15.69-4s-19.43,3.49-27.44,1.81c-2.17-1.66.28-3.95.28-3.95s23.64-6.52,28.85-6.19,19.37-1.91,22.68-1.33S170.36,75.58,170.36,75.58Z"
                  fill="url(#linear-gradient-46)" />
            <path d="M159.4,76.81s-11.62,3.3-22.33.23c-2.19-.39-22,4.9-32.68,3.26a2.1,2.1,0,0,0,.88,1.41c8,1.68,26.49-1.84,27.44-1.81s3.59,1.54,15.69,4a28.06,28.06,0,0,0,18.78-5.36Z"
                  fill="url(#linear-gradient-47)" />
            <path d="M105.27,81.71s1.78-1.37,1.48-3.16a28.84,28.84,0,0,0-.73-3c-.1-.6.8-2.83,1-5.55s-3.08-.1-3.6,1.07-.74,4.61-1.37,5.89-1.3,3.28-.51,4.61S105.27,81.71,105.27,81.71Z"
                  fill="#f1f0f5" />
            <path d="M136,54.57s-1,.44-2.58-1.15l-1.61-1.6s-2.17-.6-2.39-1.09,2.18.37,2.18.37-3.28-1.41-2.8-1.63,2.71.8,2.71.8-3-2.06-2.2-1.85A14.76,14.76,0,0,1,132,49.87s-1.85-1.73-1.37-1.83,2.5,1.68,3.25,2.36S136.59,53.34,136,54.57Z"
                  fill="#eb6e7a" />
            <path d="M159.63,52.36s-5.46,2.52-8.08,2.83-12.77-1.52-15.1-3c-1.07-1-1.67-2.11-2.67-2.86s-1,.6-.13,1.5.1,1.74.77,2.95,1.86,1.33,2.64,1.67,8.06,2.72,10.81,3.52,10-.07,11.41-.58S161,53.36,159.63,52.36Z"
                  fill="#faa993" />
            <path d="M134.17,53.07a2.63,2.63,0,0,0,.25.69c.68,1.21,1.86,1.33,2.64,1.67s8.06,2.72,10.81,3.52,10-.07,11.41-.58c.66-.25,1.08-1.42,1.19-2.68C157.56,57.28,148.6,60.68,134.17,53.07Z"
                  fill="#eb6264" opacity="0.57" />
            <path d="M169.8,45a13.73,13.73,0,0,0-6.31,3,30.38,30.38,0,0,1-6.93,3.89,4.42,4.42,0,0,0,1.72,5.75c3.34,1.93,8.94-4.85,9.35-5.24S171.68,47.06,169.8,45Z"
                  fill="url(#linear-gradient-48)" />
            <path d="M156.56,51.87a4.42,4.42,0,0,0,1.72,5.75,3.56,3.56,0,0,0,3.35-.18,1.27,1.27,0,0,0-.25-.43,6.79,6.79,0,0,1-3.14-5.87C157.22,51.62,156.56,51.87,156.56,51.87Z"
                  fill="#d7dbd9" />
            <path d="M174.07,45.11s-1.4-.75-4.27-.13-5.44,6.71-8.27,10.06c-2.53,3-10,5.62-13.48,6.18A1.29,1.29,0,0,0,147,62.6a18,18,0,0,0,6.08,11.87c6.69,6.15,11.69,5.6,13.5,4.83,0,0,10.34-8.62,14.82-16.08a14.74,14.74,0,0,0,.53-14.65C181.24,47.36,174.07,45.11,174.07,45.11Z"
                  fill="url(#linear-gradient-49)" />
            <path d="M166.56,79.3s10.34-8.62,14.82-16.08a14.74,14.74,0,0,0,.53-14.65,1.5,1.5,0,0,0-.42-.42L178.31,50a9.15,9.15,0,0,1,.18,9C176.07,64,165.91,77,156.76,77.34,161.57,80.39,165.1,79.92,166.56,79.3Z"
                  fill="#45b1d5" opacity="0.18" style="mix-blend-mode:multiply" />
            <path d="M182.52,44.44s-.1,1.24,2.17.84,3.57-3.8,6.21-6.51,1.56-4.22,1.4-5,1.23-3.1-.22-5.88-4.29-3.22-5-5.09-4.5-.26-5.84.88a7.89,7.89,0,0,0-2.68,5.61c-.27,2.79-3.16,5.84-2,9.2S182.52,44.44,182.52,44.44Z"
                  fill="#ff9a34" />
            <path d="M189.92,32.21s1.85-2.07.72-3.89-4.58-1.57-5.71-3.15-.51-2.63-2.31-2.1c-.31.1-.71.25-1.16.44l-.22.17a7.89,7.89,0,0,0-2.68,5.61,7.14,7.14,0,0,1-.43,1.74C182.06,32.41,189.07,32.94,189.92,32.21Z"
                  fill="#ff7723" />
            <path d="M173.15,36.93c-.75,3.78,1.92,4.34,1.19,7.16S174,48,175.53,48.88s4.72,1.1,5.22.17.67-2.47,1.3-3.52,5.76-5.39,7.4-8.54a7.19,7.19,0,0,0-1.86-8.61C179.64,23,173.91,33.16,173.15,36.93Z"
                  fill="#faa993" />
            <path d="M190.93,31.92a.56.56,0,0,0-.85.08c-.15.18-.47.32-1.11.3-1.66,0-2.6,1.52-2,2.49s.55,1.44.35,2-1.95,1.72-2,2.43-2.26,4-.6,4,5.58-3.85,6.63-6.9C192.12,34,191.67,32.68,190.93,31.92Z"
                  fill="#ff9a34" />
            <path d="M186.62,36.91s1.83-1.48,2.62-.15-2.75,4.19-3.79,3.32S186.62,36.91,186.62,36.91Z"
                  fill="#faa993" />
            <path d="M174.34,44.09c-.72,2.83-.32,3.91,1.19,4.79s4.72,1.1,5.22.17.67-2.47,1.3-3.52a26,26,0,0,1,2.29-2.44c-.63-.17-1.5.76-2.22,1s-1.53-.41-2.61-2-2.1-1.14-2.86-1.34-1.15-.57-.05-2.26a5.48,5.48,0,0,0,1-3.63c0-1-.78-.34-.69-.73a1.39,1.39,0,0,1,1.3-.91c.63,0,1.4-1.93,3.21-3.93a8.44,8.44,0,0,1,4-2.06c-6.78-2.35-11.52,6.3-12.2,9.7C172.4,40.71,175.07,41.27,174.34,44.09Z"
                  fill="#eb6264" opacity="0.57" />
            <path d="M181.68,48.1a.84.84,0,0,0-.64,0c-1,.44-4.6,1.51-7-3a2.06,2.06,0,0,0-1.36-.1c-.3.17-.05,3.5,2.27,5s5.73,1,6.72-.2a5.13,5.13,0,0,0,.35-.44.84.84,0,0,0-.37-1.27Z"
                  fill="#d7dbd9" />
            <path d="M103.81,77.7c0-1,.37-1.57.42-3.15s2.46-4.28,1.82-5.69a5.32,5.32,0,0,0-2.62,2.22c-.51,1.17-.74,4.61-1.37,5.89s-1.3,3.28-.51,4.61a1.28,1.28,0,0,0,.29.32l.18-.06C104.1,81,103.86,78.73,103.81,77.7Z"
                  fill="#d1d6e4" />
            <path d="M176.86,69.24c.47-.54.93-1.08,1.37-1.62-8.81-2.92-14.1-9.72-16.29-13.11-.13.18-.27.36-.41.53a9,9,0,0,1-.82.8A32.43,32.43,0,0,0,176.86,69.24Z"
                  fill="#f1f0f5" />
            <path d="M179.79,66.67s-3.4,5.94-6.45,8.57-13.35-2-16.72-8a7.07,7.07,0,0,1-2.13-4c-.07-1.31-2.33-1.27-2.9-2.12s2-.29,2-.29-3.07-.57-2.21-1.37,2.48.43,2.48.43-2.54-2.22-1.48-2.06a6.29,6.29,0,0,1,2.45,1.38s-2.06-2.44-.78-1.57a7.85,7.85,0,0,1,3.11,3.07,14.49,14.49,0,0,0,1.55,3.38c.57.61,5.14,6.22,11.31,6.18,1.82-1,5.11-7.31,5.11-7.31Z"
                  fill="#faa993" />
            <path d="M173.34,75.24c2.75-2.37,5.78-7.43,6.35-8.41l-3,.25a31.43,31.43,0,0,1-4.54,5.79c-2.12,1.83-11.87-2.68-14.89-7.05-2.57-3.88-2-3.63-2.57-3.88s-2.26-1.33-3.13-1a.33.33,0,0,0,.07.23c.57.85,2.83.81,2.9,2.12a7.07,7.07,0,0,0,2.13,4C160,73.27,170.17,77.75,173.34,75.24Z"
                  fill="#eb6264" opacity="0.57" />
            <path d="M180.64,52.91a2.22,2.22,0,0,1,3,1.48,13.75,13.75,0,0,1,.2,5.52A25.84,25.84,0,0,1,181,67.45a3.09,3.09,0,0,1-3.54,1.64,8.26,8.26,0,0,1-4.33-3,2.35,2.35,0,0,1-.36-1.75c.63-3.33,5.7-9.73,6.65-10.73A3,3,0,0,1,180.64,52.91Z"
                  fill="url(#linear-gradient-50)" />
            <path d="M172.75,64s2.62,4.81,8,4c0,.84-.91,1.82-1.15,2.17s-4.25.87-7.73-3.22C171.62,66.05,172.56,64.36,172.75,64Z"
                  fill="#d7dbd9" />
            <path d="M187.18,37.18,189,41.27s1.07,0,1.23-1.73c-.28-.56-1.68-3.76-1.68-3.76Z"
                  fill="#282a57" />
            <path d="M174.41,31.84a.88.88,0,0,0,1,.66,7.38,7.38,0,0,1,2.43-.13c1.46.22,2,.56,2.46,1.45a8.8,8.8,0,0,0,3.81,3.36,4.49,4.49,0,0,0,2.39.4.69.69,0,0,0,.31-.12A5.34,5.34,0,0,0,189,35.28c.26-.73-.17-2.15-.57-3.2a3.67,3.67,0,0,0-1.73-1.95,35.74,35.74,0,0,0-7.33-2.8,4.21,4.21,0,0,0-5.16,3.36C174.23,31,174.32,31.46,174.41,31.84Z"
                  fill="#fff" />
            <path d="M189,35.28c.26-.73-.17-2.15-.57-3.2a3.73,3.73,0,0,0-.86-1.31,2.59,2.59,0,0,1,.27,1.78c-.45,1.35-2.69,2.92-4,2.39s-2.69-3.13-5.45-4.25a4.89,4.89,0,0,0-4.13.1c.05.32.13.71.21,1.05a.88.88,0,0,0,1,.66,7.38,7.38,0,0,1,2.43-.13c1.46.22,2,.56,2.46,1.45a8.8,8.8,0,0,0,3.81,3.36,4.49,4.49,0,0,0,2.39.4.69.69,0,0,0,.31-.12A5.34,5.34,0,0,0,189,35.28Z"
                  fill="#d7dbd9" />
            <path d="M176.76,28.07s-1,.52-.6,1.12,3.29.6,5.38,2.32,3.81,2.16,4.63,1.12-.82-1.79-2.24-2.62S179.15,27.55,176.76,28.07Z"
                  fill="url(#linear-gradient-51)" />
            <path d="M176.16,29.19l-1.34-16.8,17,.6-5.68,19.64s-1.79,1.12-4.33-1A12.3,12.3,0,0,0,176.16,29.19Z"
                  opacity="0.57" fill="url(#linear-gradient-52)" style="mix-blend-mode:overlay" />
        </g>
    </g>
</svg>