<svg id="Layer_3" data-name="Layer 3" xmlns="http://www.w3.org/2000/svg" xmlns:xlink="http://www.w3.org/1999/xlink" viewBox="0 0 598 146" width="598" height="146">
    <defs>
        <linearGradient id="linear-gradient" x1="15.05" y1="71.36" x2="560.49" y2="71.36" gradientUnits="userSpaceOnUse">
            <stop offset="0.08" stop-color="#ff7bac" stop-opacity="0"></stop>
            <stop offset="0.88" stop-color="#ff7bac"></stop>
        </linearGradient>
    </defs>
    <path d="M30.43,61a24.5,24.5,0,0,1-12.57-3.07,20.49,20.49,0,0,1-8.1-8.64A28.52,28.52,0,0,1,6.93,36.17V34.7A28.6,28.6,0,0,1,9.69,21.88a21.14,21.14,0,0,1,7.91-8.8A22.77,22.77,0,0,1,29.88,9.87a29.18,29.18,0,0,1,9.35,1.45,23,23,0,0,1,7.64,4.25V27.3h-7l-1-7.61a13.18,13.18,0,0,0-2.47-1.4,14.51,14.51,0,0,0-2.93-.88,17.64,17.64,0,0,0-3.43-.31,12.69,12.69,0,0,0-7.47,2.17,13.65,13.65,0,0,0-4.76,6.08,23.86,23.86,0,0,0-1.65,9.28v1.54A23.2,23.2,0,0,0,18,45.55a13.67,13.67,0,0,0,5,6.08,13.55,13.55,0,0,0,7.69,2.14,19.86,19.86,0,0,0,4.4-.5A18.87,18.87,0,0,0,38.89,52l1-7H46.8V56.6a26.67,26.67,0,0,1-7.09,3.12A32.81,32.81,0,0,1,30.43,61Z" fill="#497ded" stroke="white" class="svg-claim-1"></path>
    <path d="M69.41,61a17.27,17.27,0,0,1-9.27-2.38,15.88,15.88,0,0,1-5.94-6.64,22,22,0,0,1-2.08-9.77v-.72a21.85,21.85,0,0,1,2.08-9.72,16.09,16.09,0,0,1,5.94-6.65,17,17,0,0,1,9.21-2.42,17.05,17.05,0,0,1,9.24,2.41,15.81,15.81,0,0,1,5.92,6.63,22.05,22.05,0,0,1,2.06,9.75v.72a22.17,22.17,0,0,1-2.06,9.77,15.77,15.77,0,0,1-5.92,6.64A17.1,17.1,0,0,1,69.41,61Zm0-7.13a6.73,6.73,0,0,0,4.46-1.46,8.61,8.61,0,0,0,2.6-4.11,19.76,19.76,0,0,0,.86-6.09v-.72a19.46,19.46,0,0,0-.86-6,8.66,8.66,0,0,0-2.62-4.11,7.53,7.53,0,0,0-9,0,8.8,8.8,0,0,0-2.61,4.11,19.47,19.47,0,0,0-.85,6v.72a19.82,19.82,0,0,0,.85,6.11,8.63,8.63,0,0,0,2.63,4.09A6.85,6.85,0,0,0,69.41,53.83Z" fill="#497ded" stroke="white" class="svg-claim-2"></path>
    <path d="M90,60.25v-5.6l5-1V13.69l-5.36-1V7H104.2V53.63l5,1v5.6Z" fill="#497ded" stroke="white" class="svg-claim-3"></path>
    <path d="M129.48,61a17.29,17.29,0,0,1-9.28-2.38,15.8,15.8,0,0,1-5.93-6.64,21.9,21.9,0,0,1-2.08-9.77v-.72a21.71,21.71,0,0,1,2.08-9.72,16,16,0,0,1,5.93-6.65,18.83,18.83,0,0,1,18.45,0,15.81,15.81,0,0,1,5.92,6.63,21.91,21.91,0,0,1,2.06,9.75v.72a22,22,0,0,1-2.06,9.77,15.77,15.77,0,0,1-5.92,6.64A17.09,17.09,0,0,1,129.48,61Zm0-7.13a6.7,6.7,0,0,0,4.45-1.46,8.7,8.7,0,0,0,2.61-4.11,19.78,19.78,0,0,0,.85-6.09v-.72a19.47,19.47,0,0,0-.85-6,8.75,8.75,0,0,0-2.63-4.11,7.53,7.53,0,0,0-9,0,8.8,8.8,0,0,0-2.61,4.11,19.77,19.77,0,0,0-.85,6v.72a20.13,20.13,0,0,0,.85,6.11,8.63,8.63,0,0,0,2.63,4.09A6.88,6.88,0,0,0,129.48,53.83Z" fill="#497ded" stroke="white" class="svg-claim-4"></path>
    <path d="M151.78,60.25v-5.6l4.95-1V30l-5.32-1V23.34h13.91l.41,4.61.07.78a11.7,11.7,0,0,1,3.48-4.52,8,8,0,0,1,4.91-1.55,14.53,14.53,0,0,1,2,.15,12.27,12.27,0,0,1,1.82.4l-1,8.56-4.88-.28a6.09,6.09,0,0,0-3.63.82A7.87,7.87,0,0,0,166,34.94V53.63l4.94,1v5.6Z" fill="#497ded" stroke="white" class="svg-claim-5"></path>
    <path d="M208.13,75.15a16.63,16.63,0,0,1-2.58-.22A24.62,24.62,0,0,1,203,74.4L204,67.51c.41.07.89.13,1.45.17s1,.07,1.34.07a5.63,5.63,0,0,0,3.69-1.23A7.87,7.87,0,0,0,212.84,63l1-2.62-12.48-30.8L196.91,29V23.34h18.76V29l-4.54.68,6.11,16.75.92,2.63h.2l7.23-19.41-4.5-.65V23.34h17.6V29l-4.06.58L220.44,65.77a21.29,21.29,0,0,1-2.57,4.73,11.49,11.49,0,0,1-3.93,3.39A12.23,12.23,0,0,1,208.13,75.15Z" fill="#497ded" stroke="white" class="svg-claim-6"></path>
    <path d="M258.27,61A17.29,17.29,0,0,1,249,58.58a15.8,15.8,0,0,1-5.93-6.64A21.9,21.9,0,0,1,241,42.17v-.72a21.71,21.71,0,0,1,2.09-9.72A16,16,0,0,1,249,25.08a18.83,18.83,0,0,1,18.45,0,15.81,15.81,0,0,1,5.92,6.63,22.05,22.05,0,0,1,2.06,9.75v.72a22.17,22.17,0,0,1-2.06,9.77,15.77,15.77,0,0,1-5.92,6.64A17.09,17.09,0,0,1,258.27,61Zm0-7.13a6.7,6.7,0,0,0,4.45-1.46,8.7,8.7,0,0,0,2.61-4.11,19.78,19.78,0,0,0,.85-6.09v-.72a19.47,19.47,0,0,0-.85-6,8.75,8.75,0,0,0-2.63-4.11,7.53,7.53,0,0,0-9,0,8.8,8.8,0,0,0-2.61,4.11,19.77,19.77,0,0,0-.85,6v.72a20.13,20.13,0,0,0,.85,6.11,8.63,8.63,0,0,0,2.63,4.09A6.88,6.88,0,0,0,258.27,53.83Z" fill="#497ded" stroke="white" class="svg-claim-7"></path>
    <path d="M295.79,61q-5.91,0-9.23-3.73t-3.33-11.62V30l-4.09-1V23.34h13.37V45.68c0,2.91.48,5,1.45,6.19a5.34,5.34,0,0,0,4.45,1.83,9,9,0,0,0,4.33-1,7.68,7.68,0,0,0,3-2.83V30l-4.5-1V23.34H315V53.63l4.4,1v5.6H306.8l-.61-4.85a11.92,11.92,0,0,1-4.38,4.13A12.4,12.4,0,0,1,295.79,61Z" fill="#497ded" stroke="white" class="svg-claim-8"></path>
    <path d="M323.82,60.25v-5.6l4.95-1V30l-5.32-1V23.34h13.91l.41,4.61.07.78a11.7,11.7,0,0,1,3.48-4.52,8,8,0,0,1,4.91-1.55,14.64,14.64,0,0,1,2,.15,12.27,12.27,0,0,1,1.82.4L349,31.77l-4.87-.28a6.14,6.14,0,0,0-3.64.82A8.08,8.08,0,0,0,338,34.94V53.63l4.95,1v5.6Z" fill="#497ded" stroke="white" class="svg-claim-9"></path>
    <path d="M384.6,60.93q-4.91,0-7.62-2.75t-2.71-8.71V29.93h-5.22V23.34h5.22v-9h9.24v9h7.06v6.59h-7.06V49.47a4.59,4.59,0,0,0,.95,3.24,3.4,3.4,0,0,0,2.56,1,15.67,15.67,0,0,0,2-.14q1-.14,1.77-.27l.89,6.58a28.26,28.26,0,0,1-3.4.75A21.71,21.71,0,0,1,384.6,60.93Z" fill="#497ded" stroke="white" class="svg-claim-10"></path>
    <path d="M407.73,61q-5.57,0-8.75-2.91a10.29,10.29,0,0,1-3.19-8A10.21,10.21,0,0,1,400,41.57c2.84-2.17,6.92-3.25,12.27-3.25h5.25v-2.9a6.18,6.18,0,0,0-1.66-4.51,6.49,6.49,0,0,0-4.86-1.7,10.37,10.37,0,0,0-3.12.43,8.24,8.24,0,0,0-2.47,1.21l-.78,4.94H397.9l-.07-9.34A27.55,27.55,0,0,1,404,23.7a25.39,25.39,0,0,1,7.49-1q7.13,0,11.24,3.33t4.11,9.53V51.24c0,.5,0,1,0,1.47a10.71,10.71,0,0,0,.12,1.4l3.79.54v5.6H419c-.25-.71-.48-1.43-.7-2.17a14.48,14.48,0,0,1-.46-2.23,14.7,14.7,0,0,1-4.31,3.7A11.62,11.62,0,0,1,407.73,61ZM410,54a9.3,9.3,0,0,0,4.42-1.09,8.13,8.13,0,0,0,3.12-2.76v-6h-5.29a7.79,7.79,0,0,0-5.4,1.66,5.09,5.09,0,0,0-1.83,3.9,4,4,0,0,0,1.3,3.18A5.43,5.43,0,0,0,410,54Z" fill="#497ded" stroke="white" class="svg-claim-11"></path>
    <path d="M450.29,61a35.25,35.25,0,0,1-7.55-.76,35.64,35.64,0,0,1-6.84-2.27l-.1-10.1h6.54l1.3,5.32a14.68,14.68,0,0,0,2.8,1,14.46,14.46,0,0,0,3.31.34q3.51,0,5-1.18a3.66,3.66,0,0,0-.09-5.9q-1.53-1.24-5.93-2.16Q442.11,43.8,439,41a9.28,9.28,0,0,1-3.1-7.21,10.18,10.18,0,0,1,1.58-5.56,11.2,11.2,0,0,1,4.76-4,18.42,18.42,0,0,1,7.95-1.52,30.61,30.61,0,0,1,7.55.86,22.46,22.46,0,0,1,5.68,2.18l.17,9.75h-6.51L456,30.64a7.45,7.45,0,0,0-2.32-1.11,10.64,10.64,0,0,0-3-.39,6.9,6.9,0,0,0-4.25,1.16,3.54,3.54,0,0,0-1.51,2.93,3.58,3.58,0,0,0,.51,1.88,4.63,4.63,0,0,0,2,1.59,20.35,20.35,0,0,0,4.35,1.38q7,1.61,10.15,4.26a9,9,0,0,1,3.12,7.23,10.33,10.33,0,0,1-3.67,8.22Q457.73,61,450.29,61Z" fill="#497ded" stroke="white" class="svg-claim-12"></path>
    <path d="M469.29,60.25v-5.6l5-1V13.69l-5.36-1V7h14.6V53.63l4.57,1v5.6Zm13.3-10.2-4.3-5.53,16-14.94.11-.13-3.82-.51v-5.6h18.48V29l-4.74,1.16Zm10.23,10.2V54.86l3-.62-.07-.13L487.74,43.4l5.77-6.28,12.68,16.51,4.74,1v5.6Z" fill="#497ded" stroke="white" class="svg-claim-13"></path>
    <path d="M530.14,61a33.68,33.68,0,0,1-14.4-3l-.1-10.1h6.55l1.3,5.32a14.35,14.35,0,0,0,2.79,1,14.52,14.52,0,0,0,3.31.34c2.34,0,4-.39,5-1.18a3.64,3.64,0,0,0,1.45-3,3.72,3.72,0,0,0-1.53-3q-1.53-1.24-5.94-2.16Q522,43.8,518.85,41a9.29,9.29,0,0,1-3.11-7.21,10.11,10.11,0,0,1,1.59-5.56,11.14,11.14,0,0,1,4.76-4A18.37,18.37,0,0,1,530,22.69a30.7,30.7,0,0,1,7.56.86,22.6,22.6,0,0,1,5.68,2.18l.17,9.75h-6.52l-1-4.84a7.56,7.56,0,0,0-2.32-1.11,10.69,10.69,0,0,0-3-.39,6.88,6.88,0,0,0-4.25,1.16,3.55,3.55,0,0,0-1.52,2.93,3.58,3.58,0,0,0,.51,1.88,4.66,4.66,0,0,0,2,1.59,20.35,20.35,0,0,0,4.35,1.38q7,1.61,10.14,4.26a9,9,0,0,1,3.13,7.23,10.37,10.37,0,0,1-3.67,8.22Q537.56,61,530.14,61Z" fill="#497ded" stroke="white" class="svg-claim-14"></path>
    <path d="M553.84,72.29l-4.67-2.66a23.32,23.32,0,0,0,2.11-4.93,19.83,19.83,0,0,0,.75-5.61v-7h8.46l0,6.58a16,16,0,0,1-1.89,7.48A21,21,0,0,1,553.84,72.29Z" fill="#497ded" stroke="white" class="svg-claim-15"></path>
    <path d="M22.82,121.5a34.08,34.08,0,0,1-14.39-3l-.1-10.1h6.55l1.29,5.32a14.68,14.68,0,0,0,2.8,1,15.11,15.11,0,0,0,3.31.34c2.34,0,4-.4,5-1.18a3.64,3.64,0,0,0,1.45-3,3.7,3.7,0,0,0-1.53-3q-1.55-1.25-5.94-2.17-6.59-1.39-9.69-4.21a9.28,9.28,0,0,1-3.1-7.21A10.11,10.11,0,0,1,10,88.76a11.11,11.11,0,0,1,4.75-4,18.45,18.45,0,0,1,8-1.52,31.21,31.21,0,0,1,7.56.85A22.37,22.37,0,0,1,36,86.27L36.13,96H29.61l-1.06-4.84a7.45,7.45,0,0,0-2.32-1.11,10.59,10.59,0,0,0-3-.39A6.85,6.85,0,0,0,19,90.84a3.52,3.52,0,0,0-1.52,2.93A3.61,3.61,0,0,0,18,95.65a4.58,4.58,0,0,0,2,1.58,20.53,20.53,0,0,0,4.34,1.39q7,1.59,10.15,4.26a9,9,0,0,1,3.12,7.23,10.38,10.38,0,0,1-3.66,8.22Q30.26,121.5,22.82,121.5Z" fill="#497ded" stroke="white" class="svg-claim-16"></path>
    <path d="M41.92,135v-5.62l4.91-1V90.53l-5.38-1V83.88H55.26l.51,4.33a11,11,0,0,1,9.72-5,12.22,12.22,0,0,1,7.66,2.44A15.25,15.25,0,0,1,78,92.48a28.11,28.11,0,0,1,1.71,10.23v.71a24.38,24.38,0,0,1-1.71,9.5,14.22,14.22,0,0,1-4.89,6.33,13,13,0,0,1-7.69,2.25,12.47,12.47,0,0,1-5.39-1.09,11,11,0,0,1-4-3.21v11.12l5.05,1V135Zm20.74-20.6a6.49,6.49,0,0,0,5.9-3,14.83,14.83,0,0,0,1.88-8v-.71a22,22,0,0,0-.84-6.4A9.15,9.15,0,0,0,67,92a6.4,6.4,0,0,0-4.44-1.56,7.29,7.29,0,0,0-3.87,1,7.38,7.38,0,0,0-2.64,2.81v16.55a6.92,6.92,0,0,0,2.64,2.62A7.92,7.92,0,0,0,62.66,114.37Z" fill="#497ded" stroke="white" class="svg-claim-17"></path>
    <path d="M83.53,120.79v-5.6l5-1V90.53l-5.36-1V83.88H97.76v30.29l4.94,1v5.6Zm4.61-45V67.58h9.62V75.8Z" fill="#497ded" stroke="white" class="svg-claim-18"></path>
    <path d="M123.51,121.5a17,17,0,0,1-9.09-2.37,15.81,15.81,0,0,1-5.92-6.56,21.45,21.45,0,0,1-2.08-9.66v-1.12a21.14,21.14,0,0,1,2.1-9.59,16.25,16.25,0,0,1,5.92-6.6,16.53,16.53,0,0,1,9-2.4,21.27,21.27,0,0,1,8.44,1.53,18.86,18.86,0,0,1,5.78,3.69V98.65h-7l-1.3-6.58a6.7,6.7,0,0,0-2.25-1.44,7.82,7.82,0,0,0-2.9-.54,7.39,7.39,0,0,0-4.65,1.45,8.78,8.78,0,0,0-2.87,4.06,17.68,17.68,0,0,0-1,6.19v1.12a17.34,17.34,0,0,0,1,6.4,8.22,8.22,0,0,0,2.82,3.8,7.35,7.35,0,0,0,8.54-.22,7.33,7.33,0,0,0,2.32-4.18h7.95l.1.21a16.68,16.68,0,0,1-2.2,6.6,11.65,11.65,0,0,1-4.85,4.41A17.46,17.46,0,0,1,123.51,121.5Z" fill="#497ded" stroke="white" class="svg-claim-19"></path>
    <path d="M160.75,121.5a17.53,17.53,0,0,1-9.15-2.33,16,16,0,0,1-6.06-6.45,20,20,0,0,1-2.15-9.4v-1.4a21.69,21.69,0,0,1,2.07-9.65,16.23,16.23,0,0,1,5.78-6.65,15.42,15.42,0,0,1,8.59-2.42,16.46,16.46,0,0,1,8.43,2,12.68,12.68,0,0,1,5.15,5.72,20.92,20.92,0,0,1,1.74,8.93V105H153l-.07.21a11.42,11.42,0,0,0,1.2,4.72,8.11,8.11,0,0,0,3,3.26,8.56,8.56,0,0,0,4.64,1.19,17,17,0,0,0,9.89-3l2.66,5.76a18.7,18.7,0,0,1-5.62,3.09A23.11,23.11,0,0,1,160.75,121.5Zm-7.64-22.82h13.31V97.8a10.87,10.87,0,0,0-.69-4,5.6,5.6,0,0,0-2.09-2.67,6.44,6.44,0,0,0-3.67-1,5.62,5.62,0,0,0-3.51,1.11,7.58,7.58,0,0,0-2.32,3A14.23,14.23,0,0,0,153,98.51Z" fill="#497ded" stroke="white" class="svg-claim-20"></path>
    <path d="M212.87,121.5q-5.9,0-9.23-3.73t-3.32-11.62V90.53l-4.09-1V83.88H209.6v22.34c0,2.91.48,5,1.45,6.19a5.32,5.32,0,0,0,4.45,1.83,9,9,0,0,0,4.33-1,7.82,7.82,0,0,0,3-2.83V90.53l-4.51-1V83.88h13.78v30.29l4.4,1v5.6H223.89l-.62-4.85a12,12,0,0,1-4.38,4.13A12.48,12.48,0,0,1,212.87,121.5Z" fill="#497ded" stroke="white" class="svg-claim-21"></path>
    <path d="M239.92,135v-5.62l4.91-1V90.53l-5.39-1V83.88h13.81l.51,4.33a11.05,11.05,0,0,1,9.73-5,12.2,12.2,0,0,1,7.65,2.44,15.26,15.26,0,0,1,4.9,6.84,28.33,28.33,0,0,1,1.7,10.23v.71a24.56,24.56,0,0,1-1.7,9.5,14.24,14.24,0,0,1-4.9,6.33,13,13,0,0,1-7.69,2.25,12.5,12.5,0,0,1-5.39-1.09,11.17,11.17,0,0,1-4-3.21v11.12l5.05,1V135Zm20.73-20.6a6.5,6.5,0,0,0,5.91-3,14.83,14.83,0,0,0,1.87-8v-.71a22.33,22.33,0,0,0-.83-6.4A9.16,9.16,0,0,0,265,92a6.39,6.39,0,0,0-4.43-1.56,7.09,7.09,0,0,0-6.52,3.82v16.55a6.92,6.92,0,0,0,2.64,2.62A7.94,7.94,0,0,0,260.65,114.37Z" fill="#497ded" stroke="white" class="svg-claim-22"></path>
    <path d="M309.26,135.69a16.53,16.53,0,0,1-2.58-.22c-.94-.15-1.8-.33-2.57-.53l1.05-6.89c.41.07.9.12,1.45.17s1,.07,1.35.07a5.65,5.65,0,0,0,3.69-1.23,7.78,7.78,0,0,0,2.31-3.48l1-2.62-12.48-30.8L298,89.51V83.88h18.75v5.63l-4.53.68,6.1,16.75.93,2.62h.2l7.23-19.4-4.5-.65V83.88h17.6v5.63l-4.06.58-14.19,36.22A21.21,21.21,0,0,1,319,131a11.41,11.41,0,0,1-3.93,3.4A12.26,12.26,0,0,1,309.26,135.69Z" fill="#497ded" stroke="white" class="svg-claim-23"></path>
    <path d="M359.39,121.5a17.19,17.19,0,0,1-9.27-2.39,15.8,15.8,0,0,1-5.94-6.63,22,22,0,0,1-2.08-9.77V102a21.85,21.85,0,0,1,2.08-9.72,16.09,16.09,0,0,1,5.94-6.65,18.86,18.86,0,0,1,18.45,0,15.89,15.89,0,0,1,5.92,6.64,22.05,22.05,0,0,1,2.06,9.75v.72a22.17,22.17,0,0,1-2.06,9.77,15.69,15.69,0,0,1-5.92,6.63A17,17,0,0,1,359.39,121.5Zm0-7.13a6.78,6.78,0,0,0,4.46-1.46,8.7,8.7,0,0,0,2.61-4.11,20.18,20.18,0,0,0,.85-6.09V102a19.77,19.77,0,0,0-.85-6,8.73,8.73,0,0,0-2.63-4.12,7.57,7.57,0,0,0-9,0A8.78,8.78,0,0,0,352.23,96a19.47,19.47,0,0,0-.85,6v.72a19.71,19.71,0,0,0,.85,6.1,8.67,8.67,0,0,0,2.63,4.1A6.9,6.9,0,0,0,359.39,114.37Z" fill="#497ded" stroke="white" class="svg-claim-24"></path>
    <path d="M396.91,121.5q-5.9,0-9.22-3.73t-3.33-11.62V90.53l-4.09-1V83.88h13.37v22.34c0,2.91.48,5,1.45,6.19a5.32,5.32,0,0,0,4.45,1.83,9,9,0,0,0,4.33-1,7.75,7.75,0,0,0,3-2.83V90.53l-4.5-1V83.88h13.78v30.29l4.4,1v5.6H407.93l-.61-4.85a12,12,0,0,1-4.39,4.13A12.48,12.48,0,0,1,396.91,121.5Z" fill="#497ded" stroke="white" class="svg-claim-25"></path>
    <path d="M425,120.79v-5.6l4.94-1V90.53l-5.32-1V83.88h13.92l.41,4.61.07.78a11.7,11.7,0,0,1,3.48-4.52,8,8,0,0,1,4.91-1.55,14.39,14.39,0,0,1,2,.15,11.11,11.11,0,0,1,1.83.39l-1.06,8.57L445.24,92a6,6,0,0,0-3.63.82,7.87,7.87,0,0,0-2.44,2.63v18.69l4.95,1v5.6Z" fill="#497ded" stroke="white" class="svg-claim-26"></path>
    <path d="M471,120.79v-5.6l5-1V74.23l-5.36-1V67.58h14.64v46.59l5,1v5.6Z" fill="#497ded" stroke="white" class="svg-claim-27"></path>
    <path d="M493.54,120.79v-5.6l4.95-1V90.53l-5.36-1V83.88h14.63v30.29l5,1v5.6Zm4.6-45V67.58h9.62V75.8Z" fill="#497ded" stroke="white" class="svg-claim-28"></path>
    <path d="M516.7,120.79v-5.6l5-1V90.46h-5.56V83.88h5.56V79.69q0-6.18,3.46-9.5t9.7-3.33a22.59,22.59,0,0,1,3.16.24,25.88,25.88,0,0,1,3,.58l-.85,6.92a13.06,13.06,0,0,0-1.81-.32,18.66,18.66,0,0,0-2.11-.12,5.09,5.09,0,0,0-4,1.42A5.89,5.89,0,0,0,531,79.69v4.19h8.28v6.58H531v23.71l6.48,1v5.6Z" fill="#497ded" stroke="white" class="svg-claim-29"></path>
    <path d="M560.42,121.5a17.53,17.53,0,0,1-9.15-2.33,16,16,0,0,1-6.06-6.45,20,20,0,0,1-2.15-9.4v-1.4a21.69,21.69,0,0,1,2.07-9.65,16.23,16.23,0,0,1,5.78-6.65,15.42,15.42,0,0,1,8.59-2.42,16.46,16.46,0,0,1,8.43,2,12.68,12.68,0,0,1,5.15,5.72,20.92,20.92,0,0,1,1.74,8.93V105H552.68l-.07.21a11.42,11.42,0,0,0,1.2,4.72,8.11,8.11,0,0,0,3,3.26,8.56,8.56,0,0,0,4.64,1.19,17,17,0,0,0,9.89-3l2.66,5.76a18.7,18.7,0,0,1-5.62,3.09A23.07,23.07,0,0,1,560.42,121.5Zm-7.64-22.82h13.31V97.8a10.87,10.87,0,0,0-.69-4,5.6,5.6,0,0,0-2.09-2.67,6.44,6.44,0,0,0-3.67-1,5.64,5.64,0,0,0-3.51,1.11,7.49,7.49,0,0,0-2.32,3,14.23,14.23,0,0,0-1.13,4.28Z" fill="#497ded" class="svg-claim-30"></path>
    <path d="M581.57,103.83V71.12h9.28v32.71Zm0,17v-8.36h9.28v8.36Z" fill="#497ded" stroke="white" class="svg-claim-31"></path>
    <path d="M30.43,61a24.5,24.5,0,0,1-12.57-3.07,20.49,20.49,0,0,1-8.1-8.64A28.52,28.52,0,0,1,6.93,36.17V34.7A28.6,28.6,0,0,1,9.69,21.88a21.14,21.14,0,0,1,7.91-8.8A22.77,22.77,0,0,1,29.88,9.87a29.18,29.18,0,0,1,9.35,1.45,23,23,0,0,1,7.64,4.25V27.3h-7l-1-7.61a13.18,13.18,0,0,0-2.47-1.4,14.51,14.51,0,0,0-2.93-.88,17.64,17.64,0,0,0-3.43-.31,12.69,12.69,0,0,0-7.47,2.17,13.65,13.65,0,0,0-4.76,6.08,23.86,23.86,0,0,0-1.65,9.28v1.54A23.2,23.2,0,0,0,18,45.55a13.67,13.67,0,0,0,5,6.08,13.55,13.55,0,0,0,7.69,2.14,19.86,19.86,0,0,0,4.4-.5A18.87,18.87,0,0,0,38.89,52l1-7H46.8V56.6a26.67,26.67,0,0,1-7.09,3.12A32.81,32.81,0,0,1,30.43,61Z" fill="url(#linear-gradient)" stroke="white" class="svg-claim-32"></path>
    <path d="M69.41,61a17.27,17.27,0,0,1-9.27-2.38,15.88,15.88,0,0,1-5.94-6.64,22,22,0,0,1-2.08-9.77v-.72a21.85,21.85,0,0,1,2.08-9.72,16.09,16.09,0,0,1,5.94-6.65,17,17,0,0,1,9.21-2.42,17.05,17.05,0,0,1,9.24,2.41,15.81,15.81,0,0,1,5.92,6.63,22.05,22.05,0,0,1,2.06,9.75v.72a22.17,22.17,0,0,1-2.06,9.77,15.77,15.77,0,0,1-5.92,6.64A17.1,17.1,0,0,1,69.41,61Zm0-7.13a6.73,6.73,0,0,0,4.46-1.46,8.61,8.61,0,0,0,2.6-4.11,19.76,19.76,0,0,0,.86-6.09v-.72a19.46,19.46,0,0,0-.86-6,8.66,8.66,0,0,0-2.62-4.11,7.53,7.53,0,0,0-9,0,8.8,8.8,0,0,0-2.61,4.11,19.47,19.47,0,0,0-.85,6v.72a19.82,19.82,0,0,0,.85,6.11,8.63,8.63,0,0,0,2.63,4.09A6.85,6.85,0,0,0,69.41,53.83Z" fill="url(#linear-gradient)" stroke="white" class="svg-claim-33"></path>
    <path d="M90,60.25v-5.6l5-1V13.69l-5.36-1V7H104.2V53.63l5,1v5.6Z" fill="url(#linear-gradient)" stroke="white" class="svg-claim-34"></path>
    <path d="M129.48,61a17.29,17.29,0,0,1-9.28-2.38,15.8,15.8,0,0,1-5.93-6.64,21.9,21.9,0,0,1-2.08-9.77v-.72a21.71,21.71,0,0,1,2.08-9.72,16,16,0,0,1,5.93-6.65,18.83,18.83,0,0,1,18.45,0,15.81,15.81,0,0,1,5.92,6.63,21.91,21.91,0,0,1,2.06,9.75v.72a22,22,0,0,1-2.06,9.77,15.77,15.77,0,0,1-5.92,6.64A17.09,17.09,0,0,1,129.48,61Zm0-7.13a6.7,6.7,0,0,0,4.45-1.46,8.7,8.7,0,0,0,2.61-4.11,19.78,19.78,0,0,0,.85-6.09v-.72a19.47,19.47,0,0,0-.85-6,8.75,8.75,0,0,0-2.63-4.11,7.53,7.53,0,0,0-9,0,8.8,8.8,0,0,0-2.61,4.11,19.77,19.77,0,0,0-.85,6v.72a20.13,20.13,0,0,0,.85,6.11,8.63,8.63,0,0,0,2.63,4.09A6.88,6.88,0,0,0,129.48,53.83Z" fill="url(#linear-gradient)" stroke="white" class="svg-claim-35"></path>
    <path d="M151.78,60.25v-5.6l4.95-1V30l-5.32-1V23.34h13.91l.41,4.61.07.78a11.7,11.7,0,0,1,3.48-4.52,8,8,0,0,1,4.91-1.55,14.53,14.53,0,0,1,2,.15,12.27,12.27,0,0,1,1.82.4l-1,8.56-4.88-.28a6.09,6.09,0,0,0-3.63.82A7.87,7.87,0,0,0,166,34.94V53.63l4.94,1v5.6Z" fill="url(#linear-gradient)" stroke="white" class="svg-claim-36"></path>
    <path d="M208.13,75.15a16.63,16.63,0,0,1-2.58-.22A24.62,24.62,0,0,1,203,74.4L204,67.51c.41.07.89.13,1.45.17s1,.07,1.34.07a5.63,5.63,0,0,0,3.69-1.23A7.87,7.87,0,0,0,212.84,63l1-2.62-12.48-30.8L196.91,29V23.34h18.76V29l-4.54.68,6.11,16.75.92,2.63h.2l7.23-19.41-4.5-.65V23.34h17.6V29l-4.06.58L220.44,65.77a21.29,21.29,0,0,1-2.57,4.73,11.49,11.49,0,0,1-3.93,3.39A12.23,12.23,0,0,1,208.13,75.15Z" fill="url(#linear-gradient)" stroke="white" class="svg-claim-37"></path>
    <path d="M258.27,61A17.29,17.29,0,0,1,249,58.58a15.8,15.8,0,0,1-5.93-6.64A21.9,21.9,0,0,1,241,42.17v-.72a21.71,21.71,0,0,1,2.09-9.72A16,16,0,0,1,249,25.08a18.83,18.83,0,0,1,18.45,0,15.81,15.81,0,0,1,5.92,6.63,22.05,22.05,0,0,1,2.06,9.75v.72a22.17,22.17,0,0,1-2.06,9.77,15.77,15.77,0,0,1-5.92,6.64A17.09,17.09,0,0,1,258.27,61Zm0-7.13a6.7,6.7,0,0,0,4.45-1.46,8.7,8.7,0,0,0,2.61-4.11,19.78,19.78,0,0,0,.85-6.09v-.72a19.47,19.47,0,0,0-.85-6,8.75,8.75,0,0,0-2.63-4.11,7.53,7.53,0,0,0-9,0,8.8,8.8,0,0,0-2.61,4.11,19.77,19.77,0,0,0-.85,6v.72a20.13,20.13,0,0,0,.85,6.11,8.63,8.63,0,0,0,2.63,4.09A6.88,6.88,0,0,0,258.27,53.83Z" fill="url(#linear-gradient)" stroke="white" class="svg-claim-38"></path>
    <path d="M295.79,61q-5.91,0-9.23-3.73t-3.33-11.62V30l-4.09-1V23.34h13.37V45.68c0,2.91.48,5,1.45,6.19a5.34,5.34,0,0,0,4.45,1.83,9,9,0,0,0,4.33-1,7.68,7.68,0,0,0,3-2.83V30l-4.5-1V23.34H315V53.63l4.4,1v5.6H306.8l-.61-4.85a11.92,11.92,0,0,1-4.38,4.13A12.4,12.4,0,0,1,295.79,61Z" fill="url(#linear-gradient)" stroke="white" class="svg-claim-39"></path>
    <path d="M323.82,60.25v-5.6l4.95-1V30l-5.32-1V23.34h13.91l.41,4.61.07.78a11.7,11.7,0,0,1,3.48-4.52,8,8,0,0,1,4.91-1.55,14.64,14.64,0,0,1,2,.15,12.27,12.27,0,0,1,1.82.4L349,31.77l-4.87-.28a6.14,6.14,0,0,0-3.64.82A8.08,8.08,0,0,0,338,34.94V53.63l4.95,1v5.6Z" fill="url(#linear-gradient)" stroke="white" class="svg-claim-40"></path>
    <path d="M384.6,60.93q-4.91,0-7.62-2.75t-2.71-8.71V29.93h-5.22V23.34h5.22v-9h9.24v9h7.06v6.59h-7.06V49.47a4.59,4.59,0,0,0,.95,3.24,3.4,3.4,0,0,0,2.56,1,15.67,15.67,0,0,0,2-.14q1-.14,1.77-.27l.89,6.58a28.26,28.26,0,0,1-3.4.75A21.71,21.71,0,0,1,384.6,60.93Z" fill="url(#linear-gradient)" stroke="white" class="svg-claim-41"></path>
    <path d="M407.73,61q-5.57,0-8.75-2.91a10.29,10.29,0,0,1-3.19-8A10.21,10.21,0,0,1,400,41.57c2.84-2.17,6.92-3.25,12.27-3.25h5.25v-2.9a6.18,6.18,0,0,0-1.66-4.51,6.49,6.49,0,0,0-4.86-1.7,10.37,10.37,0,0,0-3.12.43,8.24,8.24,0,0,0-2.47,1.21l-.78,4.94H397.9l-.07-9.34A27.55,27.55,0,0,1,404,23.7a25.39,25.39,0,0,1,7.49-1q7.13,0,11.24,3.33t4.11,9.53V51.24c0,.5,0,1,0,1.47a10.71,10.71,0,0,0,.12,1.4l3.79.54v5.6H419c-.25-.71-.48-1.43-.7-2.17a14.48,14.48,0,0,1-.46-2.23,14.7,14.7,0,0,1-4.31,3.7A11.62,11.62,0,0,1,407.73,61ZM410,54a9.3,9.3,0,0,0,4.42-1.09,8.13,8.13,0,0,0,3.12-2.76v-6h-5.29a7.79,7.79,0,0,0-5.4,1.66,5.09,5.09,0,0,0-1.83,3.9,4,4,0,0,0,1.3,3.18A5.43,5.43,0,0,0,410,54Z" fill="url(#linear-gradient)" stroke="white" class="svg-claim-42"></path>
    <path d="M450.29,61a35.25,35.25,0,0,1-7.55-.76,35.64,35.64,0,0,1-6.84-2.27l-.1-10.1h6.54l1.3,5.32a14.68,14.68,0,0,0,2.8,1,14.46,14.46,0,0,0,3.31.34q3.51,0,5-1.18a3.66,3.66,0,0,0-.09-5.9q-1.53-1.24-5.93-2.16Q442.11,43.8,439,41a9.28,9.28,0,0,1-3.1-7.21,10.18,10.18,0,0,1,1.58-5.56,11.2,11.2,0,0,1,4.76-4,18.42,18.42,0,0,1,7.95-1.52,30.61,30.61,0,0,1,7.55.86,22.46,22.46,0,0,1,5.68,2.18l.17,9.75h-6.51L456,30.64a7.45,7.45,0,0,0-2.32-1.11,10.64,10.64,0,0,0-3-.39,6.9,6.9,0,0,0-4.25,1.16,3.54,3.54,0,0,0-1.51,2.93,3.58,3.58,0,0,0,.51,1.88,4.63,4.63,0,0,0,2,1.59,20.35,20.35,0,0,0,4.35,1.38q7,1.61,10.15,4.26a9,9,0,0,1,3.12,7.23,10.33,10.33,0,0,1-3.67,8.22Q457.73,61,450.29,61Z" fill="url(#linear-gradient)" stroke="white" class="svg-claim-43"></path>
    <path d="M469.29,60.25v-5.6l5-1V13.69l-5.36-1V7h14.6V53.63l4.57,1v5.6Zm13.3-10.2-4.3-5.53,16-14.94.11-.13-3.82-.51v-5.6h18.48V29l-4.74,1.16Zm10.23,10.2V54.86l3-.62-.07-.13L487.74,43.4l5.77-6.28,12.68,16.51,4.74,1v5.6Z" fill="url(#linear-gradient)" stroke="white" class="svg-claim-44"></path>
    <path d="M530.14,61a33.68,33.68,0,0,1-14.4-3l-.1-10.1h6.55l1.3,5.32a14.35,14.35,0,0,0,2.79,1,14.52,14.52,0,0,0,3.31.34c2.34,0,4-.39,5-1.18a3.64,3.64,0,0,0,1.45-3,3.72,3.72,0,0,0-1.53-3q-1.53-1.24-5.94-2.16Q522,43.8,518.85,41a9.29,9.29,0,0,1-3.11-7.21,10.11,10.11,0,0,1,1.59-5.56,11.14,11.14,0,0,1,4.76-4A18.37,18.37,0,0,1,530,22.69a30.7,30.7,0,0,1,7.56.86,22.6,22.6,0,0,1,5.68,2.18l.17,9.75h-6.52l-1-4.84a7.56,7.56,0,0,0-2.32-1.11,10.69,10.69,0,0,0-3-.39,6.88,6.88,0,0,0-4.25,1.16,3.55,3.55,0,0,0-1.52,2.93,3.58,3.58,0,0,0,.51,1.88,4.66,4.66,0,0,0,2,1.59,20.35,20.35,0,0,0,4.35,1.38q7,1.61,10.14,4.26a9,9,0,0,1,3.13,7.23,10.37,10.37,0,0,1-3.67,8.22Q537.56,61,530.14,61Z" fill="url(#linear-gradient)" stroke="white" class="svg-claim-45"></path>
    <path d="M553.84,72.29l-4.67-2.66a23.32,23.32,0,0,0,2.11-4.93,19.83,19.83,0,0,0,.75-5.61v-7h8.46l0,6.58a16,16,0,0,1-1.89,7.48A21,21,0,0,1,553.84,72.29Z" fill="url(#linear-gradient)" stroke="white" class="svg-claim-46"></path>
    <path d="M22.82,121.5a34.08,34.08,0,0,1-14.39-3l-.1-10.1h6.55l1.29,5.32a14.68,14.68,0,0,0,2.8,1,15.11,15.11,0,0,0,3.31.34c2.34,0,4-.4,5-1.18a3.64,3.64,0,0,0,1.45-3,3.7,3.7,0,0,0-1.53-3q-1.55-1.25-5.94-2.17-6.59-1.39-9.69-4.21a9.28,9.28,0,0,1-3.1-7.21A10.11,10.11,0,0,1,10,88.76a11.11,11.11,0,0,1,4.75-4,18.45,18.45,0,0,1,8-1.52,31.21,31.21,0,0,1,7.56.85A22.37,22.37,0,0,1,36,86.27L36.13,96H29.61l-1.06-4.84a7.45,7.45,0,0,0-2.32-1.11,10.59,10.59,0,0,0-3-.39A6.85,6.85,0,0,0,19,90.84a3.52,3.52,0,0,0-1.52,2.93A3.61,3.61,0,0,0,18,95.65a4.58,4.58,0,0,0,2,1.58,20.53,20.53,0,0,0,4.34,1.39q7,1.59,10.15,4.26a9,9,0,0,1,3.12,7.23,10.38,10.38,0,0,1-3.66,8.22Q30.26,121.5,22.82,121.5Z" fill="url(#linear-gradient)" stroke="white" class="svg-claim-47"></path>
    <path d="M41.92,135v-5.62l4.91-1V90.53l-5.38-1V83.88H55.26l.51,4.33a11,11,0,0,1,9.72-5,12.22,12.22,0,0,1,7.66,2.44A15.25,15.25,0,0,1,78,92.48a28.11,28.11,0,0,1,1.71,10.23v.71a24.38,24.38,0,0,1-1.71,9.5,14.22,14.22,0,0,1-4.89,6.33,13,13,0,0,1-7.69,2.25,12.47,12.47,0,0,1-5.39-1.09,11,11,0,0,1-4-3.21v11.12l5.05,1V135Zm20.74-20.6a6.49,6.49,0,0,0,5.9-3,14.83,14.83,0,0,0,1.88-8v-.71a22,22,0,0,0-.84-6.4A9.15,9.15,0,0,0,67,92a6.4,6.4,0,0,0-4.44-1.56,7.29,7.29,0,0,0-3.87,1,7.38,7.38,0,0,0-2.64,2.81v16.55a6.92,6.92,0,0,0,2.64,2.62A7.92,7.92,0,0,0,62.66,114.37Z" fill="url(#linear-gradient)" stroke="white" class="svg-claim-48"></path>
    <path d="M83.53,120.79v-5.6l5-1V90.53l-5.36-1V83.88H97.76v30.29l4.94,1v5.6Zm4.61-45V67.58h9.62V75.8Z" fill="url(#linear-gradient)" stroke="white" class="svg-claim-49"></path>
    <path d="M123.51,121.5a17,17,0,0,1-9.09-2.37,15.81,15.81,0,0,1-5.92-6.56,21.45,21.45,0,0,1-2.08-9.66v-1.12a21.14,21.14,0,0,1,2.1-9.59,16.25,16.25,0,0,1,5.92-6.6,16.53,16.53,0,0,1,9-2.4,21.27,21.27,0,0,1,8.44,1.53,18.86,18.86,0,0,1,5.78,3.69V98.65h-7l-1.3-6.58a6.7,6.7,0,0,0-2.25-1.44,7.82,7.82,0,0,0-2.9-.54,7.39,7.39,0,0,0-4.65,1.45,8.78,8.78,0,0,0-2.87,4.06,17.68,17.68,0,0,0-1,6.19v1.12a17.34,17.34,0,0,0,1,6.4,8.22,8.22,0,0,0,2.82,3.8,7.35,7.35,0,0,0,8.54-.22,7.33,7.33,0,0,0,2.32-4.18h7.95l.1.21a16.68,16.68,0,0,1-2.2,6.6,11.65,11.65,0,0,1-4.85,4.41A17.46,17.46,0,0,1,123.51,121.5Z" fill="url(#linear-gradient)" stroke="white" class="svg-claim-50"></path>
    <path d="M160.75,121.5a17.53,17.53,0,0,1-9.15-2.33,16,16,0,0,1-6.06-6.45,20,20,0,0,1-2.15-9.4v-1.4a21.69,21.69,0,0,1,2.07-9.65,16.23,16.23,0,0,1,5.78-6.65,15.42,15.42,0,0,1,8.59-2.42,16.46,16.46,0,0,1,8.43,2,12.68,12.68,0,0,1,5.15,5.72,20.92,20.92,0,0,1,1.74,8.93V105H153l-.07.21a11.42,11.42,0,0,0,1.2,4.72,8.11,8.11,0,0,0,3,3.26,8.56,8.56,0,0,0,4.64,1.19,17,17,0,0,0,9.89-3l2.66,5.76a18.7,18.7,0,0,1-5.62,3.09A23.11,23.11,0,0,1,160.75,121.5Zm-7.64-22.82h13.31V97.8a10.87,10.87,0,0,0-.69-4,5.6,5.6,0,0,0-2.09-2.67,6.44,6.44,0,0,0-3.67-1,5.62,5.62,0,0,0-3.51,1.11,7.58,7.58,0,0,0-2.32,3A14.23,14.23,0,0,0,153,98.51Z" fill="url(#linear-gradient)" stroke="white" class="svg-claim-51"></path>
    <path d="M212.87,121.5q-5.9,0-9.23-3.73t-3.32-11.62V90.53l-4.09-1V83.88H209.6v22.34c0,2.91.48,5,1.45,6.19a5.32,5.32,0,0,0,4.45,1.83,9,9,0,0,0,4.33-1,7.82,7.82,0,0,0,3-2.83V90.53l-4.51-1V83.88h13.78v30.29l4.4,1v5.6H223.89l-.62-4.85a12,12,0,0,1-4.38,4.13A12.48,12.48,0,0,1,212.87,121.5Z" fill="url(#linear-gradient)" stroke="white" class="svg-claim-52"></path>
    <path d="M239.92,135v-5.62l4.91-1V90.53l-5.39-1V83.88h13.81l.51,4.33a11.05,11.05,0,0,1,9.73-5,12.2,12.2,0,0,1,7.65,2.44,15.26,15.26,0,0,1,4.9,6.84,28.33,28.33,0,0,1,1.7,10.23v.71a24.56,24.56,0,0,1-1.7,9.5,14.24,14.24,0,0,1-4.9,6.33,13,13,0,0,1-7.69,2.25,12.5,12.5,0,0,1-5.39-1.09,11.17,11.17,0,0,1-4-3.21v11.12l5.05,1V135Zm20.73-20.6a6.5,6.5,0,0,0,5.91-3,14.83,14.83,0,0,0,1.87-8v-.71a22.33,22.33,0,0,0-.83-6.4A9.16,9.16,0,0,0,265,92a6.39,6.39,0,0,0-4.43-1.56,7.09,7.09,0,0,0-6.52,3.82v16.55a6.92,6.92,0,0,0,2.64,2.62A7.94,7.94,0,0,0,260.65,114.37Z" fill="url(#linear-gradient)" stroke="white" class="svg-claim-53"></path>
    <path d="M309.26,135.69a16.53,16.53,0,0,1-2.58-.22c-.94-.15-1.8-.33-2.57-.53l1.05-6.89c.41.07.9.12,1.45.17s1,.07,1.35.07a5.65,5.65,0,0,0,3.69-1.23,7.78,7.78,0,0,0,2.31-3.48l1-2.62-12.48-30.8L298,89.51V83.88h18.75v5.63l-4.53.68,6.1,16.75.93,2.62h.2l7.23-19.4-4.5-.65V83.88h17.6v5.63l-4.06.58-14.19,36.22A21.21,21.21,0,0,1,319,131a11.41,11.41,0,0,1-3.93,3.4A12.26,12.26,0,0,1,309.26,135.69Z" fill="url(#linear-gradient)" stroke="white" class="svg-claim-54"></path>
    <path d="M359.39,121.5a17.19,17.19,0,0,1-9.27-2.39,15.8,15.8,0,0,1-5.94-6.63,22,22,0,0,1-2.08-9.77V102a21.85,21.85,0,0,1,2.08-9.72,16.09,16.09,0,0,1,5.94-6.65,18.86,18.86,0,0,1,18.45,0,15.89,15.89,0,0,1,5.92,6.64,22.05,22.05,0,0,1,2.06,9.75v.72a22.17,22.17,0,0,1-2.06,9.77,15.69,15.69,0,0,1-5.92,6.63A17,17,0,0,1,359.39,121.5Zm0-7.13a6.78,6.78,0,0,0,4.46-1.46,8.7,8.7,0,0,0,2.61-4.11,20.18,20.18,0,0,0,.85-6.09V102a19.77,19.77,0,0,0-.85-6,8.73,8.73,0,0,0-2.63-4.12,7.57,7.57,0,0,0-9,0A8.78,8.78,0,0,0,352.23,96a19.47,19.47,0,0,0-.85,6v.72a19.71,19.71,0,0,0,.85,6.1,8.67,8.67,0,0,0,2.63,4.1A6.9,6.9,0,0,0,359.39,114.37Z" fill="url(#linear-gradient)" stroke="white" class="svg-claim-55"></path>
    <path d="M396.91,121.5q-5.9,0-9.22-3.73t-3.33-11.62V90.53l-4.09-1V83.88h13.37v22.34c0,2.91.48,5,1.45,6.19a5.32,5.32,0,0,0,4.45,1.83,9,9,0,0,0,4.33-1,7.75,7.75,0,0,0,3-2.83V90.53l-4.5-1V83.88h13.78v30.29l4.4,1v5.6H407.93l-.61-4.85a12,12,0,0,1-4.39,4.13A12.48,12.48,0,0,1,396.91,121.5Z" fill="url(#linear-gradient)" stroke="white" class="svg-claim-56"></path>
    <path d="M425,120.79v-5.6l4.94-1V90.53l-5.32-1V83.88h13.92l.41,4.61.07.78a11.7,11.7,0,0,1,3.48-4.52,8,8,0,0,1,4.91-1.55,14.39,14.39,0,0,1,2,.15,11.11,11.11,0,0,1,1.83.39l-1.06,8.57L445.24,92a6,6,0,0,0-3.63.82,7.87,7.87,0,0,0-2.44,2.63v18.69l4.95,1v5.6Z" fill="url(#linear-gradient)" stroke="white" class="svg-claim-57"></path>
    <path d="M471,120.79v-5.6l5-1V74.23l-5.36-1V67.58h14.64v46.59l5,1v5.6Z" fill="url(#linear-gradient)" stroke="white" class="svg-claim-58"></path>
    <path d="M493.54,120.79v-5.6l4.95-1V90.53l-5.36-1V83.88h14.63v30.29l5,1v5.6Zm4.6-45V67.58h9.62V75.8Z" fill="url(#linear-gradient)" stroke="white" class="svg-claim-59"></path>
    <path d="M516.7,120.79v-5.6l5-1V90.46h-5.56V83.88h5.56V79.69q0-6.18,3.46-9.5t9.7-3.33a22.59,22.59,0,0,1,3.16.24,25.88,25.88,0,0,1,3,.58l-.85,6.92a13.06,13.06,0,0,0-1.81-.32,18.66,18.66,0,0,0-2.11-.12,5.09,5.09,0,0,0-4,1.42A5.89,5.89,0,0,0,531,79.69v4.19h8.28v6.58H531v23.71l6.48,1v5.6Z" fill="url(#linear-gradient)" stroke="white" class="svg-claim-60"></path>
    <path d="M560.42,121.5a17.53,17.53,0,0,1-9.15-2.33,16,16,0,0,1-6.06-6.45,20,20,0,0,1-2.15-9.4v-1.4a21.69,21.69,0,0,1,2.07-9.65,16.23,16.23,0,0,1,5.78-6.65,15.42,15.42,0,0,1,8.59-2.42,16.46,16.46,0,0,1,8.43,2,12.68,12.68,0,0,1,5.15,5.72,20.92,20.92,0,0,1,1.74,8.93V105H552.68l-.07.21a11.42,11.42,0,0,0,1.2,4.72,8.11,8.11,0,0,0,3,3.26,8.56,8.56,0,0,0,4.64,1.19,17,17,0,0,0,9.89-3l2.66,5.76a18.7,18.7,0,0,1-5.62,3.09A23.07,23.07,0,0,1,560.42,121.5Zm-7.64-22.82h13.31V97.8a10.87,10.87,0,0,0-.69-4,5.6,5.6,0,0,0-2.09-2.67,6.44,6.44,0,0,0-3.67-1,5.64,5.64,0,0,0-3.51,1.11,7.49,7.49,0,0,0-2.32,3,14.23,14.23,0,0,0-1.13,4.28Z" fill="url(#linear-gradient)" class="svg-claim-61"></path>
    <path d="M581.57,103.83V71.12h9.28v32.71Zm0,17v-8.36h9.28v8.36Z" fill="url(#linear-gradient)" stroke="white" class="svg-claim-62"></path>
</svg>