<?xml version="1.0" encoding="utf-8"?>
<!-- Generator: Adobe Illustrator 25.4.1, SVG Export Plug-In . SVG Version: 6.00 Build 0)  -->
<svg version="1.1" id="Layer_3" xmlns="http://www.w3.org/2000/svg" xmlns:xlink="http://www.w3.org/1999/xlink" x="0px" y="0px"
	 viewBox="0 0 598 146" style="enable-background:new 0 0 598 146;" xml:space="preserve">
<style type="text/css">
	.st0{fill:#497DED;stroke:#FFFFFF;}
	.st1{fill:#497DED;}
	.st2{fill:url(#SVGID_1_);}
	.st3{fill:#FFFFFF;}
	.st4{fill:url(#SVGID_00000171686683227170437430000004322585132421230520_);}
	.st5{fill:url(#SVGID_00000023995416295965854370000007348312135093426051_);}
	.st6{fill:url(#SVGID_00000181809515094871727480000002703147810685063077_);}
	.st7{fill:url(#SVGID_00000104687452070044440800000001442581825183662779_);}
	.st8{fill:url(#SVGID_00000173139386084138333950000005639221171993276087_);}
	.st9{fill:url(#SVGID_00000069381619191511473060000000300511552596026035_);}
	.st10{fill:url(#SVGID_00000049179529903412897160000009772634093835377324_);}
	.st11{fill:url(#SVGID_00000090266824548349417730000002741945839725722033_);}
	.st12{fill:url(#SVGID_00000068640416985948435800000003314882446296385698_);}
	.st13{fill:url(#SVGID_00000037680911175996387670000001040170787839670661_);}
	.st14{fill:url(#SVGID_00000177459750633341728680000004740113405074552249_);}
	.st15{fill:url(#SVGID_00000171687633974539307530000000507522985408893628_);}
	.st16{fill:url(#SVGID_00000144334213552830474670000016717463540370598797_);}
	.st17{fill:url(#SVGID_00000109720299346343507280000006634903711066540446_);}
	.st18{fill:url(#SVGID_00000018955887634197321170000012837475848177788822_);}
	.st19{fill:url(#SVGID_00000113342180042718211970000015311717778103938945_);}
	.st20{fill:url(#SVGID_00000090982971930618607980000001896855784918483848_);}
	.st21{fill:url(#SVGID_00000142175794565297757950000011289567471417461691_);}
	.st22{fill:url(#SVGID_00000028302777550004818080000001589868864321071792_);}
	.st23{fill:url(#SVGID_00000085251885361553983530000002318394462398902673_);}
	.st24{fill:url(#SVGID_00000116915009872276869310000003625532525163980982_);}
	.st25{fill:url(#SVGID_00000067207536527809994320000017459261583600231356_);}
	.st26{fill:url(#SVGID_00000150101088351848183020000005465618715267777671_);}
	.st27{fill:url(#SVGID_00000076589066902433977610000006144750695715615121_);}
	.st28{fill:url(#SVGID_00000100373999200062042340000005268206796187923082_);}
	.st29{fill:url(#SVGID_00000174596032396923209210000007086897201888283309_);}
	.st30{fill:url(#SVGID_00000114056355596149875770000007523309772743115962_);}
	.st31{fill:url(#SVGID_00000135655336657479017590000015059696275618586011_);}
	.st32{fill:url(#SVGID_00000080180465396407406040000004197276573160732849_);stroke:#FFFFFF;stroke-width:1.5;}
	.st33{fill:url(#SVGID_00000181793491596052045240000012584065094332740772_);}
</style>
<path class="st0" d="M30.4,61c-4.4,0.1-8.7-0.9-12.6-3.1c-3.5-2-6.3-5-8.1-8.6c-2-4.1-2.9-8.6-2.8-13.1v-1.5
	c-0.1-4.4,0.9-8.8,2.8-12.8c1.7-3.6,4.5-6.7,7.9-8.8c3.7-2.2,8-3.3,12.3-3.2c3.2,0,6.3,0.5,9.4,1.4c2.8,0.9,5.4,2.4,7.6,4.2v11.7h-7
	l-1-7.6c-0.8-0.6-1.6-1-2.5-1.4c-0.9-0.4-1.9-0.7-2.9-0.9c-1.1-0.2-2.3-0.3-3.4-0.3c-2.7-0.1-5.3,0.7-7.5,2.2
	c-2.1,1.5-3.8,3.6-4.8,6.1c-1.2,3-1.7,6.1-1.6,9.3v1.5c0,3.2,0.6,6.4,1.8,9.4c1,2.5,2.8,4.6,5,6.1c2.3,1.5,5,2.2,7.7,2.1
	c1.5,0,3-0.2,4.4-0.5c1.3-0.3,2.6-0.7,3.8-1.3l1-7h6.9v11.6c-2.2,1.4-4.6,2.4-7.1,3.1C36.7,60.6,33.6,61,30.4,61z"/>
<path class="st0" d="M69.4,61c-3.3,0.1-6.5-0.7-9.3-2.4c-2.6-1.6-4.6-3.9-5.9-6.6c-1.4-3.1-2.1-6.4-2.1-9.8v-0.7
	c-0.1-3.4,0.6-6.7,2.1-9.7c1.3-2.7,3.4-5,5.9-6.6c2.8-1.7,6-2.5,9.2-2.4c3.2-0.1,6.5,0.7,9.2,2.4c2.6,1.6,4.6,3.9,5.9,6.6
	c1.4,3.1,2.1,6.4,2.1,9.8v0.7c0.1,3.4-0.6,6.7-2.1,9.8c-1.3,2.7-3.4,5-5.9,6.6C75.8,60.3,72.6,61.1,69.4,61z M69.4,53.9
	c1.6,0.1,3.2-0.5,4.5-1.5c1.2-1.1,2.1-2.5,2.6-4.1c0.6-2,0.9-4,0.9-6.1v-0.7c0-2-0.3-4.1-0.9-6c-0.5-1.6-1.4-3-2.6-4.1
	c-2.7-2-6.3-2-9,0c-1.2,1.1-2.1,2.5-2.6,4.1c-0.6,1.9-0.9,4-0.8,6v0.7c0,2.1,0.2,4.1,0.8,6.1c0.5,1.6,1.4,3,2.6,4.1
	C66.2,53.4,67.8,53.9,69.4,53.9L69.4,53.9z"/>
<path class="st0" d="M90,60.2v-5.6l5-1v-40l-5.4-1V7h14.6v46.6l5,1v5.6L90,60.2z"/>
<path class="st0" d="M129.5,61c-3.3,0.1-6.5-0.7-9.3-2.4c-2.6-1.6-4.6-3.9-5.9-6.6c-1.4-3.1-2.1-6.4-2.1-9.8v-0.7
	c-0.1-3.4,0.6-6.7,2.1-9.7c1.3-2.7,3.4-5,5.9-6.6c5.7-3.2,12.7-3.2,18.4,0c2.6,1.6,4.6,3.9,5.9,6.6c1.4,3,2.1,6.4,2.1,9.8v0.7
	c0.1,3.4-0.6,6.7-2.1,9.8c-1.3,2.7-3.4,5-5.9,6.6C135.9,60.3,132.7,61.1,129.5,61z M129.5,53.9c1.6,0.1,3.2-0.5,4.4-1.5
	c1.2-1.1,2.1-2.5,2.6-4.1c0.6-2,0.9-4,0.9-6.1v-0.7c0-2-0.3-4.1-0.9-6c-0.5-1.6-1.4-3-2.6-4.1c-2.7-2-6.3-2-9,0
	c-1.2,1.1-2.1,2.5-2.6,4.1c-0.6,1.9-0.9,4-0.8,6v0.7c0,2.1,0.3,4.1,0.8,6.1c0.5,1.6,1.4,3,2.6,4.1C126.2,53.4,127.8,53.9,129.5,53.9
	L129.5,53.9z"/>
<path class="st0" d="M151.8,60.2v-5.6l4.9-1V30l-5.3-1v-5.7h13.9l0.4,4.6l0.1,0.8c0.8-1.8,2-3.3,3.5-4.5c1.4-1,3.1-1.6,4.9-1.5
	c0.7,0,1.3,0.1,2,0.1c0.6,0.1,1.2,0.2,1.8,0.4l-1,8.6l-4.9-0.3c-1.3-0.1-2.5,0.2-3.6,0.8c-1,0.7-1.9,1.6-2.5,2.6v18.7l4.9,1v5.6
	L151.8,60.2z"/>
<path class="st0" d="M208.1,75.2c-0.9,0-1.7-0.1-2.6-0.2c-0.9-0.1-1.7-0.3-2.6-0.5l1-6.9c0.4,0.1,0.9,0.1,1.4,0.2s1,0.1,1.3,0.1
	c1.3,0,2.6-0.4,3.7-1.2c1.1-0.9,1.9-2.2,2.4-3.5l1-2.6l-12.5-30.8l-4.4-0.6v-5.7h18.8V29l-4.5,0.7l6.1,16.8l0.9,2.6h0.2l7.2-19.4
	l-4.5-0.6v-5.7h17.6V29l-4.1,0.6l-14.2,36.2c-0.7,1.7-1.5,3.3-2.6,4.7c-1,1.4-2.4,2.6-3.9,3.4C212.1,74.8,210.1,75.2,208.1,75.2z"/>
<path class="st0" d="M258.3,61c-3.3,0.1-6.5-0.8-9.3-2.4c-2.6-1.6-4.6-3.9-5.9-6.6c-1.4-3.1-2.1-6.4-2.1-9.8v-0.7
	c-0.1-3.4,0.7-6.7,2.1-9.7c1.3-2.7,3.4-5,5.9-6.6c5.7-3.2,12.7-3.2,18.5,0c2.6,1.6,4.6,3.9,5.9,6.6c1.4,3.1,2.1,6.4,2.1,9.8v0.7
	c0.1,3.4-0.6,6.7-2.1,9.8c-1.3,2.7-3.4,5-5.9,6.6C264.7,60.2,261.5,61.1,258.3,61z M258.3,53.9c1.6,0.1,3.2-0.5,4.5-1.5
	c1.2-1.1,2.1-2.5,2.6-4.1c0.6-2,0.9-4,0.9-6.1v-0.7c0-2-0.3-4.1-0.9-6c-0.5-1.6-1.4-3-2.6-4.1c-2.7-2-6.3-2-9,0
	c-1.2,1.1-2.1,2.5-2.6,4.1c-0.6,1.9-0.9,4-0.9,6v0.7c0,2.1,0.3,4.1,0.9,6.1c0.5,1.6,1.4,3,2.6,4.1C255,53.4,256.6,53.9,258.3,53.9
	L258.3,53.9z"/>
<path class="st0" d="M295.8,61c-3.9,0-7-1.2-9.2-3.7c-2.2-2.5-3.3-6.4-3.3-11.6V30l-4.1-1v-5.7h13.4v22.3c0,2.9,0.5,5,1.5,6.2
	c1.1,1.3,2.8,2,4.5,1.8c1.5,0,3-0.3,4.3-1c1.2-0.7,2.3-1.6,3-2.8V30l-4.5-1v-5.7H315v30.3l4.4,1v5.6h-12.6l-0.6-4.8
	c-1.1,1.7-2.6,3.2-4.4,4.1C300,60.5,297.9,61,295.8,61z"/>
<path class="st0" d="M323.8,60.2v-5.6l5-1V30l-5.3-1v-5.7h13.9l0.4,4.6l0.1,0.8c0.8-1.8,2-3.3,3.5-4.5c1.4-1,3.1-1.6,4.9-1.5
	c0.7,0,1.3,0.1,2,0.1c0.6,0.1,1.2,0.2,1.8,0.4l-1.1,8.6l-4.9-0.3c-1.3-0.1-2.5,0.2-3.6,0.8c-1,0.7-1.9,1.6-2.5,2.6v18.7l5,1v5.6
	L323.8,60.2z"/>
<path class="st0" d="M384.6,60.9c-3.3,0-5.8-0.9-7.6-2.8c-1.8-1.8-2.7-4.7-2.7-8.7V29.9h-5.2v-6.6h5.2v-9h9.2v9h7.1v6.6h-7.1v19.5
	c-0.1,1.2,0.2,2.3,1,3.2c0.7,0.7,1.6,1,2.6,1c0.7,0,1.3-0.1,2-0.1c0.7-0.1,1.3-0.2,1.8-0.3l0.9,6.6c-1.1,0.3-2.3,0.6-3.4,0.8
	C387.1,60.8,385.8,60.9,384.6,60.9z"/>
<path class="st0" d="M407.7,61c-3.7,0-6.6-1-8.8-2.9c-2.2-2.1-3.3-5-3.2-8c-0.1-3.4,1.5-6.5,4.2-8.5c2.8-2.2,6.9-3.2,12.3-3.2h5.2
	v-2.9c0.1-1.7-0.5-3.3-1.7-4.5c-1.3-1.2-3.1-1.8-4.9-1.7c-1.1,0-2.1,0.1-3.1,0.4c-0.9,0.3-1.7,0.7-2.5,1.2l-0.8,4.9h-6.7l-0.1-9.3
	c1.9-1.2,4-2.1,6.2-2.7c2.4-0.7,5-1,7.5-1c4.8,0,8.5,1.1,11.2,3.3s4.1,5.4,4.1,9.5v15.7c0,0.5,0,1,0,1.5c0,0.5,0,0.9,0.1,1.4
	l3.8,0.5v5.6H419c-0.2-0.7-0.5-1.4-0.7-2.2c-0.2-0.7-0.4-1.5-0.5-2.2c-1.2,1.5-2.6,2.8-4.3,3.7C411.8,60.5,409.8,61,407.7,61z
	 M410,54c1.5,0,3.1-0.4,4.4-1.1c1.3-0.6,2.3-1.6,3.1-2.8v-6h-5.3c-1.9-0.1-3.9,0.5-5.4,1.7c-1.2,1-1.8,2.4-1.8,3.9
	c-0.1,1.2,0.4,2.4,1.3,3.2C407.4,53.7,408.7,54.1,410,54z"/>
<path class="st0" d="M450.3,61c-2.5,0-5.1-0.2-7.5-0.8c-2.4-0.5-4.6-1.3-6.8-2.3l-0.1-10.1h6.5l1.3,5.3c0.9,0.4,1.8,0.8,2.8,1
	c1.1,0.2,2.2,0.4,3.3,0.3c2.3,0,4-0.4,5-1.2c1.6-1.2,1.9-3.5,0.7-5.1c-0.2-0.3-0.5-0.6-0.8-0.8c-1-0.8-3-1.5-5.9-2.2
	c-4.4-1-7.7-2.4-9.7-4.3c-2-1.8-3.2-4.5-3.1-7.2c0-2,0.5-3.9,1.6-5.6c1.2-1.8,2.8-3.1,4.8-4c2.5-1.1,5.2-1.6,8-1.5
	c2.5,0,5.1,0.3,7.5,0.9c2,0.5,3.9,1.2,5.7,2.2l0.2,9.7h-6.5l-1.1-4.9c-0.7-0.5-1.5-0.9-2.3-1.1c-1-0.3-2-0.4-3-0.4
	c-1.5-0.1-3,0.3-4.2,1.2c-1,0.7-1.5,1.8-1.5,2.9c0,0.7,0.2,1.3,0.5,1.9c0.5,0.7,1.2,1.3,2,1.6c1.4,0.6,2.9,1.1,4.4,1.4
	c4.7,1.1,8,2.5,10.1,4.3c2.1,1.8,3.2,4.5,3.1,7.2c0.1,3.2-1.3,6.2-3.7,8.2C458.9,59.9,455.2,61,450.3,61z"/>
<path class="st0" d="M469.3,60.2v-5.6l5-1v-40l-5.4-1V7h14.6v46.6l4.6,1v5.6L469.3,60.2z M482.6,50l-4.3-5.5l16-14.9l0.1-0.1
	l-3.8-0.5v-5.6h18.5V29l-4.7,1.2L482.6,50z M492.8,60.2v-5.4l3-0.6l-0.1-0.1l-8-10.7l5.8-6.3l12.7,16.5l4.7,1v5.6L492.8,60.2z"/>
<path class="st0" d="M530.1,61c-5,0.1-9.9-1-14.4-3l-0.1-10.1h6.5l1.3,5.3c0.9,0.4,1.8,0.8,2.8,1c1.1,0.2,2.2,0.4,3.3,0.3
	c2.3,0,4-0.4,5-1.2c0.9-0.7,1.5-1.8,1.5-3c0-1.2-0.6-2.3-1.5-3c-1-0.8-3-1.5-5.9-2.2c-4.4-0.9-7.6-2.4-9.7-4.2
	c-2.1-1.8-3.2-4.5-3.1-7.2c0-2,0.5-3.9,1.6-5.6c1.2-1.8,2.8-3.1,4.8-4c2.5-1.1,5.2-1.6,7.9-1.5c2.5,0,5.1,0.3,7.6,0.9
	c2,0.5,3.9,1.2,5.7,2.2l0.2,9.8h-6.5l-1-4.8c-0.7-0.5-1.5-0.9-2.3-1.1c-1-0.3-2-0.4-3-0.4c-1.5-0.1-3,0.3-4.2,1.2
	c-1,0.7-1.5,1.8-1.5,2.9c0,0.7,0.2,1.3,0.5,1.9c0.5,0.7,1.2,1.3,2,1.6c1.4,0.6,2.9,1.1,4.3,1.4c4.7,1.1,8,2.5,10.1,4.3
	c2.1,1.8,3.3,4.5,3.1,7.2c0.1,3.2-1.3,6.2-3.7,8.2C538.8,59.9,535.1,61,530.1,61z"/>
<path class="st0" d="M553.8,72.3l-4.7-2.7c0.9-1.6,1.6-3.2,2.1-4.9c0.5-1.8,0.8-3.7,0.8-5.6v-7h8.5v6.6c0,2.6-0.7,5.2-1.9,7.5
	C557.4,68.5,555.8,70.6,553.8,72.3z"/>
<path class="st0" d="M22.8,121.5c-5,0.1-9.9-1-14.4-3l-0.1-10.1h6.6l1.3,5.3c0.9,0.4,1.8,0.8,2.8,1c1.1,0.2,2.2,0.3,3.3,0.3
	c2.3,0,4-0.4,5-1.2c0.9-0.7,1.5-1.8,1.5-3c0-1.2-0.6-2.3-1.5-3c-1-0.8-3-1.6-5.9-2.2c-4.4-0.9-7.6-2.3-9.7-4.2
	c-2-1.8-3.2-4.5-3.1-7.2c0-2,0.5-3.9,1.5-5.5c1.2-1.8,2.8-3.1,4.8-4c2.5-1.1,5.3-1.6,8-1.5c2.5,0,5.1,0.3,7.6,0.8
	c2,0.5,3.9,1.2,5.7,2.2l0.1,9.7h-6.5l-1.1-4.8c-0.7-0.5-1.5-0.9-2.3-1.1c-1-0.3-2-0.4-3-0.4c-1.5-0.1-3,0.3-4.2,1.2
	c-1,0.7-1.5,1.8-1.5,2.9c0,0.7,0.2,1.3,0.5,1.9c0.5,0.7,1.2,1.3,2,1.6c1.4,0.6,2.8,1.1,4.3,1.4c4.7,1.1,8,2.5,10.1,4.3
	c2.1,1.8,3.2,4.5,3.1,7.2c0.1,3.2-1.3,6.2-3.7,8.2C31.5,120.4,27.8,121.5,22.8,121.5z"/>
<path class="st0" d="M41.9,135v-5.6l4.9-1V90.5l-5.4-1v-5.7h13.8l0.5,4.3c2.1-3.3,5.8-5.2,9.7-5c2.8-0.1,5.5,0.8,7.7,2.4
	c2.2,1.8,3.9,4.1,4.9,6.8c1.2,3.3,1.8,6.7,1.7,10.2v0.7c0.1,3.2-0.5,6.5-1.7,9.5c-1,2.5-2.7,4.7-4.9,6.3c-2.3,1.5-5,2.3-7.7,2.2
	c-1.9,0-3.7-0.3-5.4-1.1c-1.6-0.7-2.9-1.8-4-3.2v11.1l5,1v5.7H41.9z M62.7,114.4c2.4,0.2,4.6-1,5.9-3c1.4-2.4,2-5.2,1.9-8v-0.7
	c0-2.2-0.2-4.3-0.8-6.4c-0.5-1.6-1.4-3.1-2.6-4.3c-1.2-1.1-2.8-1.6-4.4-1.6c-1.4,0-2.7,0.3-3.9,1c-1.1,0.7-2,1.7-2.6,2.8v16.6
	c0.6,1.1,1.5,2,2.6,2.6C59.9,114.1,61.3,114.4,62.7,114.4L62.7,114.4z"/>
<path class="st0" d="M83.5,120.8v-5.6l5-1V90.5l-5.4-1v-5.7h14.6v30.3l4.9,1v5.6L83.5,120.8z M88.1,75.8v-8.2h9.6v8.2L88.1,75.8z"/>
<path class="st0" d="M123.5,121.5c-3.2,0.1-6.3-0.7-9.1-2.4c-2.6-1.6-4.6-3.9-5.9-6.6c-1.4-3-2.1-6.3-2.1-9.7v-1.1
	c-0.1-3.3,0.7-6.6,2.1-9.6c1.3-2.7,3.4-5,5.9-6.6c2.7-1.6,5.8-2.5,9-2.4c2.9-0.1,5.8,0.5,8.4,1.5c2.1,0.9,4.1,2.1,5.8,3.7v10.2h-7
	l-1.3-6.6c-0.6-0.6-1.4-1.1-2.2-1.4c-0.9-0.4-1.9-0.5-2.9-0.5c-1.7-0.1-3.3,0.5-4.7,1.4c-1.3,1-2.3,2.5-2.9,4.1c-0.7,2-1,4.1-1,6.2
	v1.1c-0.1,2.2,0.3,4.3,1,6.4c0.5,1.5,1.5,2.8,2.8,3.8c2.6,1.8,6,1.7,8.5-0.2c1.2-1.1,2-2.6,2.3-4.2h7.9l0.1,0.2
	c-0.3,2.3-1,4.6-2.2,6.6c-1.2,1.9-2.8,3.4-4.9,4.4C128.9,121.1,126.2,121.6,123.5,121.5z"/>
<path class="st0" d="M160.8,121.5c-3.2,0.1-6.4-0.7-9.1-2.3c-2.6-1.5-4.7-3.8-6.1-6.4c-1.5-2.9-2.2-6.1-2.1-9.4v-1.4
	c-0.1-3.3,0.6-6.6,2.1-9.7c1.3-2.7,3.3-5,5.8-6.7c2.6-1.6,5.6-2.5,8.6-2.4c2.9-0.1,5.8,0.6,8.4,2c2.3,1.3,4.1,3.3,5.1,5.7
	c1.2,2.8,1.8,5.9,1.7,8.9v5.2H153l-0.1,0.2c0.1,1.6,0.5,3.3,1.2,4.7c0.7,1.3,1.7,2.5,3,3.3c1.4,0.8,3,1.2,4.6,1.2c3.5,0.1,7-1,9.9-3
	l2.7,5.8c-1.7,1.3-3.6,2.4-5.6,3.1C166.1,121.1,163.5,121.5,160.8,121.5z M153.1,98.7h13.3v-0.9c0-1.4-0.2-2.7-0.7-4
	c-0.4-1.1-1.1-2-2.1-2.7c-1.1-0.7-2.4-1-3.7-1c-1.3,0-2.5,0.4-3.5,1.1c-1,0.8-1.8,1.8-2.3,3c-0.6,1.4-1,2.8-1.1,4.3L153.1,98.7z"/>
<path class="st0" d="M212.9,121.5c-3.9,0-7-1.2-9.2-3.7c-2.2-2.5-3.3-6.4-3.3-11.6V90.5l-4.1-1v-5.7h13.4v22.3c0,2.9,0.5,5,1.4,6.2
	c1.1,1.3,2.8,2,4.4,1.8c1.5,0,3-0.3,4.3-1c1.2-0.7,2.3-1.6,3-2.8V90.5l-4.5-1v-5.7h13.8v30.3l4.4,1v5.6h-12.6l-0.6-4.8
	c-1.1,1.7-2.6,3.1-4.4,4.1C217,121,215,121.5,212.9,121.5z"/>
<path class="st0" d="M239.9,135v-5.6l4.9-1V90.5l-5.4-1v-5.7h13.8l0.5,4.3c2.1-3.3,5.8-5.2,9.7-5c2.8-0.1,5.4,0.8,7.6,2.4
	c2.2,1.8,3.9,4.1,4.9,6.8c1.2,3.3,1.8,6.7,1.7,10.2v0.7c0.1,3.2-0.5,6.5-1.7,9.5c-1,2.5-2.7,4.7-4.9,6.3c-2.3,1.5-5,2.3-7.7,2.2
	c-1.9,0-3.7-0.3-5.4-1.1c-1.6-0.7-2.9-1.8-4-3.2v11.1l5,1v5.7H239.9z M260.6,114.4c2.4,0.2,4.6-1,5.9-3c1.4-2.4,2-5.2,1.9-8v-0.7
	c0-2.2-0.2-4.3-0.8-6.4c-0.5-1.6-1.4-3.1-2.6-4.3c-1.2-1.1-2.8-1.6-4.4-1.6c-2.7-0.1-5.3,1.4-6.5,3.8v16.5c0.6,1.1,1.5,2,2.6,2.6
	C257.9,114.1,259.3,114.4,260.6,114.4L260.6,114.4z"/>
<path class="st0" d="M309.3,135.7c-0.9,0-1.7-0.1-2.6-0.2c-0.9-0.1-1.8-0.3-2.6-0.5l1-6.9c0.4,0.1,0.9,0.1,1.5,0.2s1,0.1,1.4,0.1
	c1.3,0,2.6-0.4,3.7-1.2c1.1-0.9,1.9-2.1,2.3-3.5l1-2.6l-12.5-30.8l-4.5-0.7v-5.6h18.8v5.6l-4.5,0.7l6.1,16.8l0.9,2.6h0.2l7.2-19.4
	l-4.5-0.7v-5.6h17.6v5.6l-4.1,0.6l-14.2,36.2c-0.6,1.7-1.5,3.2-2.5,4.7c-1,1.4-2.4,2.6-3.9,3.4C313.3,135.3,311.3,135.7,309.3,135.7
	z"/>
<path class="st0" d="M359.4,121.5c-3.3,0.1-6.5-0.7-9.3-2.4c-2.6-1.6-4.6-3.9-5.9-6.6c-1.4-3.1-2.1-6.4-2.1-9.8V102
	c-0.1-3.4,0.6-6.7,2.1-9.7c1.3-2.7,3.4-5,5.9-6.7c5.7-3.2,12.7-3.2,18.5,0c2.6,1.6,4.6,3.9,5.9,6.6c1.4,3.1,2.1,6.4,2.1,9.8v0.7
	c0.1,3.4-0.6,6.7-2.1,9.8c-1.3,2.7-3.3,5-5.9,6.6C365.8,120.8,362.6,121.6,359.4,121.5z M359.4,114.4c1.6,0.1,3.2-0.5,4.5-1.5
	c1.2-1.1,2.1-2.5,2.6-4.1c0.6-2,0.9-4,0.9-6.1V102c0-2-0.3-4.1-0.9-6c-0.5-1.6-1.4-3-2.6-4.1c-2.7-2-6.3-2-9,0
	c-1.2,1.1-2.1,2.5-2.6,4.1c-0.6,1.9-0.9,4-0.9,6v0.7c0,2.1,0.2,4.1,0.9,6.1c0.5,1.6,1.4,3,2.6,4.1
	C356.2,113.9,357.8,114.4,359.4,114.4z"/>
<path class="st0" d="M396.9,121.5c-3.9,0-7-1.2-9.2-3.7c-2.2-2.5-3.3-6.4-3.3-11.6V90.5l-4.1-1v-5.7h13.4v22.3c0,2.9,0.5,5,1.5,6.2
	c1.1,1.3,2.8,2,4.5,1.8c1.5,0,3-0.3,4.3-1c1.2-0.7,2.3-1.6,3-2.8V90.5l-4.5-1v-5.7h13.8v30.3l4.4,1v5.6h-12.6l-0.6-4.8
	c-1.1,1.7-2.6,3.1-4.4,4.1C401.1,121,399,121.5,396.9,121.5z"/>
<path class="st0" d="M425,120.8v-5.6l4.9-1V90.5l-5.3-1v-5.7h13.9l0.4,4.6l0.1,0.8c0.8-1.8,2-3.3,3.5-4.5c1.4-1,3.1-1.6,4.9-1.6
	c0.7,0,1.3,0.1,2,0.2c0.6,0.1,1.2,0.2,1.8,0.4l-1.1,8.6l-4.9-0.3c-1.3-0.1-2.5,0.2-3.6,0.8c-1,0.7-1.8,1.6-2.4,2.6v18.7l5,1v5.6
	L425,120.8z"/>
<path class="st0" d="M471,120.8v-5.6l5-1v-40l-5.4-1v-5.7h14.6v46.6l5,1v5.6L471,120.8z"/>
<path class="st0" d="M493.5,120.8v-5.6l5-1V90.5l-5.4-1v-5.7h14.6v30.3l5,1v5.6L493.5,120.8z M498.1,75.8v-8.2h9.6v8.2L498.1,75.8z"
	/>
<path class="st0" d="M516.7,120.8v-5.6l5-1V90.5h-5.6v-6.6h5.6v-4.2c0-4.1,1.2-7.3,3.5-9.5s5.5-3.3,9.7-3.3c1.1,0,2.1,0.1,3.2,0.2
	c1,0.1,2,0.3,3,0.6l-0.8,6.9c-0.6-0.1-1.2-0.3-1.8-0.3c-0.7-0.1-1.4-0.1-2.1-0.1c-1.5-0.1-2.9,0.4-4,1.4c-0.9,1.2-1.4,2.6-1.3,4.1
	v4.2h8.3v6.6H531v23.7l6.5,1v5.6L516.7,120.8z"/>
<path class="st1" d="M560.4,121.5c-3.2,0.1-6.4-0.7-9.2-2.3c-2.6-1.5-4.7-3.8-6.1-6.4c-1.5-2.9-2.2-6.1-2.2-9.4v-1.4
	c-0.1-3.3,0.6-6.6,2.1-9.7c1.3-2.7,3.3-5,5.8-6.7c2.6-1.6,5.6-2.5,8.6-2.4c2.9-0.1,5.8,0.6,8.4,2c2.3,1.3,4.1,3.3,5.2,5.7
	c1.2,2.8,1.8,5.9,1.7,8.9v5.2h-22.1l-0.1,0.2c0.1,1.6,0.5,3.3,1.2,4.7c0.7,1.3,1.7,2.5,3,3.3c1.4,0.8,3,1.2,4.6,1.2
	c3.5,0.1,7-1,9.9-3l2.7,5.8c-1.7,1.3-3.6,2.4-5.6,3.1C565.8,121.1,563.1,121.5,560.4,121.5z M552.8,98.7h13.3v-0.9
	c0-1.4-0.2-2.7-0.7-4c-0.4-1.1-1.1-2-2.1-2.7c-1.1-0.7-2.4-1-3.7-1c-1.3,0-2.5,0.4-3.5,1.1c-1,0.8-1.8,1.8-2.3,3
	c-0.6,1.4-1,2.8-1.1,4.3L552.8,98.7z"/>
<path class="st0" d="M581.6,103.8V71.1h9.3v32.7H581.6z M581.6,120.8v-8.4h9.3v8.4H581.6z"/>
<g>
	
		<linearGradient id="SVGID_1_" gradientUnits="userSpaceOnUse" x1="15.3469" y1="112.5645" x2="547.1287" y2="112.5645" gradientTransform="matrix(1 0 0 -1 0 148)">
		<stop  offset="8.000000e-02" style="stop-color:#FF7BAC;stop-opacity:0"/>
		<stop  offset="0.88" style="stop-color:#FF7BAC"/>
	</linearGradient>
	<path class="st2" d="M29.8,60.5c-4.1,0-8.1-1-11.6-3c-3.4-2-6.1-4.9-7.9-8.4c-1.9-4-2.9-8.4-2.8-12.9v-1.5
		c-0.1-4.3,0.9-8.7,2.7-12.6c1.7-3.5,4.4-6.5,7.7-8.6c3.4-2.1,7.4-3.1,11.4-3.1c0.2,0,0.4,0,0.6,0l0.3,0c3,0,6,0.5,8.9,1.4
		c2.7,0.9,5.1,2.2,7.3,4v11h-6.1l-1-7.4l-0.2-0.1c-0.8-0.6-1.7-1.1-2.6-1.5c-1-0.4-2-0.7-3-0.9c-1.1-0.2-2.3-0.3-3.4-0.3
		c0,0-0.4,0-0.5,0c-2.6,0-5.2,0.8-7.4,2.3c-2.2,1.6-3.9,3.8-4.9,6.3c-1.2,3-1.8,6.2-1.7,9.5v1.5c0,3.3,0.6,6.5,1.9,9.6
		c1.1,2.6,2.9,4.7,5.2,6.3c2.3,1.5,4.9,2.2,7.6,2.2c0.1,0,0.3,0,0.4,0c1.5,0,3-0.2,4.5-0.5c1.3-0.3,2.6-0.7,3.9-1.3l0.2-0.1l1-6.8h6
		v10.8c-2.1,1.3-4.4,2.3-6.7,2.9c-2.9,0.8-5.9,1.3-8.9,1.3C30.6,60.5,30,60.5,29.8,60.5z"/>
	<path class="st3" d="M29.3,10.9c0.2,0,0.4,0,0.6,0l0.3,0c3,0,5.9,0.5,8.8,1.4c2.5,0.8,4.9,2.1,7,3.8v10.3h-5.1l-0.9-6.7l-0.1-0.4
		l-0.4-0.3c-0.8-0.6-1.7-1.1-2.7-1.5c-1-0.4-2.1-0.7-3.1-0.9c-1.1-0.2-2.3-0.3-3.5-0.3l-0.1,0c-0.1,0-0.3,0-0.4,0
		c-2.7,0-5.4,0.8-7.7,2.4c-2.3,1.6-4.1,3.9-5.1,6.5c-1.2,3.1-1.8,6.3-1.7,9.6l0,1.5c0,3.4,0.6,6.7,1.9,9.8c1.1,2.7,3,4.9,5.4,6.5
		c2.3,1.5,5.1,2.3,7.9,2.3c0.1,0,0.3,0,0.4,0c1.6,0,3.1-0.2,4.6-0.5c1.4-0.3,2.7-0.8,4-1.3l0.5-0.2l0.1-0.5l0.9-6.1h5v10
		c-2,1.2-4.1,2.1-6.4,2.7c-2.9,0.8-5.8,1.2-8.8,1.2l-0.2,0c-0.2,0-0.4,0-0.7,0c-4,0-7.9-1-11.4-2.9c-3.3-1.9-6-4.8-7.7-8.2
		c-1.9-3.9-2.8-8.3-2.7-12.7l0-1.5c-0.1-4.3,0.8-8.5,2.7-12.4c1.7-3.5,4.3-6.4,7.5-8.4C21.5,11.9,25.3,10.9,29.3,10.9 M29.3,9.9
		c-4.1,0-8.1,1.1-11.7,3.2c-3.4,2.1-6.2,5.2-7.9,8.8c-1.9,4-2.8,8.4-2.8,12.8v1.5c-0.1,4.5,0.9,9,2.8,13.1c1.8,3.6,4.6,6.6,8.1,8.6
		c3.6,2,7.7,3.1,11.9,3.1c0.2,0,0.5,0,0.7,0c0.1,0,0.1,0,0.2,0c3.1,0,6.1-0.4,9.1-1.3c2.5-0.7,4.9-1.7,7.1-3.1V45h-6.9l-1,7
		c-1.2,0.6-2.5,1-3.8,1.3c-1.4,0.3-2.9,0.5-4.4,0.5c-0.1,0-0.2,0-0.4,0c-2.6,0-5.1-0.7-7.3-2.1c-2.2-1.5-4-3.6-5-6.1
		c-1.3-3-1.9-6.2-1.8-9.4v-1.5c-0.1-3.2,0.5-6.3,1.6-9.3c1-2.4,2.6-4.6,4.8-6.1c2.1-1.4,4.6-2.2,7.1-2.2c0.1,0,0.2,0,0.4,0
		c0,0,0.1,0,0.1,0c1.1,0,2.2,0.1,3.3,0.3c1,0.2,2,0.5,2.9,0.9c0.9,0.4,1.7,0.8,2.5,1.4l1,7.6h7V15.6c-2.3-1.9-4.8-3.3-7.6-4.2
		c-2.9-1-6-1.5-9.1-1.5c-0.1,0-0.2,0-0.3,0C29.7,9.9,29.5,9.9,29.3,9.9L29.3,9.9z"/>
</g>
<g>
	
		<linearGradient id="SVGID_00000060002825325880468480000015994416709979347610_" gradientUnits="userSpaceOnUse" x1="16.6267" y1="106.1497" x2="546.2273" y2="106.1497" gradientTransform="matrix(1 0 0 -1 0 148)">
		<stop  offset="8.000000e-02" style="stop-color:#FF7BAC;stop-opacity:0"/>
		<stop  offset="0.88" style="stop-color:#FF7BAC"/>
	</linearGradient>
	<path style="fill:url(#SVGID_00000060002825325880468480000015994416709979347610_);" d="M68.9,60.5c-3,0-5.9-0.8-8.5-2.3
		c-2.5-1.5-4.5-3.8-5.7-6.4c-1.4-3-2.1-6.3-2-9.5v-0.7c-0.1-3.3,0.6-6.6,2-9.5c1.3-2.6,3.3-4.9,5.8-6.4c2.6-1.5,5.5-2.3,8.5-2.3
		c0.1,0,0.3,0,0.4,0c0.2,0,0.3,0,0.5,0c3,0,5.9,0.8,8.5,2.3c2.5,1.5,4.5,3.8,5.7,6.4c1.4,3,2.1,6.3,2,9.5v0.7c0.1,3.3-0.6,6.6-2,9.6
		c-1.3,2.7-3.2,4.9-5.7,6.4c-2.5,1.5-5.5,2.3-8.4,2.3c-0.2,0-0.3,0-0.5,0C69.2,60.5,69.1,60.5,68.9,60.5z M68.9,54.4l0.5,0
		c0.1,0,0.2,0,0.3,0c1.6,0,3.2-0.6,4.5-1.6c1.3-1.2,2.3-2.7,2.8-4.4c0.6-2,0.9-4.1,0.9-6.2v-0.7c0-2.1-0.3-4.2-0.9-6.1
		c-0.5-1.7-1.4-3.2-2.8-4.3c-1.4-1.1-3.1-1.6-4.8-1.6s-3.4,0.6-4.8,1.6c-1.3,1.2-2.3,2.7-2.8,4.4c-0.6,2-0.9,4.1-0.9,6.1v0.7
		c0,2.1,0.3,4.2,0.9,6.3c0.5,1.7,1.5,3.2,2.8,4.3C65.8,53.8,67.3,54.3,68.9,54.4L68.9,54.4z"/>
	<path class="st3" d="M69.8,23.7c2.9,0,5.7,0.8,8.2,2.3c2.4,1.5,4.3,3.6,5.5,6.2c1.3,2.9,2,6.1,2,9.3l0,0.7c0.1,3.2-0.6,6.4-2,9.3
		c-1.2,2.6-3.1,4.7-5.5,6.2c-2.5,1.5-5.3,2.2-8.2,2.2c-0.1,0-0.3,0-0.4,0l0,0l0,0c-0.2,0-0.3,0-0.5,0c-2.9,0-5.8-0.8-8.2-2.2
		c-2.4-1.5-4.3-3.7-5.6-6.2c-1.4-2.9-2-6.1-2-9.3l0-0.7c-0.1-3.2,0.6-6.4,2-9.3c1.2-2.6,3.2-4.7,5.6-6.2c2.5-1.5,5.3-2.3,8.2-2.3
		c0.1,0,0.3,0,0.4,0l0,0l0,0C69.5,23.7,69.7,23.7,69.8,23.7 M68.4,54.8L68.4,54.8l1,0.1c0.1,0,0.2,0,0.3,0c1.7,0,3.5-0.6,4.9-1.7
		c1.4-1.2,2.4-2.8,2.9-4.6c0.6-2.1,0.9-4.2,0.9-6.4l0-0.7c0-2.1-0.3-4.3-0.9-6.3c-0.5-1.8-1.5-3.4-2.9-4.6l0,0l0,0
		c-1.5-1.1-3.2-1.7-5.1-1.7c-1.9,0-3.6,0.6-5.1,1.7l0,0l0,0c-1.4,1.2-2.4,2.8-2.9,4.6c-0.6,2-0.9,4.2-0.9,6.3l0,0.7
		c0,2.2,0.3,4.3,0.9,6.4c0.5,1.8,1.5,3.4,2.9,4.6l0,0l0,0C65.5,54.1,66.9,54.7,68.4,54.8 M69.8,22.7c-0.2,0-0.3,0-0.5,0
		c-0.2,0-0.3,0-0.5,0c-3.1,0-6.1,0.8-8.8,2.4c-2.6,1.6-4.6,3.9-5.9,6.7c-1.4,3-2.1,6.4-2.1,9.7v0.7c-0.1,3.4,0.6,6.7,2.1,9.8
		c1.3,2.7,3.4,5,5.9,6.6c2.7,1.6,5.7,2.4,8.8,2.4c0.2,0,0.3,0,0.5,0c0.2,0,0.3,0,0.5,0c3.1,0,6.1-0.8,8.7-2.4
		c2.6-1.6,4.6-3.9,5.9-6.6c1.4-3.1,2.1-6.4,2.1-9.8v-0.7c0.1-3.4-0.6-6.7-2.1-9.8c-1.3-2.7-3.4-5-5.9-6.6
		C75.9,23.5,72.9,22.7,69.8,22.7L69.8,22.7z M69.1,53.8c-1.5,0-3-0.5-4.2-1.4c-1.3-1.1-2.2-2.5-2.6-4.1c-0.6-2-0.9-4-0.8-6.1v-0.7
		c0-2,0.3-4.1,0.8-6c0.5-1.6,1.4-3,2.6-4.1c1.3-1,2.9-1.5,4.5-1.5s3.2,0.5,4.5,1.5c1.2,1.1,2.2,2.5,2.6,4.1c0.6,1.9,0.9,4,0.9,6v0.7
		c0,2.1-0.3,4.1-0.9,6.1c-0.5,1.6-1.4,3-2.6,4.1c-1.2,1-2.7,1.5-4.2,1.5c-0.1,0-0.2,0-0.3,0v0C69.3,53.8,69.2,53.8,69.1,53.8
		L69.1,53.8z"/>
</g>
<g>
	
		<linearGradient id="SVGID_00000073704476152000568470000003209319229715501702_" gradientUnits="userSpaceOnUse" x1="19.3633" y1="114.3752" x2="536.9195" y2="114.3752" gradientTransform="matrix(1 0 0 -1 0 148)">
		<stop  offset="8.000000e-02" style="stop-color:#FF7BAC;stop-opacity:0"/>
		<stop  offset="0.88" style="stop-color:#FF7BAC"/>
	</linearGradient>
	<polygon style="fill:url(#SVGID_00000073704476152000568470000003209319229715501702_);" points="90.5,55.1 95.5,54.1 95.5,13.3 
		90.1,12.3 90.1,7.5 103.7,7.5 103.7,54 108.7,55 108.7,59.7 90.5,59.7 	"/>
	<path class="st3" d="M103.2,8v45.6v0.8l0.8,0.2l4.2,0.8v3.8l-17.2,0v-3.8l4.2-0.8l0.8-0.2v-0.8v-40v-0.8l-0.8-0.2l-4.5-0.8V8H103.2
		 M104.2,7H89.6v5.7l5.4,1v40l-5,1v5.6l19.2,0v-5.6l-5-1V7L104.2,7z"/>
</g>
<g>
	
		<linearGradient id="SVGID_00000050662005747669072560000002221009653446465210_" gradientUnits="userSpaceOnUse" x1="18.3711" y1="106.1433" x2="547.9706" y2="106.1433" gradientTransform="matrix(1 0 0 -1 0 148)">
		<stop  offset="8.000000e-02" style="stop-color:#FF7BAC;stop-opacity:0"/>
		<stop  offset="0.88" style="stop-color:#FF7BAC"/>
	</linearGradient>
	<path style="fill:url(#SVGID_00000050662005747669072560000002221009653446465210_);" d="M129,60.5c-3,0-5.9-0.8-8.5-2.3
		c-2.5-1.5-4.5-3.8-5.7-6.4c-1.4-3-2.1-6.3-2-9.5v-0.7c-0.1-3.3,0.6-6.6,2-9.5c1.3-2.6,3.3-4.9,5.7-6.4c2.7-1.5,5.8-2.3,9-2.3
		c3.1,0,6.2,0.8,9,2.4c2.5,1.5,4.5,3.8,5.7,6.4c1.4,3,2.1,6.3,2,9.5v0.7c0.1,3.3-0.6,6.6-2,9.6c-1.3,2.7-3.2,4.9-5.7,6.4
		c-2.5,1.5-5.5,2.3-8.4,2.3c-0.2,0-0.3,0-0.5,0C129.3,60.5,129.1,60.5,129,60.5z M129,54.4l0.5,0c0.1,0,0.2,0,0.3,0
		c1.6,0,3.2-0.6,4.5-1.6c1.3-1.2,2.3-2.7,2.8-4.4c0.6-2,0.9-4.1,0.9-6.2v-0.7c0-2.1-0.3-4.2-0.9-6.1c-0.5-1.7-1.5-3.2-2.8-4.3
		c-1.4-1.1-3.1-1.6-4.8-1.6s-3.4,0.6-4.8,1.6c-1.3,1.2-2.3,2.7-2.8,4.4c-0.6,2-0.9,4.1-0.9,6.1v0.7c0,2.1,0.3,4.2,0.9,6.3
		c0.5,1.7,1.5,3.2,2.8,4.3C125.9,53.8,127.4,54.3,129,54.4L129,54.4z"/>
	<path class="st3" d="M129.4,23.7c3.1,0,6.1,0.8,8.7,2.3c2.4,1.5,4.3,3.6,5.5,6.2c1.4,2.9,2,6.1,2,9.3l0,0.7c0.1,3.2-0.6,6.4-2,9.3
		c-1.2,2.6-3.1,4.7-5.5,6.2c-2.5,1.5-5.3,2.2-8.2,2.2c-0.1,0-0.3,0-0.4,0l0,0l0,0c-0.2,0-0.3,0-0.5,0c-2.9,0-5.8-0.8-8.2-2.2
		c-2.4-1.5-4.3-3.7-5.6-6.2c-1.4-2.9-2.1-6.1-2-9.3l0-0.7c-0.1-3.2,0.6-6.4,2-9.3c1.2-2.6,3.1-4.7,5.5-6.2
		C123.4,24.5,126.4,23.7,129.4,23.7 M128.5,54.8L128.5,54.8l1,0.1c0.1,0,0.2,0,0.3,0c1.7,0,3.4-0.6,4.8-1.7c1.4-1.2,2.4-2.8,2.9-4.6
		c0.6-2.1,0.9-4.2,0.9-6.4l0-0.7c0-2.1-0.3-4.3-0.9-6.3c-0.5-1.8-1.5-3.4-2.9-4.6l0,0l0,0c-1.5-1.1-3.2-1.7-5.1-1.7
		c-1.9,0-3.6,0.6-5.1,1.7l0,0l0,0c-1.4,1.2-2.4,2.8-2.9,4.6c-0.6,2-0.9,4.2-0.9,6.3l0,0.7c0,2.2,0.3,4.3,0.9,6.4
		c0.5,1.8,1.5,3.4,2.9,4.6l0,0l0,0C125.5,54.1,127,54.7,128.5,54.8 M129.4,22.7c-3.2,0-6.4,0.8-9.2,2.4c-2.6,1.6-4.6,3.9-5.9,6.7
		c-1.4,3-2.1,6.4-2.1,9.7v0.7c-0.1,3.4,0.6,6.7,2.1,9.8c1.3,2.7,3.4,5,5.9,6.6c2.7,1.6,5.7,2.4,8.8,2.4c0.2,0,0.3,0,0.5,0
		c0.2,0,0.3,0,0.5,0c3.1,0,6.1-0.8,8.7-2.4c2.6-1.6,4.6-3.9,5.9-6.6c1.4-3.1,2.1-6.4,2.1-9.8v-0.7c0.1-3.4-0.6-6.7-2.1-9.8
		c-1.3-2.7-3.4-5-5.9-6.6C135.8,23.5,132.6,22.7,129.4,22.7L129.4,22.7z M129.1,53.8c-1.5,0-3-0.5-4.2-1.4c-1.3-1.1-2.2-2.5-2.6-4.1
		c-0.6-2-0.9-4-0.9-6.1v-0.7c0-2,0.3-4.1,0.9-6c0.5-1.6,1.4-3,2.6-4.1c1.3-1,2.9-1.5,4.5-1.5s3.2,0.5,4.5,1.5
		c1.2,1.1,2.2,2.5,2.6,4.1c0.6,1.9,0.9,4,0.9,6v0.7c0,2.1-0.3,4.1-0.9,6.1c-0.5,1.6-1.4,3-2.6,4.1c-1.2,1-2.7,1.5-4.2,1.5
		c-0.1,0-0.2,0-0.3,0v0C129.4,53.8,129.2,53.8,129.1,53.8L129.1,53.8z"/>
</g>
<g>
	
		<linearGradient id="SVGID_00000159472288183598600560000014317906914332688533_" gradientUnits="userSpaceOnUse" x1="20.9139" y1="106.5461" x2="544.899" y2="106.5461" gradientTransform="matrix(1 0 0 -1 0 148)">
		<stop  offset="8.000000e-02" style="stop-color:#FF7BAC;stop-opacity:0"/>
		<stop  offset="0.88" style="stop-color:#FF7BAC"/>
	</linearGradient>
	<path style="fill:url(#SVGID_00000159472288183598600560000014317906914332688533_);" d="M152.3,55.1l5-1V29.6l-5.3-1v-4.7h13
		l0.4,4.9l1,0.2c0.7-1.7,1.9-3.2,3.3-4.3c1.3-0.9,2.8-1.4,4.4-1.4l0.2,0c0.7,0,1.3,0.1,1.9,0.1c0.5,0.1,0.9,0.2,1.3,0.3l-0.9,7.7
		l-4.4-0.3c-0.2,0-0.4,0-0.6,0c-1.2,0-2.3,0.3-3.3,0.9c-1.1,0.7-2,1.7-2.7,2.8l-0.1,0.1V54l4.9,1v4.7l-18.2,0V55.1z"/>
	<path class="st3" d="M174,23.7l0.2,0c0.6,0,1.2,0.1,1.9,0.1c0.3,0,0.6,0.1,0.9,0.2l-0.8,6.8l-3.9-0.2c-0.2,0-0.4,0-0.6,0
		c-1.3,0-2.5,0.3-3.6,1c-1.2,0.8-2.1,1.8-2.8,3l-0.1,0.2v0.3v18.7v0.8l0.8,0.2l4.1,0.8v3.8l-17.2,0v-3.8l4.1-0.8l0.8-0.2v-0.8V30
		v-0.8l-0.8-0.2l-4.5-0.8v-3.8h12l0.3,3.7l0.1,0.8l1.9,0.3c0.7-1.6,1.8-3,3.2-4.1C171.1,24.1,172.5,23.7,174,23.7 M174,22.7
		c-1.7,0-3.4,0.5-4.7,1.6c-1.5,1.2-2.7,2.7-3.5,4.5l-0.1-0.8l-0.4-4.6h-13.9V29l5.3,1v23.6l-4.9,1v5.6l19.2,0v-5.6l-4.9-1V34.9
		c0.6-1.1,1.5-2,2.5-2.6c0.9-0.6,2-0.8,3.1-0.8c0.2,0,0.4,0,0.5,0l4.9,0.3l1-8.6c-0.6-0.2-1.2-0.3-1.8-0.4c-0.7-0.1-1.3-0.1-2-0.1
		C174.1,22.7,174.1,22.7,174,22.7L174,22.7z"/>
</g>
<g>
	
		<linearGradient id="SVGID_00000044177312412481190570000016593384150076239530_" gradientUnits="userSpaceOnUse" x1="19.9039" y1="98.752" x2="552.2861" y2="98.752" gradientTransform="matrix(1 0 0 -1 0 148)">
		<stop  offset="8.000000e-02" style="stop-color:#FF7BAC;stop-opacity:0"/>
		<stop  offset="0.88" style="stop-color:#FF7BAC"/>
	</linearGradient>
	<path style="fill:url(#SVGID_00000044177312412481190570000016593384150076239530_);" d="M208.1,74.7c-0.9,0-1.7-0.1-2.5-0.2
		c-0.7-0.1-1.4-0.2-2.1-0.4l0.9-5.9c0.3,0,0.6,0.1,1,0.1c0.6,0,1,0.1,1.4,0.1l0.2,0c1.4,0,2.7-0.5,3.8-1.3c1.2-1,2-2.3,2.5-3.8
		l1.1-2.8l-12.7-31.3l-4.3-0.6v-4.7h17.8v4.7l-4.7,0.7l6.3,17.3l1,3h0.9l7.6-20.3l-4.7-0.7v-4.7h16.6v4.7l-3.9,0.6L220,65.6
		c-0.6,1.6-1.5,3.2-2.5,4.6c-1,1.3-2.3,2.5-3.8,3.2c-1.6,0.8-3.4,1.2-5.2,1.2C208.4,74.7,208.3,74.7,208.1,74.7z"/>
	<path class="st3" d="M237.7,24.3v3.8l-3.2,0.5l-0.6,0.1l-0.2,0.5l-14.2,36.2c-0.6,1.6-1.4,3.1-2.4,4.5c-0.9,1.3-2.2,2.4-3.6,3.1
		c-1.5,0.8-3.3,1.2-5,1.2c-0.1,0-0.2,0-0.4,0c-0.8,0-1.6-0.1-2.4-0.2c-0.5-0.1-1.1-0.2-1.6-0.3l0.7-5c0.2,0,0.4,0,0.5,0
		c0.6,0,1,0.1,1.4,0.1c0,0,0,0,0,0c0.1,0,0.1,0,0.2,0c1.5,0,3-0.5,4.2-1.5c1.2-1.1,2.2-2.4,2.6-3.9l1-2.6l0.1-0.4l-0.1-0.4
		l-12.5-30.8l-0.2-0.5l-0.6-0.1l-3.6-0.5v-3.8h16.8v3.8l-3.7,0.6l-1.2,0.2l0.4,1.2l6.1,16.7l0.9,2.6l0.2,0.7h0.7h0.2h0.7l0.2-0.7
		l7.2-19.4l0.4-1.2l-1.2-0.2l-3.6-0.5v-3.8H237.7 M238.7,23.3h-17.6V29l4.5,0.7l-7.2,19.4h-0.2l-0.9-2.6l-6.1-16.8l4.5-0.7v-5.7
		h-18.8V29l4.4,0.6l12.5,30.8l-1,2.6c-0.5,1.4-1.3,2.6-2.4,3.5c-1,0.8-2.2,1.2-3.5,1.2c-0.1,0-0.1,0-0.2,0c-0.3,0-0.8,0-1.3-0.1
		s-1-0.1-1.4-0.2l-1,6.9c0.8,0.2,1.7,0.4,2.6,0.5c0.9,0.1,1.7,0.2,2.6,0.2c0.1,0,0.3,0,0.4,0c1.9,0,3.7-0.4,5.4-1.3
		c1.6-0.8,2.9-2,3.9-3.4c1.1-1.5,1.9-3.1,2.6-4.7l14.2-36.2l4.1-0.6V23.3L238.7,23.3z"/>
</g>
<g>
	
		<linearGradient id="SVGID_00000078757054909361480270000008880219803191664559_" gradientUnits="userSpaceOnUse" x1="22.1123" y1="106.1646" x2="551.7111" y2="106.1646" gradientTransform="matrix(1 0 0 -1 0 148)">
		<stop  offset="8.000000e-02" style="stop-color:#FF7BAC;stop-opacity:0"/>
		<stop  offset="0.88" style="stop-color:#FF7BAC"/>
	</linearGradient>
	<path style="fill:url(#SVGID_00000078757054909361480270000008880219803191664559_);" d="M257.8,60.5c-3,0-6-0.8-8.6-2.4
		c-2.5-1.5-4.5-3.8-5.7-6.4c-1.4-3-2.1-6.3-2-9.5v-0.7c-0.1-3.3,0.6-6.6,2-9.5c1.3-2.6,3.2-4.9,5.7-6.4c2.7-1.5,5.8-2.3,9-2.3
		s6.2,0.8,9,2.4c2.5,1.5,4.5,3.8,5.7,6.4c1.4,3,2.1,6.3,2,9.5v0.7c0.1,3.3-0.6,6.6-2,9.6c-1.3,2.7-3.2,4.9-5.7,6.4
		c-2.6,1.5-5.5,2.3-8.5,2.3c-0.1,0-0.3,0-0.4,0C258.1,60.5,258,60.5,257.8,60.5z M257.8,54.4l0.5,0c0.1,0,0.2,0,0.3,0
		c1.6,0,3.2-0.6,4.5-1.6c1.3-1.2,2.3-2.7,2.8-4.4c0.6-2,0.9-4.1,0.9-6.2v-0.7c0-2.1-0.3-4.2-0.9-6.1c-0.5-1.7-1.5-3.2-2.8-4.3
		c-1.4-1.1-3.1-1.6-4.8-1.6c-1.7,0-3.4,0.6-4.8,1.6c-1.3,1.2-2.3,2.7-2.8,4.4c-0.6,2-0.9,4.1-0.9,6.1v0.7c0,2.1,0.3,4.2,0.9,6.3
		c0.5,1.7,1.5,3.2,2.8,4.3C254.7,53.8,256.2,54.3,257.8,54.4L257.8,54.4z"/>
	<path class="st3" d="M258.2,23.7c3.1,0,6.1,0.8,8.7,2.3c2.4,1.5,4.3,3.6,5.5,6.2c1.3,2.9,2,6.1,2,9.3l0,0.7c0.1,3.2-0.6,6.4-2,9.3
		c-1.2,2.6-3.1,4.7-5.5,6.2c-2.5,1.5-5.3,2.3-8.2,2.3c-0.1,0-0.3,0-0.4,0l0,0l0,0c-0.1,0-0.3,0-0.4,0c-2.9,0-5.8-0.8-8.3-2.3
		c-2.4-1.5-4.3-3.7-5.6-6.2c-1.4-2.9-2-6.1-2-9.3l0-0.7c-0.1-3.2,0.6-6.4,2-9.3c1.2-2.6,3.1-4.7,5.5-6.2
		C252.2,24.5,255.2,23.7,258.2,23.7 M257.3,54.8L257.3,54.8l1,0.1c0.1,0,0.2,0,0.3,0c1.7,0,3.4-0.6,4.8-1.7c1.4-1.2,2.4-2.8,2.9-4.6
		c0.6-2.1,0.9-4.2,0.9-6.4l0-0.7c0-2.1-0.3-4.3-0.9-6.3c-0.5-1.8-1.5-3.4-2.9-4.6l0,0l0,0c-1.5-1.1-3.2-1.7-5.1-1.7
		s-3.6,0.6-5.1,1.7l0,0l0,0c-1.4,1.2-2.4,2.8-2.9,4.6c-0.6,2-0.9,4.2-0.9,6.3l0,0.7c0,2.2,0.3,4.3,0.9,6.4c0.5,1.8,1.5,3.4,2.9,4.6
		l0,0l0,0C254.3,54.1,255.8,54.7,257.3,54.8 M258.2,22.7c-3.2,0-6.4,0.8-9.2,2.4c-2.6,1.6-4.6,3.9-5.9,6.6c-1.4,3-2.2,6.4-2.1,9.7
		v0.7c-0.1,3.4,0.6,6.7,2.1,9.8c1.3,2.7,3.4,5,5.9,6.6c2.7,1.6,5.7,2.4,8.8,2.4c0.1,0,0.3,0,0.4,0c0.1,0,0.3,0,0.4,0
		c3.1,0,6.1-0.8,8.8-2.4c2.6-1.6,4.6-3.9,5.9-6.6c1.4-3.1,2.1-6.4,2.1-9.8v-0.7c0.1-3.4-0.6-6.7-2.1-9.8c-1.3-2.7-3.4-5-5.9-6.6
		C264.6,23.5,261.4,22.7,258.2,22.7L258.2,22.7z M257.9,53.8c-1.5,0-3-0.5-4.2-1.4c-1.3-1.1-2.2-2.5-2.6-4.1c-0.6-2-0.9-4-0.9-6.1
		v-0.7c0-2,0.3-4.1,0.9-6c0.5-1.6,1.4-3,2.6-4.1c1.3-1,2.9-1.5,4.5-1.5s3.2,0.5,4.5,1.5c1.2,1.1,2.2,2.5,2.6,4.1
		c0.6,1.9,0.9,4,0.9,6v0.7c0,2.1-0.3,4.1-0.9,6.1c-0.5,1.6-1.4,3-2.6,4.1c-1.2,1-2.7,1.5-4.2,1.5c-0.1,0-0.2,0-0.3,0v0
		C258.2,53.8,258,53.8,257.9,53.8L257.9,53.8z"/>
</g>
<g>
	
		<linearGradient id="SVGID_00000171683469720120354150000014852215459534917027_" gradientUnits="userSpaceOnUse" x1="22.1079" y1="105.8298" x2="554.0037" y2="105.8298" gradientTransform="matrix(1 0 0 -1 0 148)">
		<stop  offset="8.000000e-02" style="stop-color:#FF7BAC;stop-opacity:0"/>
		<stop  offset="0.88" style="stop-color:#FF7BAC"/>
	</linearGradient>
	<path style="fill:url(#SVGID_00000171683469720120354150000014852215459534917027_);" d="M295.8,60.5c-3.8,0-6.8-1.2-8.9-3.6
		c-2.1-2.4-3.2-6.2-3.2-11.3v-16l-4.1-1v-4.8H292v21.8c0,3,0.5,5.2,1.6,6.5c1.1,1.3,2.7,2,4.4,2c0.1,0,0.3,0,0.5,0l0.2,0
		c1.5,0,3-0.4,4.4-1.1c1.3-0.7,2.4-1.7,3.2-3l0.1-0.1V29.6l-4.5-1v-4.8h12.8V54l4.4,1v4.7h-11.7l-0.7-5.8l-0.7,1.2
		c-1,1.7-2.5,3-4.2,4c-1.7,0.9-3.7,1.4-5.7,1.4L295.8,60.5z"/>
	<path class="st3" d="M314,24.3v29.3v0.8l0.8,0.2l3.6,0.8v3.8h-10.7l-0.5-4l-0.4-2.8l-1.5,2.4c-1,1.6-2.4,2.9-4,3.8
		c-1.7,0.9-3.5,1.4-5.4,1.4l-0.1,0c-3.7,0-6.4-1.1-8.5-3.4c-2-2.3-3.1-6-3.1-11V30v-0.8l-0.8-0.2l-3.3-0.8v-3.9h11.4v21.3
		c0,3.2,0.5,5.4,1.7,6.8c1.2,1.4,3,2.2,4.8,2.2c0.1,0,0.3,0,0.4,0c0.1,0,0.1,0,0.2,0c1.6,0,3.2-0.4,4.6-1.1c1.4-0.7,2.6-1.8,3.4-3.2
		l0.1-0.2v-0.3V30v-0.8L306,29l-3.7-0.8v-3.9H314 M315,23.3h-13.8V29l4.5,1v19.9c-0.7,1.2-1.8,2.2-3,2.8c-1.3,0.7-2.7,1-4.1,1
		c-0.1,0-0.1,0-0.2,0c-0.1,0-0.3,0-0.4,0c-1.5,0-3-0.7-4-1.8c-1-1.2-1.5-3.3-1.5-6.2V23.3h-13.4V29l4.1,1v15.7
		c0,5.3,1.1,9.1,3.3,11.6c2.2,2.5,5.3,3.7,9.2,3.7c0,0,0.1,0,0.1,0c2.1,0,4.1-0.5,5.9-1.5c1.8-1,3.3-2.4,4.4-4.1l0.6,4.8h12.6v-5.6
		l-4.4-1V23.3L315,23.3z"/>
</g>
<g>
	
		<linearGradient id="SVGID_00000145772625819842453810000011382059017744671398_" gradientUnits="userSpaceOnUse" x1="27.7152" y1="106.5461" x2="551.64" y2="106.5461" gradientTransform="matrix(1 0 0 -1 0 148)">
		<stop  offset="8.000000e-02" style="stop-color:#FF7BAC;stop-opacity:0"/>
		<stop  offset="0.88" style="stop-color:#FF7BAC"/>
	</linearGradient>
	<path style="fill:url(#SVGID_00000145772625819842453810000011382059017744671398_);" d="M324.3,55.1l4.9-1V29.6l-5.3-1v-4.7h13
		l0.4,4.9l1,0.2c0.7-1.7,1.9-3.2,3.3-4.3c1.3-0.9,2.8-1.4,4.4-1.4l0.2,0c0.6,0,1.3,0.1,1.9,0.1c0.5,0.1,0.9,0.2,1.3,0.3l-0.9,7.7
		l-4.4-0.3c-0.2,0-0.4,0-0.6,0c-1.2,0-2.3,0.3-3.4,0.9c-1.1,0.7-2,1.7-2.7,2.8l-0.1,0.1V54l5,1v4.7l-18.1,0V55.1z"/>
	<path class="st3" d="M346.1,23.7l0.2,0c0.6,0,1.2,0.1,1.9,0.1c0.3,0,0.6,0.1,0.9,0.2l-0.8,6.8l-3.9-0.2c-0.2,0-0.4,0-0.6,0
		c-1.3,0-2.5,0.3-3.6,1l0,0l0,0c-1.1,0.8-2.1,1.8-2.8,3l-0.1,0.2v0.3v18.7v0.8l0.8,0.2l4.1,0.8v3.8l-17.1,0v-3.8l4.1-0.8l0.8-0.2
		v-0.8V30v-0.8L329,29l-4.5-0.8v-3.8h12l0.3,3.7l0.1,0.8l1.9,0.3c0.7-1.6,1.8-3,3.2-4.1C343.1,24.1,344.6,23.7,346.1,23.7
		 M346.1,22.7c-1.7,0-3.4,0.5-4.7,1.6c-1.5,1.2-2.7,2.7-3.5,4.5l-0.1-0.8l-0.4-4.6h-13.9V29l5.3,1v23.6l-5,1v5.6l19.1,0v-5.6l-5-1
		V34.9c0.6-1.1,1.5-2,2.5-2.6c0.9-0.6,2-0.8,3.1-0.8c0.2,0,0.4,0,0.5,0l4.9,0.3l1.1-8.6c-0.6-0.2-1.2-0.3-1.8-0.4
		c-0.7-0.1-1.3-0.1-2-0.1C346.2,22.7,346.1,22.7,346.1,22.7L346.1,22.7z"/>
</g>
<g>
	
		<linearGradient id="SVGID_00000074414403670913324050000007964106030068673665_" gradientUnits="userSpaceOnUse" x1="32.0348" y1="110.365" x2="552.0748" y2="110.365" gradientTransform="matrix(1 0 0 -1 0 148)">
		<stop  offset="8.000000e-02" style="stop-color:#FF7BAC;stop-opacity:0"/>
		<stop  offset="0.88" style="stop-color:#FF7BAC"/>
	</linearGradient>
	<path style="fill:url(#SVGID_00000074414403670913324050000007964106030068673665_);" d="M384.6,60.4c-3.1,0-5.6-0.9-7.3-2.6
		c-1.7-1.7-2.6-4.5-2.6-8.4v-20h-5.2v-5.6h5.2v-9h8.2v9h7.1v5.6H383v20c-0.1,1.2,0.3,2.5,1.1,3.5c0.8,0.8,1.8,1.2,2.8,1.2l0.2,0
		c0.7,0,1.4-0.1,2-0.1c0.5-0.1,0.9-0.1,1.3-0.2l0.8,5.6c-1,0.3-1.9,0.5-2.9,0.6C387,60.3,385.9,60.4,384.6,60.4L384.6,60.4z"/>
	<path class="st3" d="M382.5,15.3v8v1h1h6.1v4.6h-6.1h-1v1v19.5c-0.1,1.4,0.3,2.8,1.2,3.9l0,0l0,0c0.8,0.8,2,1.3,3.1,1.3
		c0.1,0,0.1,0,0.2,0c0.7,0,1.4-0.1,2.1-0.1c0.3,0,0.5-0.1,0.8-0.1l0.6,4.7c-0.8,0.2-1.6,0.4-2.5,0.5c-1.1,0.2-2.3,0.3-3.4,0.3
		l-0.1,0c-3,0-5.3-0.8-6.9-2.5c-1.6-1.6-2.4-4.3-2.4-8V29.9v-1h-1h-4.2v-4.6h4.2h1v-1v-8H382.5 M383.5,14.3h-9.2v9h-5.2v6.6h5.2
		v19.5c0,4,0.9,6.9,2.7,8.7c1.8,1.8,4.3,2.8,7.6,2.8c0,0,0.1,0,0.1,0c1.2,0,2.4-0.1,3.6-0.3c1.1-0.2,2.3-0.4,3.4-0.8l-0.9-6.6
		c-0.5,0.1-1.1,0.2-1.8,0.3c-0.7,0.1-1.3,0.1-2,0.1c0,0-0.1,0-0.1,0c-0.9,0-1.8-0.4-2.4-1c-0.7-0.9-1.1-2.1-1-3.2V29.9h7.1v-6.6
		h-7.1V14.3L383.5,14.3z"/>
</g>
<g>
	
		<linearGradient id="SVGID_00000137093974653373756390000000003427719849744060_" gradientUnits="userSpaceOnUse" x1="26.433" y1="106.1509" x2="556.2814" y2="106.1509" gradientTransform="matrix(1 0 0 -1 0 148)">
		<stop  offset="8.000000e-02" style="stop-color:#FF7BAC;stop-opacity:0"/>
		<stop  offset="0.88" style="stop-color:#FF7BAC"/>
	</linearGradient>
	<path style="fill:url(#SVGID_00000137093974653373756390000000003427719849744060_);" d="M407.7,60.5c-3.6,0-6.4-0.9-8.4-2.8
		c-2.1-2-3.2-4.7-3-7.6c-0.1-3.2,1.4-6.3,4-8.1c2.7-2.1,6.8-3.2,12-3.2h5.8v-3.4c0.1-1.8-0.6-3.5-1.8-4.9c-1.3-1.2-3-1.9-4.8-1.9
		c-0.2,0-0.3,0-0.5,0l-0.1,0c-1.1,0-2.1,0.2-3.1,0.5c-0.9,0.3-1.8,0.7-2.6,1.3l-0.2,0.1l-0.7,4.7h-5.8l-0.1-8.6
		c1.8-1.1,3.8-1.9,5.8-2.6c2.2-0.7,4.6-1,6.9-1l0.4,0c4.6,0,8.3,1.1,10.9,3.2c2.6,2.1,3.9,5.2,3.9,9.1v17.1c0,0.5,0.1,1,0.1,1.5
		l0.1,0.4l3.7,0.5v4.7h-10.9c-0.2-0.6-0.4-1.2-0.6-1.8c-0.2-0.7-0.4-1.4-0.4-2.1l-0.1-1.2l-0.7,0.9c-1.1,1.5-2.5,2.7-4.2,3.6
		c-1.6,0.9-3.5,1.4-5.4,1.4L407.7,60.5z M411.7,43.6c-1.9,0-3.7,0.6-5.1,1.8c-1.3,1.1-2,2.6-2,4.3c-0.1,1.3,0.5,2.6,1.5,3.6
		c1.1,0.8,2.3,1.3,3.6,1.3c0.1,0,0.3,0,0.4,0c0,0,0,0,0,0c1.6,0,3.2-0.4,4.6-1.1c1.3-0.7,2.5-1.7,3.3-2.9l0.1-0.1v-6.7h-5.8
		C412.1,43.6,411.9,43.6,411.7,43.6z"/>
	<path class="st3" d="M411.1,23.7c0.1,0,0.3,0,0.4,0c4.5,0,8.1,1,10.6,3.1c2.5,2,3.7,4.9,3.7,8.8v15.7l0,1.5c0,0.5,0.1,1,0.1,1.5
		l0.1,0.7l0.7,0.1l2.9,0.4v3.7h-10c-0.2-0.5-0.3-0.9-0.5-1.4c-0.2-0.7-0.3-1.4-0.4-2.1l-0.3-2.4l-1.5,1.9c-1.1,1.4-2.5,2.6-4,3.4
		c-1.6,0.9-3.3,1.3-5.1,1.3l-0.2,0c-3.4,0-6.2-0.9-8.1-2.6c-2-1.9-3-4.5-2.9-7.2l0,0l0,0c-0.1-3,1.3-5.9,3.8-7.7c2.6-2,6.6-3,11.7-3
		h5.2h1v-1l0-2.9c0.1-1.9-0.6-3.8-1.9-5.2l0,0l0,0c-1.4-1.3-3.2-2-5.1-2c-0.2,0-0.3,0-0.5,0l-0.1,0c-1.1,0-2.2,0.2-3.2,0.5
		c-1,0.3-1.9,0.8-2.8,1.4l-0.3,0.2l-0.1,0.4l-0.6,4.1h-4.9l-0.1-7.8c1.7-1,3.6-1.8,5.4-2.4C406.5,24,408.8,23.7,411.1,23.7
		 M404,49.7c-0.1,1.5,0.5,2.9,1.6,3.9l0,0l0,0c1.1,0.9,2.5,1.3,3.9,1.3c0.1,0,0.3,0,0.4,0l0,0c1.7,0,3.4-0.4,4.8-1.2
		c1.4-0.7,2.6-1.8,3.5-3.1l0.2-0.3v-0.3v-6v-1h-1h-5.3c-0.2,0-0.4,0-0.6,0c-2,0-3.9,0.7-5.5,1.9C404.8,46.2,404,47.9,404,49.7
		 M411.1,22.7c-2.4,0-4.8,0.3-7.1,1c-2.2,0.7-4.2,1.6-6.2,2.8l0.1,9.3h6.7l0.8-4.9c0.7-0.5,1.6-0.9,2.5-1.2c1-0.3,2-0.4,3-0.4
		c0.1,0,0.1,0,0.2,0c0.2,0,0.3,0,0.5,0c1.6,0,3.2,0.6,4.4,1.7c1.1,1.2,1.7,2.8,1.7,4.5v2.9h-5.2c-5.3,0-9.4,1.1-12.3,3.2
		c-2.7,2-4.3,5.2-4.2,8.5c-0.2,3,1,5.9,3.2,8c2.1,1.9,5,2.9,8.8,2.9c0.1,0,0.1,0,0.2,0c2,0,3.9-0.5,5.6-1.5c1.7-0.9,3.1-2.2,4.3-3.7
		c0.1,0.8,0.2,1.5,0.5,2.2c0.2,0.7,0.5,1.5,0.7,2.2h11.7v-5.6l-3.8-0.5c-0.1-0.5-0.1-0.9-0.1-1.4c0-0.5,0-1,0-1.5V35.6
		c0-4.1-1.4-7.3-4.1-9.5s-6.5-3.3-11.2-3.3C411.3,22.7,411.2,22.7,411.1,22.7L411.1,22.7z M409.6,54c-1.2,0-2.4-0.4-3.3-1.1
		c-0.9-0.8-1.4-2-1.3-3.2c0-1.5,0.7-2.9,1.8-3.9c1.4-1.1,3.1-1.7,4.8-1.7c0.2,0,0.4,0,0.6,0h5.3v6c-0.8,1.2-1.9,2.1-3.1,2.8
		c-1.3,0.7-2.8,1.1-4.4,1.1c0,0,0,0-0.1,0C409.9,54,409.8,54,409.6,54L409.6,54z"/>
</g>
<g>
	
		<linearGradient id="SVGID_00000183245366665981839760000002210225440606015641_" gradientUnits="userSpaceOnUse" x1="29.9952" y1="106.1494" x2="556.7152" y2="106.1494" gradientTransform="matrix(1 0 0 -1 0 148)">
		<stop  offset="8.000000e-02" style="stop-color:#FF7BAC;stop-opacity:0"/>
		<stop  offset="0.88" style="stop-color:#FF7BAC"/>
	</linearGradient>
	<path style="fill:url(#SVGID_00000183245366665981839760000002210225440606015641_);" d="M450,60.5c-2.4,0-4.8-0.3-7.2-0.8
		c-2.2-0.5-4.4-1.2-6.4-2.1l-0.1-9.3h5.6l1.3,5.2l0.2,0.1c0.9,0.4,1.9,0.8,2.9,1c1.1,0.2,2.2,0.4,3.2,0.4l0.2,0
		c2.5,0,4.2-0.4,5.3-1.3c0.9-0.7,1.4-1.6,1.6-2.7c0.2-1.1-0.1-2.2-0.8-3.1c-0.3-0.3-0.6-0.6-0.9-0.9c-1.1-0.9-3.1-1.6-6.1-2.2
		c-4.3-1-7.5-2.4-9.5-4.2c-1.9-1.7-3-4.2-2.9-6.8c0-1.9,0.5-3.7,1.5-5.3c1.1-1.7,2.7-3,4.5-3.8c2.3-1,4.7-1.5,7.1-1.5
		c0.2,0,0.4,0,0.6,0l0.4,0c2.4,0,4.8,0.3,7.1,0.8c1.8,0.4,3.6,1.1,5.3,2l0.2,8.9h-5.6l-1-4.7l-0.2-0.1c-0.8-0.5-1.6-0.9-2.5-1.2
		c-1-0.3-2-0.4-3-0.4l-0.2,0c-0.1,0-0.3,0-0.4,0c-1.5,0-2.9,0.4-4.1,1.3c-1.1,0.8-1.7,2-1.7,3.3c0,0.7,0.2,1.5,0.6,2.1
		c0.6,0.8,1.3,1.4,2.2,1.8c1.4,0.6,2.9,1.1,4.4,1.4c4.6,1,7.9,2.4,9.9,4.2c2,1.7,3.1,4.2,2.9,6.8c0.1,3.1-1.2,5.9-3.5,7.9
		c-2.3,2.1-6,3.1-10.8,3.1L450,60.5z"/>
	<path class="st3" d="M449.6,23.7c0.2,0,0.4,0,0.6,0l0.3,0c2.3,0,4.7,0.3,7,0.8c1.7,0.4,3.4,1,4.9,1.8l0.1,8.1h-4.7l-0.9-4.1
		l-0.1-0.4l-0.3-0.2c-0.8-0.6-1.7-1-2.6-1.3c-1-0.3-2.1-0.4-3.1-0.4l-0.1,0c-0.1,0-0.3,0-0.4,0c-1.6,0-3.1,0.5-4.4,1.4
		c-1.2,0.9-1.9,2.3-1.9,3.7c0,0.8,0.2,1.7,0.7,2.4l0,0l0,0c0.6,0.9,1.5,1.5,2.4,1.9c1.5,0.7,3,1.1,4.5,1.4c4.5,1,7.8,2.4,9.7,4
		c1.9,1.6,2.9,4,2.8,6.4l0,0l0,0c0.1,2.9-1.1,5.6-3.3,7.4c-2.2,2-5.7,3-10.4,3l-0.3,0c-2.4,0-4.8-0.2-7.1-0.7
		c-2.1-0.5-4.1-1.1-6.1-2l-0.1-8.4h4.7l1.1,4.6l0.1,0.5l0.4,0.2c1,0.5,2,0.8,3,1.1c1.1,0.2,2.2,0.4,3.3,0.4l0.2,0
		c2.6,0,4.4-0.5,5.6-1.4c1-0.8,1.6-1.8,1.8-3.1c0.2-1.2-0.2-2.5-0.9-3.5c-0.3-0.4-0.6-0.7-1-1c-1.2-0.9-3.2-1.7-6.3-2.3
		c-4.2-1-7.3-2.3-9.3-4.1c-1.8-1.6-2.8-4-2.8-6.5c0-1.8,0.5-3.5,1.4-5c1.1-1.6,2.6-2.9,4.3-3.6C444.8,24.2,447.2,23.7,449.6,23.7
		 M449.6,22.7c-2.5,0-5,0.5-7.3,1.5c-1.9,0.9-3.6,2.2-4.8,4c-1.1,1.7-1.6,3.6-1.6,5.6c-0.1,2.7,1.1,5.4,3.1,7.2
		c2.1,1.9,5.3,3.3,9.7,4.3c2.9,0.6,4.9,1.3,5.9,2.2c0.3,0.2,0.6,0.5,0.8,0.8c1.2,1.6,0.9,3.9-0.7,5.1c-1,0.8-2.7,1.2-5,1.2
		c-0.1,0-0.1,0-0.2,0c-1,0-2.1-0.1-3.1-0.3c-1-0.2-1.9-0.6-2.8-1l-1.3-5.3h-6.5l0.1,10.1c2.2,1,4.5,1.7,6.8,2.3
		c2.4,0.5,4.8,0.8,7.3,0.8c0.1,0,0.2,0,0.3,0c5,0,8.7-1.1,11.1-3.2c2.4-2,3.8-5.1,3.7-8.2c0.1-2.8-1-5.4-3.1-7.2
		c-2.1-1.8-5.5-3.2-10.1-4.3c-1.5-0.3-3-0.8-4.4-1.4c-0.8-0.3-1.5-0.9-2-1.6c-0.3-0.6-0.5-1.2-0.5-1.9c0-1.2,0.6-2.3,1.5-2.9
		c1.1-0.8,2.5-1.2,3.8-1.2c0.1,0,0.3,0,0.4,0c0,0,0.1,0,0.1,0c1,0,1.9,0.1,2.9,0.4c0.8,0.2,1.6,0.6,2.3,1.1l1.1,4.9h6.5l-0.2-9.8
		c-1.8-1-3.7-1.7-5.7-2.2c-2.4-0.6-4.8-0.9-7.2-0.9c-0.1,0-0.2,0-0.3,0C450,22.7,449.8,22.7,449.6,22.7L449.6,22.7z"/>
</g>
<g>
	
		<linearGradient id="SVGID_00000149343875741482414380000004664111633509526710_" gradientUnits="userSpaceOnUse" x1="26.3557" y1="33.6248" x2="558.8098" y2="33.6248">
		<stop  offset="8.000000e-02" style="stop-color:#FF7BAC;stop-opacity:0"/>
		<stop  offset="0.88" style="stop-color:#FF7BAC"/>
	</linearGradient>
	<polygon style="fill:url(#SVGID_00000149343875741482414380000004664111633509526710_);" points="469.8,55.1 474.8,54.1 
		474.8,13.3 469.4,12.3 469.4,7.5 483,7.5 483,40.8 494.6,29.9 495.4,29.1 491.1,28.5 491.1,23.8 508.6,23.8 508.6,28.6 504.1,29.7 
		494.2,38.8 505.9,54.1 510.4,55 510.4,59.7 493.3,59.7 493.3,55.3 496.6,54.6 496.2,53.9 488.7,43.8 483,49 483,54 487.6,55 
		487.6,59.7 469.8,59.7 	"/>
	<path class="st3" d="M482.5,8v31.6v2.3l1.7-1.6l10.8-10l0,0l0,0l0.1-0.1l1.2-1.4l-1.8-0.2l-3-0.4v-3.7h16.5v3.9l-4,1l-0.2,0.1
		l-0.2,0.2l-9.5,8.7l-0.7,0.6l0.6,0.7l11.4,14.8l0.2,0.3l0.4,0.1l3.9,0.8v3.8l-16.1,0v-3.6l2.2-0.5l1.3-0.3l-0.6-1.2l-0.1-0.1l0-0.1
		l0-0.1l-7.2-9.6l-0.7-0.9l-0.8,0.7l-5.1,4.6l-0.3,0.3v0.4v4.4v0.8l0.8,0.2l3.8,0.8v3.8l-16.8,0v-3.8l4.2-0.8l0.8-0.2v-0.8v-40v-0.8
		l-0.8-0.2l-4.5-0.8V8H482.5 M483.5,7h-14.6v5.7l5.4,1v40l-5,1v5.6l18.8,0v-5.6l-4.6-1v-4.4l5.1-4.6l7.2,9.6l0.1,0.1l-3,0.6v5.4
		l18.1,0v-5.6l-4.7-1l-11.4-14.8l9.5-8.7l4.7-1.2v-5.7h-18.5v5.6l3.8,0.5l-0.1,0.1l-10.8,10V7L483.5,7z"/>
</g>
<g>
	
		<linearGradient id="SVGID_00000053528046897779363250000011651740690495538101_" gradientUnits="userSpaceOnUse" x1="32.7115" y1="106.157" x2="559.4573" y2="106.157" gradientTransform="matrix(1 0 0 -1 0 148)">
		<stop  offset="8.000000e-02" style="stop-color:#FF7BAC;stop-opacity:0"/>
		<stop  offset="0.88" style="stop-color:#FF7BAC"/>
	</linearGradient>
	<path style="fill:url(#SVGID_00000053528046897779363250000011651740690495538101_);" d="M529.6,60.5c-4.6,0-9.2-1-13.4-2.8
		l-0.1-9.3h5.7l1.3,5.2l0.2,0.1c0.9,0.4,1.9,0.8,2.9,1c1.1,0.2,2.2,0.4,3.2,0.4l0.2,0c2.5,0,4.2-0.4,5.3-1.3
		c1.1-0.8,1.7-2.1,1.6-3.4c0-1.3-0.7-2.6-1.7-3.4c-1.1-0.9-3.1-1.6-6.1-2.2c-4.3-0.9-7.5-2.3-9.5-4.1c-1.9-1.7-3-4.2-2.9-6.8
		c0-1.9,0.5-3.7,1.5-5.3c1.1-1.7,2.7-3,4.5-3.8c2.3-1,4.7-1.5,7.2-1.5c0.2,0,0.3,0,0.5,0l0.4,0c2.4,0,4.8,0.3,7.1,0.8
		c1.8,0.4,3.6,1.1,5.3,2l0.2,8.9h-5.6l-1-4.6l-0.2-0.1c-0.8-0.5-1.6-0.9-2.5-1.2c-1-0.3-2-0.4-3-0.4l-0.1,0c-0.1,0-0.3,0-0.4,0
		c-1.5,0-2.9,0.4-4.1,1.3c-1.1,0.8-1.7,2-1.7,3.3c0,0.7,0.2,1.5,0.6,2.1c0.6,0.8,1.3,1.4,2.2,1.8c1.4,0.6,2.9,1.1,4.4,1.4
		c4.6,1,7.9,2.4,9.9,4.2c2,1.7,3.1,4.2,3,6.8c0.1,3.1-1.2,5.9-3.5,7.9c-2.4,2.1-6,3.1-10.8,3.1L529.6,60.5z"/>
	<path class="st3" d="M529.5,23.7c0.2,0,0.3,0,0.5,0l0.3,0c2.4,0,4.7,0.3,7,0.8c1.7,0.4,3.4,1,4.9,1.8l0.1,8.1h-4.7l-0.8-4l-0.1-0.4
		l-0.3-0.2c-0.8-0.6-1.7-1-2.6-1.3c-1-0.3-2.1-0.4-3.1-0.4l-0.1,0c-0.1,0-0.3,0-0.4,0c-1.6,0-3.1,0.5-4.4,1.4
		c-1.2,0.9-2,2.3-1.9,3.7c0,0.8,0.2,1.7,0.7,2.4l0,0l0,0c0.6,0.9,1.5,1.5,2.4,1.9c1.5,0.7,3,1.1,4.5,1.4c4.5,1,7.8,2.4,9.7,4
		c1.9,1.6,2.9,4,2.8,6.4l0,0l0,0c0.1,2.9-1.1,5.6-3.3,7.4c-2.3,2-5.8,3-10.5,3c-0.2,0-0.3,0-0.5,0c-4.5,0-8.8-0.9-12.9-2.7l-0.1-8.4
		h4.8l1.1,4.6l0.1,0.5l0.4,0.2c1,0.5,2,0.8,3,1.1c1.1,0.2,2.2,0.4,3.3,0.4l0.2,0c2.6,0,4.4-0.5,5.6-1.4c1.2-0.9,1.9-2.3,1.8-3.8
		c0-1.5-0.7-2.9-1.9-3.8c-1.2-0.9-3.2-1.7-6.3-2.3c-4.2-0.9-7.3-2.2-9.3-4c-1.8-1.6-2.8-4-2.8-6.5c0-1.8,0.5-3.5,1.4-5
		c1.1-1.6,2.6-2.9,4.3-3.6C524.7,24.2,527.1,23.7,529.5,23.7 M529.5,22.7c-2.5,0-5.1,0.5-7.4,1.5c-1.9,0.9-3.6,2.2-4.8,4
		c-1.1,1.7-1.6,3.6-1.6,5.6c-0.1,2.7,1.1,5.4,3.1,7.2c2.1,1.9,5.3,3.3,9.7,4.2c2.9,0.6,4.9,1.3,5.9,2.2c1,0.7,1.5,1.8,1.5,3
		c0,1.2-0.5,2.3-1.5,3c-1,0.8-2.7,1.2-5,1.2c-0.1,0-0.1,0-0.2,0c-1.1,0-2.1-0.1-3.1-0.3c-1-0.2-1.9-0.6-2.8-1l-1.3-5.3h-6.5
		l0.1,10.1c4.4,2,9.1,3,13.9,3c0.2,0,0.3,0,0.5,0c4.9,0,8.7-1.1,11.1-3.2c2.4-2,3.8-5.1,3.7-8.2c0.1-2.8-1-5.4-3.1-7.2
		c-2.1-1.8-5.5-3.2-10.1-4.3c-1.5-0.3-3-0.8-4.3-1.4c-0.8-0.3-1.5-0.9-2-1.6c-0.3-0.6-0.5-1.2-0.5-1.9c0-1.2,0.6-2.3,1.5-2.9
		c1.1-0.8,2.5-1.2,3.8-1.2c0.1,0,0.3,0,0.4,0c0,0,0.1,0,0.1,0c1,0,1.9,0.1,2.9,0.4c0.8,0.2,1.6,0.6,2.3,1.1l1,4.8h6.5l-0.2-9.8
		c-1.8-1-3.7-1.7-5.7-2.2c-2.4-0.6-4.8-0.9-7.2-0.9c-0.1,0-0.2,0-0.3,0C529.8,22.7,529.6,22.7,529.5,22.7L529.5,22.7z"/>
</g>
<g>
	
		<linearGradient id="SVGID_00000172403528127285658390000010098783778498061203_" gradientUnits="userSpaceOnUse" x1="71.2831" y1="85.8667" x2="559.9902" y2="85.8667" gradientTransform="matrix(1 0 0 -1 0 148)">
		<stop  offset="8.000000e-02" style="stop-color:#FF7BAC;stop-opacity:0"/>
		<stop  offset="0.88" style="stop-color:#FF7BAC"/>
	</linearGradient>
	<path style="fill:url(#SVGID_00000172403528127285658390000010098783778498061203_);" d="M549.8,69.4c0.8-1.5,1.4-3,1.9-4.6
		c0.5-1.9,0.8-3.8,0.8-5.8v-6.5h7.5v6.1c0,2.5-0.6,5-1.8,7.2c-1.1,2.2-2.6,4.1-4.4,5.8L549.8,69.4z"/>
	<path class="st3" d="M559.5,53.1v5.6c0,2.4-0.6,4.9-1.8,7c-1,2-2.4,3.8-4,5.4l-3.2-1.8c0.7-1.4,1.3-2.8,1.7-4.3
		c0.5-1.9,0.8-3.9,0.8-5.9v-6H559.5 M560.5,52.1H552v7c0,1.9-0.2,3.8-0.8,5.6c-0.5,1.7-1.2,3.4-2.1,4.9l4.7,2.7
		c2-1.7,3.6-3.8,4.8-6.1c1.2-2.3,1.9-4.9,1.9-7.5V52.1L560.5,52.1z"/>
</g>
<g>
	
		<linearGradient id="SVGID_00000034047631805636966990000000647964886185712545_" gradientUnits="userSpaceOnUse" x1="15.3244" y1="45.6343" x2="542.05" y2="45.6343" gradientTransform="matrix(1 0 0 -1 0 148)">
		<stop  offset="8.000000e-02" style="stop-color:#FF7BAC;stop-opacity:0"/>
		<stop  offset="0.88" style="stop-color:#FF7BAC"/>
	</linearGradient>
	<path style="fill:url(#SVGID_00000034047631805636966990000000647964886185712545_);" d="M22.4,121c-4.7,0-9.2-1-13.5-2.8l-0.1-9.3
		h5.7l1.3,5.2l0.2,0.1c0.9,0.4,1.9,0.8,2.9,1c1.1,0.2,2.2,0.4,3.3,0.4l0.1,0c2.5,0,4.2-0.4,5.3-1.3c1.1-0.8,1.7-2.1,1.6-3.4
		c0-1.3-0.6-2.6-1.7-3.4c-1.1-0.9-3.1-1.6-6.1-2.3c-4.3-0.9-7.5-2.3-9.5-4.1c-1.9-1.7-3-4.2-2.9-6.8c0-1.9,0.5-3.7,1.5-5.3
		c1.1-1.7,2.7-3,4.5-3.8c2.3-1,4.7-1.5,7.2-1.5c0.2,0,0.4,0,0.6,0l0.3,0c2.4,0,4.8,0.3,7.1,0.8c1.9,0.4,3.6,1.1,5.3,2l0.1,8.9H30
		l-1-4.6l-0.2-0.1c-0.8-0.5-1.6-0.9-2.5-1.2c-1-0.3-2-0.4-3-0.4l-0.2,0c-0.1,0-0.2,0-0.4,0c-1.5,0-2.9,0.4-4.1,1.3
		c-1.1,0.8-1.8,2-1.7,3.3c0,0.7,0.2,1.5,0.6,2.1c0.6,0.8,1.3,1.4,2.2,1.8c1.4,0.6,2.9,1.1,4.4,1.4c4.6,1,7.9,2.4,9.9,4.2
		c2,1.7,3.1,4.2,2.9,6.8c0.1,3.1-1.2,5.9-3.5,7.9c-2.4,2-6,3.1-10.8,3.1L22.4,121z"/>
	<path class="st3" d="M22.1,84.2c0.2,0,0.4,0,0.7,0l0.3,0c2.4,0,4.7,0.3,7,0.8c1.7,0.4,3.4,1,4.9,1.8l0.1,8.1h-4.7l-0.9-4.1
		l-0.1-0.4l-0.3-0.2c-0.8-0.6-1.7-1-2.6-1.3c-1-0.3-2.1-0.4-3.1-0.4l-0.1,0c-0.1,0-0.3,0-0.4,0c-1.6,0-3.1,0.5-4.4,1.4
		c-1.2,0.9-2,2.3-2,3.7c0,0.8,0.2,1.7,0.7,2.4l0,0l0,0c0.6,0.9,1.5,1.5,2.4,1.9c1.5,0.7,3,1.1,4.5,1.5c4.5,1,7.8,2.4,9.7,4
		c1.9,1.6,2.9,4,2.8,6.4l0,0l0,0c0.1,2.9-1.1,5.6-3.3,7.4c-2.3,1.9-5.8,2.9-10.5,2.9l-0.4,0c-4.5,0-8.9-0.9-13-2.7l-0.1-8.4h4.8
		l1.1,4.6l0.1,0.5l0.4,0.2c1,0.5,2,0.8,3,1.1c1.1,0.2,2.3,0.4,3.4,0.4l0.1,0c2.6,0,4.4-0.5,5.6-1.4c1.2-0.9,1.9-2.3,1.8-3.8
		c0-1.5-0.7-2.9-1.9-3.8c-1.2-0.9-3.2-1.7-6.3-2.4c-4.2-0.9-7.3-2.2-9.2-4c-1.8-1.6-2.8-4-2.8-6.5c0-1.8,0.4-3.5,1.4-5
		c1.1-1.6,2.6-2.9,4.3-3.6C17.4,84.7,19.7,84.2,22.1,84.2 M22.1,83.2c-2.5,0-5,0.5-7.4,1.5c-1.9,0.9-3.6,2.2-4.8,4
		c-1,1.7-1.6,3.6-1.5,5.5c-0.1,2.7,1.1,5.4,3.1,7.2c2.1,1.9,5.3,3.3,9.7,4.2c2.9,0.6,4.9,1.3,5.9,2.2c1,0.7,1.5,1.8,1.5,3
		c0,1.2-0.5,2.3-1.5,3c-1,0.8-2.7,1.2-5,1.2c0,0-0.1,0-0.1,0c-1.1,0-2.1-0.1-3.2-0.3c-1-0.2-1.9-0.6-2.8-1l-1.3-5.3H8.3l0.1,10.1
		c4.4,2,9.2,3,14,3c0.1,0,0.3,0,0.4,0c5,0,8.7-1.1,11.1-3.2c2.4-2,3.8-5.1,3.7-8.2c0.1-2.8-1-5.4-3.1-7.2c-2.1-1.8-5.5-3.2-10.1-4.3
		c-1.5-0.3-2.9-0.8-4.3-1.4c-0.8-0.3-1.5-0.9-2-1.6c-0.3-0.6-0.5-1.2-0.5-1.9c0-1.2,0.6-2.3,1.5-2.9c1.1-0.8,2.5-1.2,3.9-1.2
		c0.1,0,0.2,0,0.4,0c0,0,0.1,0,0.1,0c1,0,1.9,0.1,2.9,0.4c0.8,0.2,1.6,0.6,2.3,1.1l1.1,4.8h6.5L36,86.3c-1.8-1-3.7-1.7-5.7-2.2
		c-2.4-0.6-4.8-0.9-7.2-0.9c-0.1,0-0.2,0-0.3,0C22.5,83.2,22.3,83.2,22.1,83.2L22.1,83.2z"/>
</g>
<g>
	
		<linearGradient id="SVGID_00000103984870535252907370000017821849862612802212_" gradientUnits="userSpaceOnUse" x1="16.2403" y1="38.9004" x2="547.4222" y2="38.9004" gradientTransform="matrix(1 0 0 -1 0 148)">
		<stop  offset="8.000000e-02" style="stop-color:#FF7BAC;stop-opacity:0"/>
		<stop  offset="0.88" style="stop-color:#FF7BAC"/>
	</linearGradient>
	<path style="fill:url(#SVGID_00000103984870535252907370000017821849862612802212_);" d="M42.4,134.5v-4.7l4.9-1V90.1l-5.4-1v-4.7
		h12.9l0.6,5.3l0.8-1.2c1.9-3,5.2-4.8,8.8-4.8c0.2,0,0.3,0,0.5,0l0.4,0c2.5,0,5,0.8,7,2.3c2.1,1.7,3.8,4,4.7,6.6
		c1.2,3.2,1.8,6.6,1.7,10.1v0.7c0.1,3.2-0.5,6.3-1.7,9.3c-1,2.5-2.6,4.6-4.7,6.1c-2.1,1.4-4.5,2.2-7,2.2c-0.1,0-0.2,0-0.4,0l-0.3,0
		c-1.7,0-3.4-0.4-4.9-1c-1.5-0.7-2.8-1.8-3.8-3.1l-0.9-1.2v13l5.1,1v4.8H42.4z M62.6,114.9c0.2,0,0.3,0,0.5,0c2.4,0,4.6-1.2,5.9-3.2
		c1.4-2.5,2.1-5.4,2-8.3l0-0.7c0-2.2-0.3-4.4-0.9-6.5c-0.5-1.7-1.4-3.3-2.7-4.5c-1.3-1.1-2.9-1.7-4.5-1.7c-0.1,0-0.4,0-0.4,0
		c-1.4,0-2.7,0.4-3.9,1.1c-1.2,0.7-2.2,1.8-2.8,3l-0.1,0.1v16.8l0.1,0.1c0.7,1.2,1.6,2.1,2.8,2.8c1.1,0.6,2.4,1,3.7,1L62.6,114.9z"
		/>
	<path class="st3" d="M65,84.2c0.1,0,0.3,0,0.4,0l0,0l0,0c0.1,0,0.2,0,0.3,0c2.4,0,4.8,0.8,6.7,2.2c2.1,1.7,3.6,3.9,4.5,6.4
		c1.2,3.2,1.7,6.5,1.6,9.9l0,0.7c0.1,3.1-0.5,6.2-1.6,9.1c-0.9,2.4-2.5,4.4-4.5,5.9c-2,1.4-4.3,2.1-6.8,2.1c-0.1,0-0.2,0-0.3,0l0,0
		l0,0c-0.1,0-0.2,0-0.3,0c-1.6,0-3.2-0.3-4.7-1c-1.4-0.7-2.7-1.7-3.6-2.9l-1.8-2.3v2.9v11.1v0.8l0.8,0.2l4.2,0.8v3.9H42.9v-3.8
		l4.1-0.8l0.8-0.2v-0.8V90.5v-0.8L47,89.5l-4.6-0.8v-3.8h11.9l0.4,3.4l0.3,2.8l1.5-2.3C58.5,85.9,61.6,84.2,65,84.2 M62.6,89.4
		c-0.1,0-0.1,0-0.2,0c-1.5,0-2.9,0.4-4.2,1.2c-1.3,0.8-2.3,1.9-3,3.2L55.1,94v0.2v16.6v0.3l0.1,0.2c0.7,1.3,1.8,2.3,3,3
		c1.1,0.6,2.2,0.9,3.4,1v0l0,0c0.1,0,0.3,0,0.4,0l0.5,0c0.2,0,0.3,0,0.5,0c2.6,0,4.9-1.3,6.3-3.5l0,0l0,0c1.5-2.6,2.2-5.6,2-8.5
		l0-0.7c0-2.3-0.3-4.5-0.9-6.7c-0.5-1.8-1.5-3.5-2.9-4.8c-1.3-1.2-3.1-1.8-4.8-1.8C62.7,89.4,62.6,89.4,62.6,89.4 M65,83.2
		c-3.7,0-7.2,1.9-9.2,5l-0.5-4.3H41.4v5.7l5.4,1v37.9l-4.9,1v5.6h19.2v-5.7l-5-1v-11.1c1.1,1.4,2.4,2.5,4,3.2
		c1.6,0.7,3.3,1.1,5.1,1.1c0.1,0,0.2,0,0.3,0c0.1,0,0.2,0,0.4,0c2.6,0,5.2-0.8,7.3-2.3c2.2-1.6,3.9-3.8,4.9-6.3
		c1.2-3,1.8-6.3,1.7-9.5v-0.7c0.1-3.5-0.5-7-1.7-10.2c-0.9-2.7-2.6-5.1-4.9-6.8c-2.1-1.6-4.7-2.4-7.3-2.4c-0.1,0-0.2,0-0.3,0
		C65.3,83.2,65.2,83.2,65,83.2L65,83.2z M62.6,90.4c0.1,0,0.2,0,0.2,0c1.5,0,3,0.6,4.2,1.6c1.2,1.2,2.1,2.6,2.6,4.3
		c0.6,2.1,0.9,4.2,0.8,6.4v0.7c0.1,2.8-0.5,5.6-1.9,8c-1.2,1.9-3.3,3-5.5,3c-0.1,0-0.3,0-0.4,0l0,0c-0.1,0-0.1,0-0.2,0
		c-1.3,0-2.6-0.3-3.8-1c-1.1-0.6-2-1.5-2.6-2.6V94.2c0.6-1.2,1.5-2.1,2.6-2.8c1.1-0.7,2.4-1,3.7-1C62.4,90.4,62.5,90.4,62.6,90.4
		L62.6,90.4z"/>
</g>
<g>
	
		<linearGradient id="SVGID_00000092445338496926298400000010391784813583335063_" gradientUnits="userSpaceOnUse" x1="19.037" y1="53.8154" x2="536.5561" y2="53.8154" gradientTransform="matrix(1 0 0 -1 0 148)">
		<stop  offset="8.000000e-02" style="stop-color:#FF7BAC;stop-opacity:0"/>
		<stop  offset="0.88" style="stop-color:#FF7BAC"/>
	</linearGradient>
	<path style="fill:url(#SVGID_00000092445338496926298400000010391784813583335063_);" d="M84,115.6l5-1V90.1l-5.4-1v-4.7h13.6v30.2
		l4.9,1v4.7l-18.2,0V115.6z M88.6,75.3v-7.2h8.6v7.2L88.6,75.3z"/>
	<path class="st3" d="M96.8,68.6v6.2l-7.6,0v-6.2H96.8 M96.8,84.9v29.3v0.8l0.8,0.2l4.1,0.8v3.8l-17.2,0V116l4.2-0.8l0.8-0.2v-0.8
		V90.5v-0.8l-0.8-0.2l-4.5-0.8v-3.8H96.8 M97.8,67.6h-9.6v8.2l9.6,0V67.6L97.8,67.6z M97.8,83.9H83.2v5.6l5.4,1v23.7l-5,1v5.6
		l19.2,0v-5.6l-4.9-1V83.9L97.8,83.9z"/>
</g>
<g>
	
		<linearGradient id="SVGID_00000132075986189842249700000009186049787881210529_" gradientUnits="userSpaceOnUse" x1="18.5183" y1="45.6475" x2="546.2386" y2="45.6475" gradientTransform="matrix(1 0 0 -1 0 148)">
		<stop  offset="8.000000e-02" style="stop-color:#FF7BAC;stop-opacity:0"/>
		<stop  offset="0.88" style="stop-color:#FF7BAC"/>
	</linearGradient>
	<path style="fill:url(#SVGID_00000132075986189842249700000009186049787881210529_);" d="M124.1,121c-0.2,0-0.4,0-0.6,0
		c-0.2,0-0.3,0-0.4,0c-3,0-5.9-0.8-8.4-2.3c-2.5-1.5-4.5-3.7-5.7-6.3c-1.4-2.9-2.1-6.2-2-9.4v-1.1c-0.1-3.2,0.6-6.5,2.1-9.4
		c1.3-2.6,3.3-4.8,5.7-6.4c2.5-1.5,5.4-2.3,8.3-2.3l0.4,0c0.2,0,0.4,0,0.5,0c2.7,0,5.3,0.5,7.8,1.5c2,0.8,3.9,2,5.5,3.4v9.5h-6.1
		l-1.3-6.3l-0.1-0.1c-0.7-0.7-1.5-1.2-2.4-1.5c-1-0.4-2-0.6-3-0.6l-0.3,0c-1.7,0-3.4,0.6-4.7,1.6c-1.4,1.1-2.5,2.6-3,4.3
		c-0.7,2-1.1,4.2-1,6.4v1.1c-0.1,2.2,0.3,4.4,1,6.6c0.6,1.6,1.6,3,3,4c1.3,0.9,2.8,1.4,4.4,1.4c1.7,0,3.4-0.5,4.7-1.6
		c1.2-1.1,2.1-2.5,2.4-4.1h7.1c-0.3,2.1-1,4.2-2.1,6.1c-1.1,1.8-2.7,3.3-4.6,4.2C128.9,120.5,126.6,121,124.1,121z"/>
	<path class="st3" d="M123.9,84.2c2.6,0,5.1,0.5,7.6,1.5c1.9,0.8,3.6,1.8,5.2,3.2v8.8h-5.2l-1.1-5.8l-0.1-0.3l-0.2-0.2
		c-0.7-0.7-1.6-1.3-2.6-1.7c-1-0.4-2.1-0.6-3.2-0.6c0,0,0,0,0,0c-0.1,0-0.2,0-0.3,0c-1.8,0-3.6,0.6-5,1.7c-1.5,1.2-2.6,2.7-3.2,4.5
		c-0.7,2.1-1.1,4.3-1.1,6.5l0,1.1c-0.1,2.3,0.3,4.6,1.1,6.8c0.6,1.7,1.7,3.2,3.2,4.3c1.4,0.9,3,1.4,4.7,1.4c1.8,0,3.6-0.6,5-1.7l0,0
		l0,0c1.2-1,2-2.4,2.4-3.9h6.1c-0.3,1.9-1,3.7-1.9,5.3c-1.1,1.7-2.6,3.1-4.4,4c-2.2,1-4.5,1.5-6.8,1.5c-0.2,0-0.4,0-0.6,0l0,0l0,0
		c-0.1,0-0.3,0-0.4,0c-2.9,0-5.7-0.8-8.1-2.2c-2.4-1.5-4.3-3.6-5.5-6.1c-1.4-2.9-2-6-2-9.2l0-1.1c-0.1-3.1,0.6-6.3,2-9.1
		c1.2-2.5,3.2-4.7,5.5-6.2c2.4-1.5,5.2-2.3,8.1-2.3c0.1,0,0.3,0,0.4,0C123.6,84.2,123.8,84.2,123.9,84.2 M123.9,83.2
		c-0.2,0-0.3,0-0.5,0c-0.1,0-0.3,0-0.4,0c-3,0-6,0.8-8.6,2.4c-2.5,1.6-4.6,3.9-5.9,6.6c-1.4,3-2.2,6.3-2.1,9.6v1.1
		c-0.1,3.3,0.6,6.6,2.1,9.7c1.3,2.7,3.4,5,5.9,6.6c2.6,1.6,5.6,2.4,8.7,2.4c0.1,0,0.3,0,0.4,0c0.2,0,0.4,0,0.6,0
		c2.5,0,5-0.5,7.3-1.6c2-1,3.7-2.5,4.9-4.4c1.2-2,1.9-4.3,2.2-6.6l-0.1-0.2h-7.9c-0.3,1.6-1.1,3.1-2.3,4.2c-1.3,1-2.9,1.5-4.4,1.5
		c-1.4,0-2.9-0.4-4.1-1.3c-1.3-1-2.3-2.3-2.8-3.8c-0.7-2.1-1.1-4.2-1-6.4v-1.1c0-2.1,0.3-4.2,1-6.2c0.5-1.6,1.5-3,2.9-4.1
		c1.3-0.9,2.8-1.5,4.4-1.5c0.1,0,0.2,0,0.2,0c0,0,0,0,0,0c1,0,1.9,0.2,2.9,0.5c0.8,0.3,1.6,0.8,2.2,1.4l1.3,6.6h7V88.4
		c-1.7-1.6-3.6-2.8-5.8-3.7C129.4,83.7,126.7,83.2,123.9,83.2L123.9,83.2z"/>
</g>
<g>
	
		<linearGradient id="SVGID_00000111177519798692610770000007806773301848895400_" gradientUnits="userSpaceOnUse" x1="19.5923" y1="45.6519" x2="547.8531" y2="45.6519" gradientTransform="matrix(1 0 0 -1 0 148)">
		<stop  offset="8.000000e-02" style="stop-color:#FF7BAC;stop-opacity:0"/>
		<stop  offset="0.88" style="stop-color:#FF7BAC"/>
	</linearGradient>
	<path style="fill:url(#SVGID_00000111177519798692610770000007806773301848895400_);" d="M160.3,121c-3,0-5.9-0.8-8.5-2.3
		c-2.5-1.5-4.5-3.6-5.9-6.2c-1.4-2.8-2.2-6-2.1-9.2v-1.4c-0.1-3.2,0.6-6.5,2-9.4c1.2-2.6,3.2-4.9,5.6-6.4c2.4-1.5,5.2-2.3,8-2.3
		l0.3,0c0.2,0,0.4,0,0.6,0c2.7,0,5.3,0.7,7.6,1.9c2.2,1.3,3.9,3.2,4.9,5.5c1.2,2.7,1.8,5.7,1.7,8.7v4.7h-22l-0.2,0.6l0,0.1
		c0.1,1.7,0.5,3.4,1.3,4.9c0.7,1.4,1.8,2.6,3.2,3.5c1.4,0.8,3,1.3,4.6,1.3l0.3,0l0.2,0c3.4,0,6.6-1,9.4-2.8l2.2,4.9
		c-1.6,1.2-3.3,2.1-5.2,2.8c-2.4,0.8-4.9,1.2-7.4,1.2l-0.4,0L160.3,121z M159.8,89.6c-1.3,0-2.6,0.4-3.7,1.2
		c-1.1,0.8-1.9,1.9-2.5,3.2c-0.6,1.4-1,2.9-1.2,4.4l0,0.2l0.4,0.5h14.1v-1.4c0-1.4-0.2-2.8-0.7-4.2c-0.4-1.2-1.2-2.2-2.3-2.9
		c-1.1-0.7-2.4-1.1-3.7-1.1L159.8,89.6z"/>
	<path class="st3" d="M160.4,84.2c2.6,0,5.1,0.7,7.4,1.9c2.1,1.2,3.7,3.1,4.7,5.3c1.2,2.7,1.7,5.6,1.7,8.5v4.2H153h-0.7l-0.2,0.7
		l-0.1,0.2l-0.1,0.2l0,0.2c0.1,1.8,0.5,3.5,1.3,5.1c0.8,1.5,1.9,2.8,3.4,3.7c1.5,0.9,3.2,1.3,4.9,1.3c0.1,0,0.2,0,0.3,0l0.3,0
		c3.3,0,6.4-0.9,9.2-2.5l1.8,4c-1.4,1-3,1.9-4.7,2.5c-2.3,0.8-4.8,1.2-7.2,1.2c-0.1,0-0.2,0-0.4,0c-0.1,0-0.3,0-0.4,0
		c-2.9,0-5.7-0.8-8.2-2.2c-2.4-1.4-4.4-3.5-5.7-6c-1.4-2.8-2.1-5.8-2-8.9l0-1.4c-0.1-3.2,0.6-6.3,2-9.2c1.2-2.5,3.1-4.7,5.4-6.2
		c2.3-1.5,5-2.3,7.8-2.3c0.1,0,0.2,0,0.3,0l0,0l0,0C160,84.2,160.2,84.2,160.4,84.2 M160,89.1l-0.1,0c-1.4,0-2.8,0.5-4,1.3
		c-1.1,0.9-2.1,2.1-2.6,3.4c-0.6,1.5-1.1,3-1.2,4.6l0,0.4l0.2,0.3l0.1,0.2l0.3,0.5h0.5h13.3h1v-1l0-0.9c0-1.5-0.2-3-0.8-4.4
		c-0.5-1.3-1.3-2.4-2.5-3.2c-1.2-0.8-2.6-1.2-4-1.2C160.1,89.1,160,89.1,160,89.1 M160.4,83.2c-0.2,0-0.4,0-0.5,0
		c-0.1,0-0.2,0-0.3,0c-2.9,0-5.8,0.8-8.3,2.4c-2.5,1.6-4.5,3.9-5.8,6.7c-1.4,3-2.1,6.3-2.1,9.7v1.4c-0.1,3.3,0.7,6.5,2.1,9.4
		c1.4,2.7,3.5,4.9,6.1,6.4c2.7,1.5,5.7,2.3,8.7,2.3c0.1,0,0.3,0,0.4,0c0.1,0,0.3,0,0.4,0c2.6,0,5.1-0.4,7.6-1.3
		c2-0.7,3.9-1.7,5.6-3.1l-2.7-5.8c-2.8,2-6.2,3-9.6,3c-0.1,0-0.2,0-0.2,0c-0.1,0-0.2,0-0.3,0c-1.5,0-3-0.4-4.4-1.2
		c-1.3-0.8-2.3-1.9-3-3.3c-0.7-1.5-1.1-3.1-1.2-4.7l0.1-0.2h22.2v-5.2c0.1-3.1-0.5-6.1-1.7-8.9c-1.1-2.4-2.9-4.4-5.1-5.7
		C165.8,83.9,163.1,83.2,160.4,83.2L160.4,83.2z M160,90.1c0.1,0,0.1,0,0.2,0c1.2,0,2.4,0.3,3.5,1c1,0.7,1.7,1.6,2.1,2.7
		c0.5,1.3,0.7,2.6,0.7,4v0.9h-13.3l-0.1-0.2c0.2-1.5,0.5-2.9,1.1-4.3c0.5-1.2,1.3-2.2,2.3-3c1-0.7,2.1-1.1,3.4-1.1
		C159.9,90.1,159.9,90.1,160,90.1L160,90.1z"/>
</g>
<g>
	
		<linearGradient id="SVGID_00000069397290082090415600000015329077113838909366_" gradientUnits="userSpaceOnUse" x1="20.049" y1="45.3096" x2="551.9447" y2="45.3096" gradientTransform="matrix(1 0 0 -1 0 148)">
		<stop  offset="8.000000e-02" style="stop-color:#FF7BAC;stop-opacity:0"/>
		<stop  offset="0.88" style="stop-color:#FF7BAC"/>
	</linearGradient>
	<path style="fill:url(#SVGID_00000069397290082090415600000015329077113838909366_);" d="M212.9,121c-3.8,0-6.8-1.2-8.9-3.6
		c-2.1-2.4-3.2-6.2-3.2-11.3v-16l-4.1-1v-4.8h12.4v21.8c0,3,0.5,5.2,1.6,6.5c1.1,1.3,2.7,2,4.4,2c0.2,0,0.3,0,0.5,0l0.2,0
		c1.5,0,3-0.4,4.4-1.1c1.3-0.7,2.4-1.7,3.2-3l0.1-0.1V90.1l-4.5-1v-4.7h12.8v30.2l4.4,1v4.7h-11.7l-0.7-5.8l-0.7,1.2
		c-1,1.7-2.5,3-4.2,4c-1.7,0.9-3.7,1.4-5.6,1.4L212.9,121z"/>
	<path class="st3" d="M231.1,84.9v29.3v0.8l0.8,0.2l3.6,0.8v3.8h-10.7l-0.5-4l-0.4-2.8l-1.5,2.4c-1,1.6-2.4,2.9-4,3.8
		c-1.6,0.9-3.5,1.3-5.4,1.3l-0.2,0c-3.7,0-6.4-1.1-8.5-3.4c-2-2.3-3.1-6-3.1-11V90.5v-0.8l-0.8-0.2l-3.3-0.8v-3.9h11.4v21.3
		c0,3.2,0.5,5.4,1.7,6.8c1.2,1.4,2.9,2.2,4.8,2.2c0.1,0,0.3,0,0.4,0c0.1,0,0.1,0,0.2,0c1.6,0,3.2-0.4,4.6-1.1
		c1.4-0.7,2.6-1.8,3.4-3.2l0.1-0.2v-0.3V90.5v-0.8l-0.8-0.2l-3.7-0.8v-3.8H231.1 M232.1,83.9h-13.8v5.7l4.5,1v19.9
		c-0.7,1.2-1.8,2.2-3,2.8c-1.3,0.7-2.7,1-4.1,1c-0.1,0-0.1,0-0.2,0c-0.1,0-0.3,0-0.4,0c-1.5,0-3-0.7-4-1.8c-1-1.2-1.4-3.3-1.4-6.2
		V83.9h-13.4v5.7l4.1,1v15.6c0,5.3,1.1,9.1,3.3,11.6c2.2,2.5,5.3,3.7,9.2,3.7c0.1,0,0.1,0,0.2,0c2,0,4-0.5,5.8-1.5
		c1.8-1,3.3-2.4,4.4-4.1l0.6,4.8h12.6v-5.6l-4.4-1V83.9L232.1,83.9z"/>
</g>
<g>
	
		<linearGradient id="SVGID_00000042733670825978073920000000849800607556272262_" gradientUnits="userSpaceOnUse" x1="21.4064" y1="38.9004" x2="552.6107" y2="38.9004" gradientTransform="matrix(1 0 0 -1 0 148)">
		<stop  offset="8.000000e-02" style="stop-color:#FF7BAC;stop-opacity:0"/>
		<stop  offset="0.88" style="stop-color:#FF7BAC"/>
	</linearGradient>
	<path style="fill:url(#SVGID_00000042733670825978073920000000849800607556272262_);" d="M240.4,134.5v-4.7l4.9-1V90.1l-5.4-1v-4.7
		h12.9l0.6,5.3l0.8-1.2c2-3,5.3-4.8,8.8-4.8c0.2,0,0.3,0,0.5,0l0.3,0c2.5,0,5,0.8,7,2.3c2.2,1.7,3.8,4,4.7,6.6
		c1.2,3.2,1.7,6.6,1.7,10.1v0.7c0.1,3.2-0.5,6.3-1.7,9.3c-1,2.5-2.6,4.6-4.7,6.1c-2.1,1.4-4.5,2.2-7,2.2c-0.1,0-0.2,0-0.4,0l-0.3,0
		c-1.7,0-3.4-0.4-4.9-1c-1.5-0.7-2.8-1.8-3.8-3.1l-0.9-1.1v13l5,1v4.8H240.4z M260.6,114.9c0.2,0,0.3,0,0.5,0c2.4,0,4.6-1.2,5.9-3.2
		c1.4-2.5,2.1-5.4,1.9-8.3l0-0.7c0-2.2-0.2-4.4-0.8-6.5c-0.5-1.7-1.4-3.3-2.7-4.5c-1.3-1.1-2.9-1.7-4.5-1.7l-0.3,0l-0.2,0
		c-2.8,0-5.4,1.6-6.7,4.1l-0.1,0.1v16.8l0.1,0.1c0.7,1.2,1.6,2.1,2.8,2.8c1.1,0.6,2.4,1,3.7,1L260.6,114.9z"/>
	<path class="st3" d="M263,84.2c0.1,0,0.3,0,0.4,0l0,0l0,0c0.1,0,0.2,0,0.3,0c2.4,0,4.8,0.8,6.7,2.2c2.1,1.7,3.7,3.9,4.6,6.4
		c1.2,3.2,1.7,6.5,1.6,9.9l0,0.7c0.1,3.1-0.5,6.2-1.6,9.1c-0.9,2.4-2.5,4.4-4.5,5.9c-2,1.4-4.3,2.1-6.8,2.1c-0.1,0-0.2,0-0.3,0l0,0
		l0,0c-0.1,0-0.2,0-0.3,0c-1.6,0-3.2-0.3-4.7-1c-1.4-0.7-2.7-1.7-3.6-2.9l-1.8-2.3v2.9v11.1v0.8l0.8,0.2l4.2,0.8v3.8h-17.2v-3.8
		l4.1-0.8l0.8-0.2v-0.8V90.5v-0.8l-0.8-0.2l-4.6-0.8v-3.8h11.9l0.4,3.4l0.3,2.7l1.5-2.3C256.5,85.9,259.6,84.2,263,84.2 M260.6,89.4
		c-0.1,0-0.2,0-0.2,0c-3,0-5.8,1.7-7.2,4.4l-0.1,0.2v0.2v16.5v0.3l0.1,0.2c0.7,1.3,1.8,2.3,3,3c1.2,0.6,2.5,1,3.9,1.1l0.5,0
		c0.2,0,0.3,0,0.5,0c2.6,0,4.9-1.3,6.3-3.5l0,0l0,0c1.5-2.6,2.1-5.5,2-8.5l0-0.7c0-2.3-0.3-4.5-0.9-6.7c-0.5-1.8-1.5-3.5-2.9-4.8
		c-1.3-1.2-3.1-1.8-4.8-1.8C260.7,89.4,260.6,89.4,260.6,89.4 M263,83.2c-3.7,0-7.2,1.9-9.3,5l-0.5-4.3h-13.8v5.7l5.4,1v37.9l-4.9,1
		v5.6h19.2v-5.7l-5-1v-11.1c1.1,1.4,2.4,2.5,4,3.2c1.6,0.7,3.4,1.1,5.1,1.1c0.1,0,0.2,0,0.3,0c0.1,0,0.2,0,0.4,0
		c2.6,0,5.2-0.8,7.3-2.3c2.2-1.6,3.9-3.8,4.9-6.3c1.2-3,1.8-6.3,1.7-9.5v-0.7c0.1-3.5-0.5-7-1.7-10.2c-1-2.7-2.7-5.1-4.9-6.8
		c-2.1-1.6-4.7-2.4-7.3-2.4c-0.1,0-0.2,0-0.3,0C263.3,83.2,263.2,83.2,263,83.2L263,83.2z M260.6,90.4c0.1,0,0.2,0,0.2,0
		c1.5,0,3,0.6,4.2,1.6c1.2,1.2,2.1,2.6,2.6,4.3c0.6,2.1,0.9,4.2,0.8,6.4v0.7c0.1,2.8-0.5,5.6-1.9,8c-1.2,1.9-3.3,3-5.5,3
		c-0.1,0-0.3,0-0.4,0v0c-0.1,0-0.1,0-0.2,0c-1.3,0-2.6-0.3-3.8-0.9c-1.1-0.6-2-1.5-2.6-2.6V94.3c1.2-2.4,3.7-3.8,6.3-3.8
		C260.4,90.4,260.5,90.4,260.6,90.4L260.6,90.4z"/>
</g>
<g>
	
		<linearGradient id="SVGID_00000042707701104904996200000005322830111051431298_" gradientUnits="userSpaceOnUse" x1="22.3207" y1="38.2129" x2="554.7089" y2="38.2129" gradientTransform="matrix(1 0 0 -1 0 148)">
		<stop  offset="8.000000e-02" style="stop-color:#FF7BAC;stop-opacity:0"/>
		<stop  offset="0.88" style="stop-color:#FF7BAC"/>
	</linearGradient>
	<path style="fill:url(#SVGID_00000042707701104904996200000005322830111051431298_);" d="M309.3,135.2c-0.8,0-1.7-0.1-2.5-0.2
		c-0.7-0.1-1.4-0.3-2.1-0.4l0.9-5.9c0.3,0,0.6,0.1,1,0.1c0.6,0.1,1,0.1,1.4,0.1l0.2,0c1.4,0,2.7-0.5,3.8-1.3c1.2-1,2-2.3,2.5-3.7
		l1.1-2.8l-12.7-31.2l-4.3-0.6v-4.7h17.8v4.7l-4.7,0.7l6.3,17.3l1,2.9h0.9l7.6-20.3l-4.7-0.7v-4.7h16.6v4.7l-3.9,0.6l-14.3,36.5
		c-0.6,1.6-1.5,3.2-2.5,4.6c-1,1.3-2.3,2.5-3.8,3.2c-1.6,0.8-3.4,1.2-5.3,1.2L309.3,135.2z"/>
	<path class="st3" d="M338.8,84.9v3.8l-3.2,0.5l-0.6,0.1l-0.2,0.5l-14.2,36.2c-0.6,1.6-1.4,3.1-2.4,4.5c-0.9,1.3-2.2,2.4-3.6,3.1
		c-1.6,0.8-3.3,1.2-5,1.2c-0.1,0-0.2,0-0.3,0c-0.8,0-1.6-0.1-2.4-0.2c-0.6-0.1-1.1-0.2-1.6-0.3l0.8-5c0.2,0,0.3,0,0.5,0
		c0.5,0,1,0.1,1.4,0.1c0,0,0,0,0,0c0.1,0,0.1,0,0.2,0c1.5,0,3-0.5,4.2-1.5c1.2-1,2.1-2.4,2.6-3.9l1-2.6l0.1-0.4l-0.1-0.4l-12.5-30.8
		l-0.2-0.5l-0.6-0.1l-3.6-0.5v-3.8h16.8v3.8l-3.7,0.6l-1.2,0.2l0.4,1.1l6.1,16.7l0.9,2.6l0.2,0.7h0.7h0.2h0.7l0.2-0.7l7.2-19.4
		l0.4-1.2l-1.2-0.2l-3.6-0.5v-3.8H338.8 M339.8,83.9h-17.6v5.6l4.5,0.6l-7.2,19.4h-0.2l-0.9-2.6l-6.1-16.8l4.5-0.7v-5.6H298v5.6
		l4.5,0.7L315,121l-1,2.6c-0.4,1.3-1.2,2.6-2.3,3.5c-1,0.8-2.2,1.2-3.5,1.2c-0.1,0-0.1,0-0.2,0c-0.4,0-0.8,0-1.4-0.1s-1-0.1-1.5-0.2
		l-1,6.9c0.8,0.2,1.6,0.4,2.6,0.5c0.9,0.1,1.7,0.2,2.6,0.2c0.1,0,0.2,0,0.3,0c1.9,0,3.8-0.4,5.5-1.3c1.6-0.8,2.9-2,3.9-3.4
		c1-1.5,1.9-3,2.5-4.7l14.2-36.2l4.1-0.6V83.9L339.8,83.9z"/>
</g>
<g>
	
		<linearGradient id="SVGID_00000027600747985797162250000001654061337545388694_" gradientUnits="userSpaceOnUse" x1="25.0432" y1="45.6362" x2="554.6503" y2="45.6362" gradientTransform="matrix(1 0 0 -1 0 148)">
		<stop  offset="8.000000e-02" style="stop-color:#FF7BAC;stop-opacity:0"/>
		<stop  offset="0.88" style="stop-color:#FF7BAC"/>
	</linearGradient>
	<path style="fill:url(#SVGID_00000027600747985797162250000001654061337545388694_);" d="M359.9,121c-0.2,0-0.3,0-0.5,0
		c-0.2,0-0.4,0-0.5,0c-3,0-5.9-0.8-8.5-2.3c-2.5-1.5-4.5-3.8-5.7-6.4c-1.4-3-2.1-6.3-2-9.5V102c-0.1-3.3,0.6-6.6,2-9.5
		c1.3-2.6,3.3-4.9,5.8-6.4c2.7-1.5,5.8-2.3,9-2.3c3.1,0,6.2,0.8,9,2.3c2.5,1.5,4.5,3.8,5.7,6.4c1.4,3,2.1,6.3,2,9.5v0.7
		c0.1,3.3-0.6,6.6-2,9.6c-1.3,2.7-3.2,4.9-5.7,6.4C365.8,120.2,362.9,121,359.9,121z M359.3,89.9c-1.7,0-3.4,0.5-4.8,1.6
		c-1.3,1.2-2.3,2.7-2.8,4.4c-0.6,2-0.9,4.1-0.9,6.1v0.7c0,2.1,0.3,4.2,0.9,6.2c0.5,1.7,1.5,3.2,2.8,4.3c1.3,1,2.9,1.6,4.6,1.6
		c0.1,0,0.2,0,0.3,0l0.2,0c1.6,0,3.2-0.6,4.5-1.6c1.3-1.2,2.3-2.7,2.8-4.4c0.6-2,0.9-4.1,0.9-6.2V102c0-2.1-0.3-4.1-0.9-6.1
		c-0.5-1.7-1.5-3.2-2.8-4.4C362.7,90.4,361.1,89.9,359.3,89.9z"/>
	<path class="st3" d="M359.3,84.2c3.1,0,6.1,0.8,8.7,2.3c2.4,1.5,4.3,3.7,5.5,6.2c1.3,2.9,2,6.1,2,9.3l0,0.7c0.1,3.2-0.6,6.4-2,9.3
		c-1.2,2.6-3.1,4.7-5.5,6.2c-2.5,1.5-5.3,2.2-8.1,2.2c-0.2,0-0.3,0-0.5,0l0,0l0,0c-0.2,0-0.3,0-0.5,0c-2.9,0-5.8-0.8-8.2-2.2
		c-2.4-1.5-4.3-3.6-5.6-6.2c-1.4-2.9-2-6.1-2-9.3l0-0.7c-0.1-3.2,0.6-6.4,2-9.3c1.2-2.6,3.2-4.7,5.5-6.2
		C353.3,85,356.3,84.2,359.3,84.2 M359.1,115.4c0.1,0,0.2,0,0.3,0c0.1,0,0.2,0,0.2,0c1.7,0,3.5-0.6,4.8-1.7l0,0l0,0
		c1.4-1.2,2.4-2.8,2.9-4.6c0.6-2.1,0.9-4.2,0.9-6.4l0-0.7c0-2.1-0.3-4.3-0.9-6.3c-0.5-1.8-1.5-3.4-2.9-4.6l0,0l0,0
		c-1.5-1.1-3.2-1.7-5.1-1.7c-1.8,0-3.6,0.6-5.1,1.7l0,0l0,0c-1.4,1.2-2.4,2.8-2.9,4.6c-0.6,2-0.9,4.2-0.9,6.3l0,0.7
		c0,2.2,0.3,4.3,0.9,6.4c0.5,1.8,1.5,3.4,2.9,4.6l0,0l0,0C355.6,114.8,357.3,115.4,359.1,115.4 M359.3,83.2c-3.2,0-6.4,0.8-9.2,2.4
		c-2.6,1.6-4.6,3.9-5.9,6.6c-1.4,3-2.1,6.4-2.1,9.7v0.7c-0.1,3.4,0.6,6.7,2.1,9.8c1.3,2.7,3.4,5,5.9,6.6c2.7,1.6,5.7,2.4,8.8,2.4
		c0.2,0,0.3,0,0.5,0c0.2,0,0.4,0,0.5,0c3,0,6-0.8,8.7-2.4c2.6-1.6,4.6-3.9,5.9-6.6c1.4-3.1,2.1-6.4,2.1-9.8V102
		c0.1-3.4-0.6-6.7-2.1-9.8c-1.3-2.7-3.4-5-5.9-6.6C365.7,84,362.5,83.2,359.3,83.2L359.3,83.2z M359.1,114.4c-1.5,0-3-0.5-4.2-1.5
		c-1.3-1.1-2.2-2.5-2.6-4.1c-0.6-2-0.9-4-0.9-6.1V102c0-2,0.3-4.1,0.9-6c0.5-1.6,1.4-3,2.6-4.1c1.3-1,2.9-1.5,4.5-1.5
		s3.2,0.5,4.5,1.5c1.3,1.1,2.2,2.5,2.6,4.1c0.6,1.9,0.9,4,0.9,6v0.7c0,2.1-0.3,4.1-0.9,6.1c-0.5,1.6-1.4,3-2.6,4.1
		c-1.2,1-2.7,1.5-4.2,1.5c-0.1,0-0.2,0-0.3,0C359.3,114.4,359.2,114.4,359.1,114.4L359.1,114.4z"/>
</g>
<g>
	
		<linearGradient id="SVGID_00000113323748465309968900000018410166973285048207_" gradientUnits="userSpaceOnUse" x1="24.6141" y1="45.3096" x2="556.5165" y2="45.3096" gradientTransform="matrix(1 0 0 -1 0 148)">
		<stop  offset="8.000000e-02" style="stop-color:#FF7BAC;stop-opacity:0"/>
		<stop  offset="0.88" style="stop-color:#FF7BAC"/>
	</linearGradient>
	<path style="fill:url(#SVGID_00000113323748465309968900000018410166973285048207_);" d="M396.9,121c-3.8,0-6.8-1.2-8.9-3.6
		c-2.1-2.4-3.2-6.2-3.2-11.3v-16l-4.1-1v-4.8h12.4v21.8c0,3,0.5,5.2,1.6,6.5c1.1,1.3,2.7,2,4.4,2c0.2,0,0.3,0,0.5,0l0.2,0
		c1.5,0,3-0.4,4.4-1.1c1.3-0.7,2.4-1.7,3.2-3l0.1-0.1V90.1l-4.5-1v-4.7h12.8v30.2l4.4,1v4.7h-11.7l-0.7-5.8l-0.7,1.2
		c-1,1.7-2.5,3-4.2,4c-1.7,0.9-3.7,1.4-5.6,1.4L396.9,121z"/>
	<path class="st3" d="M415.2,84.9v29.3v0.8l0.8,0.2l3.6,0.8v3.8h-10.7l-0.5-4L408,113l-1.5,2.4c-1,1.6-2.4,2.9-4,3.8
		c-1.6,0.9-3.5,1.3-5.4,1.3l-0.2,0c-3.7,0-6.4-1.1-8.5-3.4c-2-2.3-3.1-6-3.1-11V90.5v-0.8l-0.8-0.2l-3.3-0.8v-3.9h11.4v21.3
		c0,3.2,0.5,5.4,1.7,6.8c1.2,1.4,2.9,2.2,4.8,2.2c0.1,0,0.3,0,0.4,0c0.1,0,0.1,0,0.2,0c1.6,0,3.2-0.4,4.6-1.1
		c1.4-0.7,2.6-1.8,3.4-3.2l0.1-0.2v-0.3V90.5v-0.8l-0.8-0.2l-3.7-0.8v-3.8H415.2 M416.2,83.9h-13.8v5.7l4.5,1v19.9
		c-0.7,1.2-1.8,2.2-3,2.8c-1.3,0.7-2.7,1-4.1,1c-0.1,0-0.1,0-0.2,0c-0.1,0-0.3,0-0.4,0c-1.5,0-3-0.7-4-1.8c-1-1.2-1.5-3.3-1.5-6.2
		V83.9h-13.4v5.7l4.1,1v15.6c0,5.3,1.1,9.1,3.3,11.6c2.2,2.5,5.3,3.7,9.2,3.7c0.1,0,0.1,0,0.2,0c2,0,4-0.5,5.8-1.5
		c1.8-1,3.3-2.4,4.4-4.1l0.6,4.8h12.6v-5.6l-4.4-1V83.9L416.2,83.9z"/>
</g>
<g>
	
		<linearGradient id="SVGID_00000111156601629642313200000006555140120066859184_" gradientUnits="userSpaceOnUse" x1="31.6858" y1="46.0063" x2="555.6373" y2="46.0063" gradientTransform="matrix(1 0 0 -1 0 148)">
		<stop  offset="8.000000e-02" style="stop-color:#FF7BAC;stop-opacity:0"/>
		<stop  offset="0.88" style="stop-color:#FF7BAC"/>
	</linearGradient>
	<path style="fill:url(#SVGID_00000111156601629642313200000006555140120066859184_);" d="M425.5,115.6l4.9-1V90.1l-5.3-1v-4.7h13
		l0.4,4.9l1,0.2c0.7-1.7,1.9-3.2,3.3-4.3c1.3-0.9,2.8-1.4,4.4-1.4l0.2,0c0.6,0,1.3,0.1,1.9,0.1c0.5,0.1,0.9,0.1,1.4,0.3l-1,7.7
		l-4.5-0.3c-0.2,0-0.4,0-0.6,0c-1.2,0-2.3,0.3-3.3,0.9c-1.1,0.7-2,1.7-2.6,2.8l-0.1,0.1v19.2l5,1v4.7l-18.1,0V115.6z"/>
	<path class="st3" d="M447.2,84.2l0.2,0c0.6,0,1.2,0.1,1.9,0.1c0.3,0,0.6,0.1,0.9,0.1l-0.8,6.8l-4-0.2c-0.2,0-0.4,0-0.7,0
		c-1.3,0-2.5,0.3-3.6,1l0,0l0,0c-1.1,0.8-2.1,1.8-2.8,3l-0.1,0.2v0.3v18.7v0.8l0.8,0.2l4.1,0.8v3.8l-17.1,0V116l4.1-0.8l0.8-0.2
		v-0.8V90.5v-0.8l-0.8-0.2l-4.5-0.8v-3.8h12l0.3,3.7l0.1,0.8l1.9,0.3c0.7-1.6,1.8-3,3.2-4.1C444.3,84.7,445.7,84.2,447.2,84.2
		 M447.2,83.2c-1.7,0-3.4,0.5-4.7,1.6c-1.5,1.2-2.7,2.7-3.5,4.5l-0.1-0.8l-0.4-4.6h-13.9v5.7l5.3,1v23.7l-4.9,1v5.6l19.1-0.1v-5.6
		l-5-1V95.4c0.6-1.1,1.4-2,2.4-2.6c0.9-0.6,2-0.8,3.1-0.8c0.2,0,0.4,0,0.6,0l4.9,0.3l1.1-8.6c-0.6-0.2-1.2-0.3-1.8-0.4
		c-0.7-0.1-1.3-0.1-2-0.1C447.4,83.2,447.3,83.2,447.2,83.2L447.2,83.2z"/>
</g>
<g>
	
		<linearGradient id="SVGID_00000059273971148902343490000016006613108745596297_" gradientUnits="userSpaceOnUse" x1="38.7325" y1="53.8154" x2="556.4176" y2="53.8154" gradientTransform="matrix(1 0 0 -1 0 148)">
		<stop  offset="8.000000e-02" style="stop-color:#FF7BAC;stop-opacity:0"/>
		<stop  offset="0.88" style="stop-color:#FF7BAC"/>
	</linearGradient>
	<polygon style="fill:url(#SVGID_00000059273971148902343490000016006613108745596297_);" points="471.5,115.6 476.5,114.6 
		476.5,73.8 471.1,72.8 471.1,68.1 484.8,68.1 484.8,114.6 489.8,115.6 489.8,120.3 471.5,120.3 	"/>
	<path class="st3" d="M484.3,68.6v45.6v0.8l0.8,0.2l4.2,0.8v3.8l-17.3,0V116l4.2-0.8l0.8-0.2v-0.8v-40v-0.8l-0.8-0.2l-4.5-0.8v-3.8
		H484.3 M485.3,67.6h-14.6v5.7l5.4,1v40l-5,1v5.6l19.3,0v-5.6l-5-1V67.6L485.3,67.6z"/>
</g>
<g>
	
		<linearGradient id="SVGID_00000176017972820070016570000001970869470974881156_" gradientUnits="userSpaceOnUse" x1="39.9067" y1="53.8154" x2="557.558" y2="53.8154" gradientTransform="matrix(1 0 0 -1 0 148)">
		<stop  offset="8.000000e-02" style="stop-color:#FF7BAC;stop-opacity:0"/>
		<stop  offset="0.88" style="stop-color:#FF7BAC"/>
	</linearGradient>
	<path style="fill:url(#SVGID_00000176017972820070016570000001970869470974881156_);" d="M494,115.6l5-1V90.1l-5.4-1v-4.7h13.6
		v30.2l5,1v4.7l-18.2,0V115.6z M498.6,75.3v-7.2h8.6v7.2L498.6,75.3z"/>
	<path class="st3" d="M506.8,68.6v6.2l-7.6,0v-6.2H506.8 M506.8,84.9v29.3v0.8l0.8,0.2l4.2,0.8v3.8l-17.2,0V116l4.1-0.8l0.8-0.2
		v-0.8V90.5v-0.8l-0.8-0.2l-4.5-0.8v-3.8H506.8 M507.8,67.6h-9.6v8.2l9.6,0V67.6L507.8,67.6z M507.8,83.9h-14.6v5.6l5.4,1v23.7l-5,1
		v5.6l19.2,0v-5.6l-5-1V83.9L507.8,83.9z"/>
</g>
<g>
	
		<linearGradient id="SVGID_00000181060496234782297680000010366365363292859549_" gradientUnits="userSpaceOnUse" x1="36.7151" y1="54.1755" x2="559.1163" y2="54.1755" gradientTransform="matrix(1 0 0 -1 0 148)">
		<stop  offset="8.000000e-02" style="stop-color:#FF7BAC;stop-opacity:0"/>
		<stop  offset="0.88" style="stop-color:#FF7BAC"/>
	</linearGradient>
	<path style="fill:url(#SVGID_00000181060496234782297680000010366365363292859549_);" d="M517.2,115.6l5-1V90h-5.6v-5.6h5.6v-4.7
		c0-4,1.1-7,3.3-9.1c2.2-2.1,5.3-3.2,9.4-3.2c1,0,2.1,0.1,3.1,0.2c0.8,0.1,1.7,0.3,2.5,0.5l-0.7,5.9c-0.4-0.1-0.9-0.2-1.3-0.2
		c-0.7-0.1-1.4-0.1-2.2-0.1c-0.1,0-0.3,0-0.5,0c-1.5,0-2.8,0.6-3.9,1.6c-1,1.3-1.5,2.9-1.4,4.5l0,4.7h8.3V90h-8.3v24.6l6.5,1v4.7
		l-19.8,0V115.6z"/>
	<path class="st3" d="M534.9,67.9c1,0,2,0.1,3,0.2c0.7,0.1,1.4,0.2,2,0.4l-0.6,5c-0.3,0-0.6-0.1-0.8-0.1c-0.7-0.1-1.5-0.1-2.2-0.1
		c-0.2,0-0.3,0-0.5,0c-1.6,0-3.1,0.6-4.2,1.7l0,0l0,0.1c-1.1,1.4-1.6,3-1.5,4.8v4.2v1h1h7.3v4.6H531h-1v1v23.7v0.9l0.8,0.1l5.6,0.9
		v3.7l-18.8,0V116l4.2-0.8l0.8-0.2v-0.8V90.5v-1h-1h-4.6v-4.6h4.6h1v-1v-4.2c0-3.8,1.1-6.8,3.2-8.8C528,68.9,531,67.9,534.9,67.9
		 M534.9,66.9c-4.2,0-7.4,1.1-9.7,3.3c-2.3,2.2-3.5,5.4-3.5,9.5v4.2h-5.6v6.6h5.6v23.7l-5,1v5.6l20.8,0v-5.6l-6.5-1V90.5h8.3v-6.6
		H531v-4.2c-0.1-1.5,0.3-2.9,1.3-4.1c1-0.9,2.2-1.4,3.5-1.4c0.2,0,0.3,0,0.5,0c0.7,0,1.4,0,2.1,0.1c0.6,0.1,1.2,0.2,1.8,0.3l0.8-6.9
		c-1-0.3-2-0.4-3-0.6C537,66.9,535.9,66.9,534.9,66.9L534.9,66.9z"/>
</g>
<linearGradient id="SVGID_00000045593695145898229360000006674765565926666424_" gradientUnits="userSpaceOnUse" x1="15.05" y1="45.6522" x2="560.49" y2="45.6522" gradientTransform="matrix(1 0 0 -1 0 148)">
	<stop  offset="8.000000e-02" style="stop-color:#FF7BAC;stop-opacity:0"/>
	<stop  offset="0.88" style="stop-color:#FF7BAC"/>
</linearGradient>
<path style="fill:url(#SVGID_00000045593695145898229360000006674765565926666424_);stroke:#FFFFFF;stroke-width:1.5;" d="
	M560.4,121.5c-3.2,0.1-6.4-0.7-9.2-2.3c-2.6-1.5-4.7-3.8-6.1-6.4c-1.5-2.9-2.2-6.1-2.2-9.4v-1.4c-0.1-3.3,0.6-6.6,2.1-9.7
	c1.3-2.7,3.3-5,5.8-6.7c2.6-1.6,5.6-2.5,8.6-2.4c2.9-0.1,5.8,0.6,8.4,2c2.3,1.3,4.1,3.3,5.2,5.7c1.2,2.8,1.8,5.9,1.7,8.9v5.2h-22.1
	l-0.1,0.2c0.1,1.6,0.5,3.3,1.2,4.7c0.7,1.3,1.7,2.5,3,3.3c1.4,0.8,3,1.2,4.6,1.2c3.5,0.1,7-1,9.9-3l2.7,5.8
	c-1.7,1.3-3.6,2.4-5.6,3.1C565.8,121.1,563.1,121.5,560.4,121.5z M552.8,98.7h13.3v-0.9c0-1.4-0.2-2.7-0.7-4c-0.4-1.1-1.1-2-2.1-2.7
	c-1.1-0.7-2.4-1-3.7-1c-1.3,0-2.5,0.4-3.5,1.1c-1,0.8-1.8,1.8-2.3,3c-0.6,1.4-1,2.8-1.1,4.3L552.8,98.7z"/>
<g>
	
		<linearGradient id="SVGID_00000083776294190560843660000000245606904595817128_" gradientUnits="userSpaceOnUse" x1="76.6422" y1="52.0249" x2="563.2635" y2="52.0249" gradientTransform="matrix(1 0 0 -1 0 148)">
		<stop  offset="8.000000e-02" style="stop-color:#FF7BAC;stop-opacity:0"/>
		<stop  offset="0.88" style="stop-color:#FF7BAC"/>
	</linearGradient>
	<path style="fill:url(#SVGID_00000083776294190560843660000000245606904595817128_);" d="M582.1,120.3V113h8.3v7.4H582.1z
		 M582.1,103.3V71.6h8.3v31.7H582.1z"/>
	<path class="st3" d="M589.9,72.1v30.7h-7.3V72.1H589.9 M589.9,113.5v6.4h-7.3v-6.4H589.9 M590.9,71.1h-9.3v32.7h9.3V71.1
		L590.9,71.1z M590.9,112.5h-9.3v8.4h9.3V112.5L590.9,112.5z"/>
</g>
</svg>
