<svg xmlns="http://www.w3.org/2000/svg" xmlns:xlink="http://www.w3.org/1999/xlink" viewBox="0 0 2919.93 2837.05"><defs><linearGradient id="linear-gradient" x1="1811.49" y1="520.36" x2="2303.79" y2="3667.54" gradientUnits="userSpaceOnUse"><stop offset="0" stop-color="#aa80f9"/><stop offset="1" stop-color="#6165d7"/></linearGradient><linearGradient id="linear-gradient-2" x1="1922.7" y1="1137.54" x2="2324.39" y2="3705.48" gradientUnits="userSpaceOnUse"><stop offset="0" stop-color="#e38ddd"/><stop offset="1" stop-color="#9571f6"/></linearGradient><clipPath id="clip-path"><path d="M1780.09,2167.85c-18.19,2.41-59.87-8.36-69.58-15.65-64.62-48.5-191.49-131.45-208.62-215.13-2.92-14.29,56.47-44.12,61.84-59.39,33.25-28.21,46.54-35.93,65-78.28,54.42-125-184.14-268.9,15.14-395,146-92.36,295.12-73.38,212-316.07s-7.22-745.55,299.88-642.72C2332,504.62,2236,755.46,2354.45,890c112.57,127.83,82.46,265.83-50.5,396s-31.2,175.89,51.66,303.81c99.54,153.65-151.3,252.5-271,288.25C1988.22,1906.88,1762.2,2045.23,1780.09,2167.85Z" fill="url(#linear-gradient)"/></clipPath><clipPath id="clip-path-2"><path d="M1576,2532c-17.76-4.56-52.4-30.14-58.68-40.53-41.79-69.14-128.44-193.52-113-277.53,2.63-14.34,68.88-19.81,79.56-32,41.39-13.73,56.6-15.93,89.53-48.31,97.23-95.61-70.23-318.25,161.74-360.68,169.91-31.09,301.15,42.29,314.83-213.86S2322,865,2568.38,1075.19c141.39,120.63-41.46,317.37,18.12,486.44,56.61,160.65-22.91,277.38-194.92,348.42s-94.71,151.47-65.68,301.09c34.86,179.73-234.75,177.61-359.14,166C1866.6,2367.81,1605.24,2411.61,1576,2532Z" fill="url(#linear-gradient-2)"/></clipPath><linearGradient id="linear-gradient-5" x1="665.33" y1="2708.79" x2="1744.31" y2="579.23" gradientUnits="userSpaceOnUse"><stop offset="0.06" stop-color="#cce0f4" stop-opacity="0.45"/><stop offset="0.18" stop-color="#b7d5ee" stop-opacity="0.51"/><stop offset="0.38" stop-color="#7fb7e0" stop-opacity="0.66"/><stop offset="0.64" stop-color="#2387c7" stop-opacity="0.91"/><stop offset="0.73" stop-color="#0075be"/></linearGradient><linearGradient id="linear-gradient-6" x1="934.18" y1="358.36" x2="1828.85" y2="358.36" gradientUnits="userSpaceOnUse"><stop offset="0" stop-color="#444b8c"/><stop offset="1" stop-color="#26264f"/></linearGradient><linearGradient id="linear-gradient-7" x1="1707.83" y1="1040.69" x2="1667.62" y2="1105.73" gradientUnits="userSpaceOnUse"><stop offset="0" stop-color="#ffc444"/><stop offset="1" stop-color="#f36f56"/></linearGradient><linearGradient id="linear-gradient-8" x1="2280.47" y1="1810.42" x2="2296.7" y2="1843.8" xlink:href="#linear-gradient-7"/><linearGradient id="linear-gradient-9" x1="989.57" y1="2660.55" x2="989.57" y2="2555.82" gradientTransform="translate(1249.56)" xlink:href="#linear-gradient-7"/><linearGradient id="linear-gradient-10" x1="670.35" y1="2690.39" x2="670.35" y2="2564.18" gradientTransform="translate(1249.56)" xlink:href="#linear-gradient-7"/><linearGradient id="linear-gradient-11" x1="599.74" y1="2194.6" x2="1012.68" y2="2194.6" gradientTransform="translate(1249.56)" gradientUnits="userSpaceOnUse"><stop offset="0" stop-color="#311944"/><stop offset="1" stop-color="#893976"/></linearGradient><linearGradient id="linear-gradient-12" x1="586.62" y1="1886.77" x2="884.12" y2="2386.45" xlink:href="#linear-gradient-11"/><linearGradient id="linear-gradient-13" x1="703.74" y1="1817.05" x2="1001.23" y2="2316.73" xlink:href="#linear-gradient-11"/><linearGradient id="linear-gradient-14" x1="2026.19" y1="1575.67" x2="2361.64" y2="1575.67" gradientUnits="userSpaceOnUse"><stop offset="0" stop-color="#fcb148"/><stop offset="0.05" stop-color="#fdba46"/><stop offset="0.14" stop-color="#ffc244"/><stop offset="0.32" stop-color="#ffc444"/><stop offset="0.48" stop-color="#fdb946"/><stop offset="0.78" stop-color="#f99c4d"/><stop offset="0.87" stop-color="#f8924f"/><stop offset="1" stop-color="#f8924f"/></linearGradient><linearGradient id="linear-gradient-15" x1="2143.02" y1="1098.84" x2="2143.02" y2="2143.55" xlink:href="#linear-gradient-14"/><linearGradient id="linear-gradient-16" x1="780.22" y1="1267.95" x2="841.2" y2="1364.87" gradientTransform="translate(1249.56)" xlink:href="#linear-gradient-2"/><linearGradient id="linear-gradient-17" x1="853.84" y1="1253.08" x2="786.82" y2="1361.49" gradientTransform="translate(1249.56)" xlink:href="#linear-gradient-7"/><linearGradient id="linear-gradient-18" x1="280.68" y1="795.49" x2="215.83" y2="900.4" gradientTransform="translate(1618.84 531.69) rotate(-13.66)" xlink:href="#linear-gradient-7"/><linearGradient id="linear-gradient-19" x1="2059.76" y1="790.03" x2="2621.41" y2="1682.74" xlink:href="#linear-gradient-6"/><linearGradient id="linear-gradient-20" x1="1835.47" y1="1098.83" x2="1835.47" y2="2143.54" xlink:href="#linear-gradient-14"/><linearGradient id="linear-gradient-21" x1="1844.73" y1="1372.46" x2="2163.82" y2="2028.62" xlink:href="#linear-gradient-14"/><linearGradient id="linear-gradient-22" x1="1688.2" y1="715.65" x2="2588.77" y2="715.65" gradientTransform="matrix(1, 0, 0, 1, 0, 0)" xlink:href="#linear-gradient-11"/><linearGradient id="linear-gradient-23" x1="2319.46" y1="994.54" x2="2439.78" y2="994.54" gradientTransform="matrix(1, 0, 0, 1, 0, 0)" xlink:href="#linear-gradient-11"/><linearGradient id="linear-gradient-24" x1="2082.74" y1="268.03" x2="2265.31" y2="1462.63" gradientUnits="userSpaceOnUse"><stop offset="0" stop-color="#ff9085"/><stop offset="1" stop-color="#fb6fbb"/></linearGradient><linearGradient id="linear-gradient-25" x1="2279" y1="238.04" x2="2461.57" y2="1432.64" xlink:href="#linear-gradient-24"/><linearGradient id="linear-gradient-26" x1="419.03" y1="2083.51" x2="2312.25" y2="3289.6" gradientUnits="userSpaceOnUse"><stop offset="0" stop-color="#ab316d"/><stop offset="1" stop-color="#792d3d"/></linearGradient><linearGradient id="linear-gradient-27" x1="429.86" y1="2066.5" x2="2323.09" y2="3272.6" xlink:href="#linear-gradient-26"/><linearGradient id="linear-gradient-28" x1="446.95" y1="1866.3" x2="1539.98" y2="3492.79" xlink:href="#linear-gradient-24"/></defs><g style="isolation:isolate"><g id="Illustration"><g id="Deco-2"><path d="M1780.09,2167.85c-18.19,2.41-59.87-8.36-69.58-15.65-64.62-48.5-191.49-131.45-208.62-215.13-2.92-14.29,56.47-44.12,61.84-59.39,33.25-28.21,46.54-35.93,65-78.28,54.42-125-184.14-268.9,15.14-395,146-92.36,295.12-73.38,212-316.07s-7.22-745.55,299.88-642.72C2332,504.62,2236,755.46,2354.45,890c112.57,127.83,82.46,265.83-50.5,396s-31.2,175.89,51.66,303.81c99.54,153.65-151.3,252.5-271,288.25C1988.22,1906.88,1762.2,2045.23,1780.09,2167.85Z" fill="url(#linear-gradient)"/><g clip-path="url(#clip-path)"><g style="mix-blend-mode:soft-light"><path d="M1610.29,2051.15l-2.55-3c454-393.51,625.31-1013.73,458.29-1659.09l3.77-1c79.16,305.85,82.08,618,8.44,902.58C2000.82,1590,1839,1852.9,1610.29,2051.15Z" fill="#fcfdfe"/><path d="M2404.31,1649c-164.07-9.26-416.76,56.71-563.29,147l-2-3.32c147.11-90.69,400.82-156.91,565.56-147.62Z" fill="#fcfdfe"/><path d="M1698.53,1972.88l-3.27-2.12c48.72-75,57.63-171.85,26.48-287.71-22.84-85-66.29-178-129.14-276.51l3.29-2.1c63.06,98.86,106.67,192.26,129.62,277.6C1757,1799,1747.88,1896.86,1698.53,1972.88Z" fill="#fcfdfe"/><path d="M2087.12,1249.92l-3.38-2c84.57-146.18,245.13-222.08,364.93-260l1.18,3.72C2330.7,1029.39,2171.06,1104.81,2087.12,1249.92Z" fill="#fcfdfe"/><path d="M2132.06,865.94l-3.83.73C2092.61,679.77,1944,546.35,1858.6,483.45l2.31-3.14C1946.78,543.54,2096.19,677.73,2132.06,865.94Z" fill="#fcfdfe"/></g></g></g><g id="Deco-1"><path d="M1576,2532c-17.76-4.56-52.4-30.14-58.68-40.53-41.79-69.14-128.44-193.52-113-277.53,2.63-14.34,68.88-19.81,79.56-32,41.39-13.73,56.6-15.93,89.53-48.31,97.23-95.61-70.23-318.25,161.74-360.68,169.91-31.09,301.15,42.29,314.83-213.86S2322,865,2568.38,1075.19c141.39,120.63-41.46,317.37,18.12,486.44,56.61,160.65-22.91,277.38-194.92,348.42s-94.71,151.47-65.68,301.09c34.86,179.73-234.75,177.61-359.14,166C1866.6,2367.81,1605.24,2411.61,1576,2532Z" fill="url(#linear-gradient-2)"/><g clip-path="url(#clip-path-2)"><g style="mix-blend-mode:soft-light"><path d="M1462.14,2360.31l-1.26-3.69c568.19-195.21,959-706.38,1045.41-1367.38l3.87.51C2469.21,1303,2355.21,1593.57,2180.48,1830,1996.79,2078.59,1748.4,2262,1462.14,2360.31Z" fill="#fcfdfe"/><path d="M2349,2284.18c-148.71-69.93-407.74-103.24-577.42-74.25l-.66-3.84c170.35-29.1,430.42,4.34,579.73,74.56Z" fill="#fcfdfe"/><path d="M1573.24,2320.71l-2.24-3.19c73.26-51.39,117.71-137.84,132.15-256.94,10.58-87.33,5.07-189.86-16.38-304.74l3.84-.72c21.52,115.28,27,218.21,16.41,305.93C1692.45,2181.3,1647.44,2268.66,1573.24,2320.71Z" fill="#fcfdfe"/><path d="M2204,1795.49l-2.4-3.07c133.09-104,310.38-114.32,435.68-104.71l-.3,3.89C2512.35,1682,2336.09,1692.3,2204,1795.49Z" fill="#fcfdfe"/><path d="M2389.24,1456.17l-3.83-.76c36.85-186.65-51.08-366-106.77-456.24l3.32-2C2338,1087.88,2426.34,1268.2,2389.24,1456.17Z" fill="#fcfdfe"/></g></g></g><g id="Board"><path d="M2152.81,418.24,491.2,316.9c-38.27-2-72.72,42.06-72.72,79V2651.46c0,51.27,49.68,61.59,87.95,57.47l1646.38-177.25c30.07-3.24,54.35-32.25,54.35-64.81V480C2207.16,447.43,2182.88,419.78,2152.81,418.24Z" opacity="0.75" fill="url(#linear-gradient-5)"/><path d="M2180.14,400.32,515.25,314c-38.27-2-69.44,26.6-69.44,63.86V2651c0,37.25,31.17,64.07,69.44,59.92l1664.89-180.65c30.07-3.26,54.35-32.5,54.35-65.31V462.56C2234.49,429.74,2210.21,401.88,2180.14,400.32Z" fill="#662d91" opacity="0.73" style="mix-blend-mode:soft-light"/><path d="M1503.28,567.77l-569.1,7.5L946.94,440c1-17.58,13-32,28.89-34.58l96.38-15.62c11.35-1.84,21.12-9.74,26.08-21.09l10.45-23.93,252.1,16.41Z" fill="#97a6b7" opacity="0.3" style="mix-blend-mode:multiply"/><path d="M1807.19,480c-2.7-15.3-14.34-26.05-29-26.74l-90.93-4.3c-41.28-1.95-71.54-37.29-70-82.07l3.51-103.75c.65-19.19-12.35-34.56-30.22-35.69l-29.87-1.88c-22.79-1.43-38-22.6-34.76-47.09,5.58-42.78-22.22-79.7-62.52-82.6-40.62-2.92-78.53,29.8-84.58,73.13a49.89,49.89,0,0,1-6.32,18.48c-9.38,15.87-25.83,24.61-41.93,23.59l-30.82-1.94c-18.68-1.17-36.42,12.64-41.15,32.08L1233,346.53c-11.08,45.55-52.89,78.46-97.28,76.36l-99.75-4.71c-16.34-.77-32.37,9.27-39.9,25L935.91,568.92c-4.92,10.3,1.14,21.43,11.87,21.8L1812.85,621c9.47.33,17.51-9.62,15.76-19.51ZM1451.11,185.67c-11.91-.78-20.18-11.7-18.45-24.39s12.81-22.31,24.72-21.5,20.11,11.74,18.38,24.39S1463,186.45,1451.11,185.67Z" fill="url(#linear-gradient-6)"/><path d="M1812.31,482.81c-2.7-15.31-14.33-26.05-29-26.75l-90.94-4.29c-41.27-1.95-71.53-37.3-70-82.07l3.51-103.76c.65-19.18-12.35-34.56-30.21-35.68l-29.88-1.89c-22.78-1.43-38-22.6-34.76-47.08,5.59-42.79-22.22-79.71-62.52-82.61-40.62-2.91-78.53,29.8-84.57,73.13a50.07,50.07,0,0,1-6.32,18.48c-9.39,15.87-25.83,24.61-41.94,23.6l-30.82-1.95c-18.67-1.17-36.42,12.65-41.15,32.09l-25.63,105.31c-11.08,45.55-52.88,78.46-97.28,76.37L1041,421c-16.34-.77-32.37,9.27-39.89,25L941,571.74c-4.92,10.29,1.14,21.42,11.87,21.79L1818,623.82c9.47.34,17.5-9.62,15.76-19.51ZM1456.24,188.48c-11.92-.78-20.19-11.7-18.45-24.39s12.8-22.31,24.71-21.49,20.12,11.73,18.39,24.38S1468.13,189.26,1456.24,188.48Z" fill="#97a6b7"/><path d="M1664.26,540.59c-77.16-50.22-136.37-14.61-184.47-71.25-51.48-60.63-16.76-140.45-70-178.12-34.1-24.11-64.52-2.84-104.19-9.37-14.52-2.39-30-8.48-46.12-20.34l-21.38,87.83c-11.08,45.55-52.88,78.46-97.28,76.37L1041,421c-16.34-.77-32.37,9.27-39.89,25L941,571.74c-4.92,10.29,1.14,21.42,11.87,21.79l786.18,27.53C1719.28,587.91,1694.68,560.38,1664.26,540.59Z" fill="#fff" opacity="0.5" style="mix-blend-mode:soft-light"/><polygon points="1285.2 827.28 781.44 803.03 781.44 701.66 1285.2 729.31 1285.2 827.28" fill="#d8dee8" style="mix-blend-mode:soft-light"/><polygon points="1981.67 941.93 1444.1 919.12 1444.1 822.19 1981.67 848.64 1981.67 941.93" fill="#d8dee8" opacity="0.57" style="mix-blend-mode:overlay"/><polygon points="1981.67 1077.34 1444.1 1059.82 1444.1 962.89 1981.67 984.06 1981.67 1077.34" fill="#d8dee8" style="mix-blend-mode:soft-light"/><polygon points="1275.05 1386.57 788.2 1381.9 788.2 1326.34 1275.05 1332.8 1275.05 1386.57" fill="#d8dee8" opacity="0.69" style="mix-blend-mode:overlay"/><polygon points="1981.67 1477.57 788.2 1473.42 788.2 1417.86 1981.67 1426.41 1981.67 1477.57" fill="#d8dee8" style="mix-blend-mode:soft-light"/><polygon points="1444.1 1556.98 788.2 1558.4 788.2 1502.84 1444.1 1503.83 1444.1 1556.98" fill="#d8dee8" style="mix-blend-mode:overlay"/><polygon points="1173.63 1691.34 788.2 1695.68 788.2 1640.11 1173.63 1637.19 1173.63 1691.34" fill="#d8dee8" style="mix-blend-mode:soft-light"/><polygon points="1981.67 2284.04 788.2 2349.38 788.2 1970.23 1981.67 1934.97 1981.67 2284.04" fill="#d8dee8" opacity="0.6" style="mix-blend-mode:overlay"/></g><g id="Woman"><path d="M1705.72,1107.06a73.92,73.92,0,0,0,12-37.87c.93-35.12-25.13-62.52-28.63-61-1.88.85.51,11.14,1.85,15.7,2.79,9.5,5.79,10.42,5.54,14.78-.52,9-13.48,9.32-20.32,21.24-4.92,8.58-5.31,20.8,0,30.48C1685,1106.48,1704.88,1107.05,1705.72,1107.06Z" fill="url(#linear-gradient-7)"/><polygon points="2262.24 1870.02 2252.23 1835.56 2294.03 1804.58 2320.09 1794.84 2304.66 1843.05 2262.24 1870.02" fill="url(#linear-gradient-8)"/><path d="M2210.49,2564s22.87,57.52,16.85,83c24.55-.48,40.44-3.61,40.44-3.61s-9.87-26.24-11.8-39.23c-2.6-17.57-2.4-46-2.4-46Z" fill="url(#linear-gradient-9)"/><path d="M1958.43,2698.58a18.09,18.09,0,0,1,4.32,10.57,17.18,17.18,0,0,1-1.3,7.08c-3.9,10.26-10,11.61-16.63,22.5-4,6.65-3.27,8.65-7,11.66-4.88,4-10.78,4.18-15.89,4.24a281.75,281.75,0,0,1-36.74-2.08q12.32-15.86,26.22-32.17,6.11-7.12,12.19-13.94l24.12-8.15Z" fill="#26264f"/><path d="M1938.36,2581.43s-13.79,72,3.76,92.12c15,20.15-7.22,5.77-7.22,5.77l-26.48,23.11-15.88,27.44s14.62-70.44,10.72-98.39-5.85-46.8-5.85-46.8Z" fill="url(#linear-gradient-10)"/><path d="M1886.36,1794.25s-37,33.15-37,169.66,17.55,432.91,17.55,432.91L1894.94,2609s29.12,1,48.62-4.81c17.55-80,46.15-215.21,32.5-328.31-5.85-122.85,48.75-276.91,48.75-276.91s46.8,156,80,234,96.26,322.36,102.11,339.92c38.79,3.51,55.36-6.75,55.36-6.75s-24.87-263-48.27-362.42-21.45-339.31-60.45-407.57C2065.76,1761.1,1886.36,1794.25,1886.36,1794.25Z" fill="url(#linear-gradient-11)"/><path d="M1886.36,1794.25s-37,33.15-37,169.66,17.55,432.91,17.55,432.91L1894.94,2609s29.12,1,48.62-4.81c17.55-80,46.15-215.21,32.5-328.31-5.85-122.85,48.75-276.91,48.75-276.91s46.8,156,80,234,96.26,322.36,102.11,339.92c38.79,3.51,55.36-6.75,55.36-6.75s-24.87-263-48.27-362.42-21.45-339.31-60.45-407.57C2065.76,1761.1,1886.36,1794.25,1886.36,1794.25Z" fill="url(#linear-gradient-12)"/><path d="M2078.83,2044.37c11.56,75.1,34.66,115.53,92.43,167.52,46.21,34.66,11.55,109.76,28.88,167.53,5.78,17.33,23.11,34.66,28.89,52,21.49,43,1.41,95.58,11.16,141.1,15.17-2.1,22-6.32,22-6.32s-24.87-263-48.27-362.42-21.45-339.31-60.45-407.57c-87.76-35.1-267.16-2-267.16-2s-37,33.15-37,169.66c0,11.08.11,23.22.33,36.15,38.46,34,117.13,41.61,165.65,3.87a23.08,23.08,0,0,1,9.27-4.2l.25-.72s.08.27.21.68C2047.1,1995.66,2073.82,2024.33,2078.83,2044.37Z" opacity="0.25" fill="url(#linear-gradient-13)" style="mix-blend-mode:multiply"/><path d="M2221.33,2668.9s-5.7,0-5.23,7.36-2.56,32.68,26.4,33.87,33.44-2.05,34.39-2.05-7.6-24.22-7.6-24.22L2260,2672l-24.93-2.62Z" fill="#26264f"/><path d="M2285.56,2694.32c-.62-6.12-4-15.74-7.48-23.49-5.12-11.51-.92-15.81-5.81-26.29-1.69-3.63-3.33-7.06-6.9-10.47-.82-.78-8.81-8.17-20.46-7.79a20.65,20.65,0,0,0-9.63,2.26c-4.49,2.39-6.74,6-8.66,9.14-3,5-2.33,6.48-7,20.7a52,52,0,0,0-2.59,13.37c7.6,0,36.81,1.19,43,5.7s9.26,12.11,9.26,19.71,3.8,11.16,7.6,10.92C2280.29,2707.87,2287,2701.58,2285.56,2694.32Z" fill="#444b8c"/><path d="M1934.66,2663.44c6.52.1,11.31,5.29,14.92,17.81s20.94,23.59.72,20.94-34.9,26-42.12,36.58-26.6,20-26.12,9.65,9-15.18,11.44-25.77S1919.77,2663.2,1934.66,2663.44Z" fill="#444b8c"/><path d="M2277.59,1810.73c4.79-13.34,34.74-101-13.66-180.87-39.62-65.42-108.18-86.76-117.95-89.65-59.51-17.57-89.33,5-108.11-15.77-31.86-35.26,4.23-155.36,74-179.42,78.69-27.12,173.09,77.15,211.35,145.64,50.18,89.85,37.83,179.15,34.93,197.54a308.22,308.22,0,0,1-38.1,106.64Z" fill="url(#linear-gradient-14)"/><path d="M2072.09,1328.07c-70.24-2.81-124.4-1.7-155,28.88-32.32,32.3.34,68.76-6.68,153.24-10.74,129.35-93.17,161-99.37,292.17a335.19,335.19,0,0,0,11.2,102.12c18.09,22.52,47.7,54.32,91.39,80.9,63.59,38.68,100.46,31.94,191.77,56.93,149.37,40.88,162.66,89.56,236.72,77.16,74.85-12.54,140.52-75.53,132.59-110.12-4.75-20.72-34.92-14.85-69.67-46.44-44.77-40.73-27.5-79.6-61.54-123.36-48.9-62.85-117-24.43-158.69-78.9-42.15-55.11-25.43-163.69,10.1-222.88,23.2-38.66,33.14-84,52.89-124.5a28.23,28.23,0,0,0,2.71-15.79c-3.21-26.4-47.22-40.72-80.55-51.23C2119.13,1330.23,2077.87,1328.3,2072.09,1328.07Z" fill="url(#linear-gradient-15)"/><path d="M2012.93,1325.16l13.85-4.26s3.63,18.75,48.17,21.1a66.54,66.54,0,0,0,40.7-13.85l9.47,6.9s-20.77,25.94-53.79,25.28C2028.7,1359.47,2012.93,1325.16,2012.93,1325.16Z" fill="url(#linear-gradient-16)"/><path d="M2041.14,1268.11c2.67-20.6,19-33.8,22.51-36.62,14.87-11.83,17.9-13,23-14l7-1.06.76,0c4.09.24,16.33,5,18.56,6.59,7.11,5,1.87,40.41-19.69,84.46q-1.26,5.6-2.54,11.19c18.79,3.3,23.44,6.69,23.59,9.4.32,5.86-20.25,13.34-39.32,13.83-23.91.6-49.29-9.68-48.81-17.36.2-3.11,4.71-6.94,22.07-10.7l8.14-11.45C2053.93,1299.46,2039.17,1283.28,2041.14,1268.11Z" fill="url(#linear-gradient-17)"/><path d="M2070.69,1260.35c5.43-3.24,9.56,3.73,7,9.83s-11.13,9.92-16.34,6.28S2063.4,1264.72,2070.69,1260.35Z" fill="url(#linear-gradient-18)"/><path d="M2773.6,1260.25c-71.38-77.46-237.48-56.22-329.6,6-42.81,28.91-64.78,63.06-115.36,65.92-38.46,2.18-99.63-12.28-131.85-53.93-4.05-5.25-20.29-27.26-44.66-55-10.75-12.24-21.44-23.72-38-26.32-4.21-.66-18.21-2.94-27.47,6.1-7.5,7.33-9.34,20.07-7.12,29.25,1.33,5.49,3,6.07,2.8,9.66-.69,10.1-19.08,14.5-18.06,19.59.73,3.63,10.3,2.3,11.95,6.86,1.81,5-8.7,9.3-13.22,21.87-8.46,5.67-13.81,19.77-15.66,38.63-2.72,27.73.07,50.26,5.32,67.23,25.3,81.71,43.4,140.15,87.19,172.79,58,43.21,110.2,3.31,257.69-3,202-8.64,252.33,59.82,324.91,13C2813.1,1520.39,2847.72,1340.67,2773.6,1260.25Z" fill="url(#linear-gradient-19)"/><path d="M1714.25,1102.14c-1.8,16.9-7.89,91.65,43.67,154.77,48.18,59,116.42,70.76,129.1,72.68,61.35,9.27,87.81-17.17,109.25.84,36.38,30.58,17,154.48-48.81,187.86-74.25,37.62-182-52.76-229.27-115.38-62-82.14-62-172.29-61.62-190.91a308.21,308.21,0,0,1,23.16-110.84,54.78,54.78,0,0,1,34.52,1Z" fill="url(#linear-gradient-20)"/><path d="M2344.37,2070c-18-18.42,1.81-55.55-24.72-83.15-24.63-25.62-52.5-4.93-92.14-27-50.84-28.28-36.83-80-85.4-107.87-34.92-20-51.33,1.5-105.62-9s-120.21-47.84-152.82-114.61a197,197,0,0,1-19.64-81.79c-24.38,43.55-49.66,85.28-53,155.71a335.19,335.19,0,0,0,11.2,102.12c18.09,22.52,47.7,54.32,91.39,80.9,63.59,38.68,100.46,31.94,191.77,56.93,149.37,40.88,162.66,89.56,236.72,77.16,47.84-8,91.82-36.63,115.34-65.28C2388.44,2084.92,2357.4,2083.39,2344.37,2070Z" opacity="0.3" fill="url(#linear-gradient-21)" style="mix-blend-mode:multiply"/></g><g id="Email" opacity="0.8"><path d="M2540.53,937.28l-797.31,28c-30.19,0-55-25.62-55-57l0-386.41c0-31.38,24.78-56.49,55-55.81l795.64,25.12c27.53.63,50,25.56,49.94,55.4l-.44,367.57C2588.29,944,2568.06,937.17,2540.53,937.28Z" fill="url(#linear-gradient-22)"/><polygon points="2319.47 916.25 2319.81 1066.18 2334.48 1072.83 2439.78 921.44 2319.47 916.25" fill="url(#linear-gradient-23)"/><path d="M2554.27,969l-798.35-3.09c-30.3,0-55.15-25.75-55.16-57.24l0-388.22c0-31.52,24.86-56.76,55.18-56.09l798.92,25.11c27.64.62,50.18,25.67,50.14,55.66l-.45,369.39C2604.47,944.5,2581.89,969,2554.27,969Z" fill="url(#linear-gradient-24)"/><polygon points="2334.61 915.26 2334.48 1072.83 2455.39 920.44 2334.61 915.26" fill="url(#linear-gradient-25)"/><path d="M2369.91,588.45l-385.26-15.56a23.52,23.52,0,0,0-17.13,6.23,22.52,22.52,0,0,0-7.28,16.39l-2.7,242.32a29.72,29.72,0,0,0,9.34,22,31.1,31.1,0,0,0,21.22,8.68h1.34l378.2-3.36A29.5,29.5,0,0,0,2396.26,836l2.59-217A30.35,30.35,0,0,0,2369.91,588.45Zm1.59,35.78L2234.12,743.39a47.35,47.35,0,0,1-32,11.62,48.5,48.5,0,0,1-27.51-9.28L1992.75,614.07a6.67,6.67,0,0,1-1.54-9.41,6.94,6.94,0,0,1,9.59-1.34l181.65,131.73a34.36,34.36,0,0,0,42.86-1.66l137.54-119.14a6.6,6.6,0,0,1,8.65,10Z" fill="#fff"/></g><g id="Gear" opacity="0.84"><path d="M971.65,2489c33.38,16.95,75.33,1.39,93.68-34.76s6.17-79.2-27.22-96.15c-1.73-.88-3.49-1.62-5.26-2.33a422.71,422.71,0,0,0,14-60.33c1.92,0,3.84,0,5.79-.21,38.09-3.39,68.32-38.39,67.52-78.18s-32.32-69.28-70.41-65.88c-2,.17-4,.49-5.89.83a388.33,388.33,0,0,0-16.31-57.61c1.75-1,3.5-2.08,5.2-3.28,32.59-22.83,43-67.89,23.27-100.65s-62.15-40.79-94.74-18c-1.67,1.17-3.24,2.43-4.79,3.71a344.69,344.69,0,0,0-42.27-39.45c1.08-1.76,2.13-3.54,3.08-5.42,18.35-36.15,42.34-75.63,8.69-92.06-77.84-38-111.24-5.47-129.59,30.68-.95,1.87-1.77,3.77-2.56,5.68a343.63,343.63,0,0,0-56.79-10.84c.12-2,.21-4,.17-6.06-.8-39.78,11-61.31-27.23-62.06-83.37-1.62-111.5,34.57-110.71,74.35.05,2.08.22,4.11.42,6.13A387.79,387.79,0,0,0,543.58,1898c-.87-1.78-1.77-3.54-2.8-5.26C521,1860,478.63,1852,446,1874.81s-43,67.89-23.27,100.65c1,1.68,2.11,3.24,3.24,4.79a424.5,424.5,0,0,0-40.44,46.92c-1.61-1-3.25-2-5-2.88-33.39-17-75.33-1.39-93.68,34.76s-6.17,79.2,27.21,96.15c1.73.88,3.5,1.62,5.27,2.32a424.74,424.74,0,0,0-14,60.33c-1.91,0-3.83,0-5.78.21-38.09,3.4-68.32,38.4-67.53,78.19s32.33,69.28,70.42,65.88c2-.18,3.94-.49,5.89-.84a389.29,389.29,0,0,0,16.3,57.62c-1.75,1-3.49,2.08-5.19,3.27-32.59,22.83-43,67.9-23.27,100.65s85.07,48,117.66,25.14c1.67-1.17-19.68-9.6-18.13-10.88A345.38,345.38,0,0,0,438,2576.54c-1.07,1.76-2.12,3.54-3.07,5.41-18.36,36.15-6.17,79.2,27.21,96.15s75.34,1.39,93.69-34.76c.95-1.88,1.77-3.78,2.56-5.68a344.47,344.47,0,0,0,56.79,10.84c-.12,2-.22,4-.18,6.06.8,39.78,32.33,69.28,70.42,65.89s68.32-38.4,67.52-78.19c0-2.07-.21-4.11-.42-6.13a387.86,387.86,0,0,0,56.14-20.83c.87,1.78,1.77,3.54,2.8,5.25,19.73,32.76,62.15,40.8,94.74,18s43-67.89,23.27-100.65c-1-1.68-2.12-3.25-3.24-4.79a424.42,424.42,0,0,0,40.43-46.92C968.28,2487.17,969.92,2488.16,971.65,2489Zm-416.2,5.28c-121.21-61.54-165.46-217.84-98.82-349.09S675.56,1957.46,796.78,2019s165.46,217.84,98.82,349.09S676.67,2555.87,555.45,2494.32Z" fill="url(#linear-gradient-26)"/><path d="M1052.65,2295.26c38.09-3.39,68.32-38.4,67.52-78.18s-32.32-69.28-70.41-65.88c-2,.17-4,.49-5.89.83a388.33,388.33,0,0,0-16.31-57.61c1.75-1,3.5-2.08,5.2-3.28,32.59-22.83,72.9-78,49.91-108.55-43.63-58-88.79-32.89-121.38-10.06-1.67,1.17-3.24,2.43-4.79,3.71a344.69,344.69,0,0,0-42.27-39.45c1.08-1.76,2.13-3.54,3.08-5.41a75.84,75.84,0,0,0,4.27-59.81q-47.21,83.1-93,167c96.7,70.86,127.49,210.51,67,329.56-51.22,100.89-153,157.54-252.46,150.44-4.44,11.5-8.79,23.07-13.54,34.46-12.89,30.91-27.53,61.18-42.19,91.42q13.83,2.61,27.77,4.08c-.12,2-.22,4-.18,6.06.8,39.78,25,73.58,94,69.92,38.19-2,44.75-42.43,44-82.22,0-2.07-.21-4.11-.42-6.13a387.86,387.86,0,0,0,56.14-20.83c.87,1.78,1.77,3.54,2.8,5.25,19.73,32.76,88.2,46.67,120.79,23.84s17-73.76-2.78-106.52c-1-1.68-2.12-3.25-3.24-4.8a422.33,422.33,0,0,0,40.43-46.91c1.62,1,3.26,2,5,2.88,33.38,16.95,75.33,1.38,93.68-34.77s6.17-79.19-27.22-96.14c-1.73-.88-3.49-1.62-5.26-2.33a422.71,422.71,0,0,0,14-60.33C1048.78,2295.47,1050.7,2295.44,1052.65,2295.26Z" fill="url(#linear-gradient-27)"/><path d="M1088.56,2299.35c38.09-3.4,68.32-38.4,67.52-78.19s-32.32-69.28-70.41-65.88c-2,.18-4,.49-5.89.84a388.11,388.11,0,0,0-16.31-57.62c1.75-1,3.5-2.08,5.2-3.27,32.59-22.83,43-67.9,23.27-100.65s-62.15-40.8-94.74-18c-1.67,1.17-3.24,2.43-4.8,3.72a343.83,343.83,0,0,0-42.26-39.45c1.07-1.77,2.13-3.55,3.08-5.42,18.35-36.15,6.17-79.2-27.22-96.15s-75.33-1.39-93.69,34.76c-.95,1.88-1.77,3.78-2.55,5.68A345.71,345.71,0,0,0,773,1868.91c.12-2,.21-4,.17-6.06-.8-39.78-32.32-69.28-70.41-65.88s-68.33,38.39-67.53,78.18c0,2.08.22,4.11.42,6.13a387.74,387.74,0,0,0-56.13,20.83c-.87-1.78-1.77-3.54-2.8-5.25-19.74-32.76-62.16-40.8-94.75-18s-43,67.9-23.27,100.65c1,1.68,2.12,3.25,3.25,4.8a423.47,423.47,0,0,0-40.44,46.91c-1.61-1-3.25-2-5-2.88-33.39-16.95-75.33-1.38-93.69,34.76s-6.16,79.2,27.22,96.15c1.73.88,3.5,1.62,5.27,2.33a424.11,424.11,0,0,0-14,60.33c-1.91,0-3.83,0-5.78.21-38.09,3.39-68.33,38.4-67.53,78.18s32.33,69.28,70.42,65.88c2-.17,3.94-.49,5.89-.83a389.51,389.51,0,0,0,16.3,57.61c-1.75,1-3.49,2.08-5.19,3.28-32.59,22.83-43,67.89-23.28,100.65s62.16,40.8,94.75,18c1.67-1.18,3.24-2.44,4.79-3.72a343.83,343.83,0,0,0,42.26,39.45c-1.07,1.76-2.12,3.54-3.07,5.42-18.36,36.15-6.17,79.19,27.21,96.14s75.33,1.39,93.69-34.76c1-1.87,1.77-3.77,2.56-5.68a344.55,344.55,0,0,0,56.78,10.84c-.11,2-.21,4-.17,6.06.8,39.78,32.33,69.28,70.42,65.89s68.32-38.4,67.52-78.18c0-2.08-.21-4.11-.42-6.13a389,389,0,0,0,56.14-20.83c.86,1.77,1.77,3.53,2.8,5.24,19.73,32.76,62.15,40.8,94.74,18s43-67.89,23.27-100.65c-1-1.67-2.12-3.24-3.24-4.79a423.5,423.5,0,0,0,40.43-46.92c1.62,1,3.25,2,5,2.88,33.38,17,75.32,1.39,93.68-34.76s6.17-79.2-27.22-96.15c-1.73-.88-3.49-1.62-5.26-2.32a423.34,423.34,0,0,0,14-60.33C1084.69,2299.55,1086.61,2299.52,1088.56,2299.35Zm-141.49,80.73c-71.37,140.56-234.45,201.07-364.26,135.16S405.63,2282,477,2141.41s234.44-201.07,364.25-135.16S1018.43,2239.52,947.07,2380.08Z" fill="url(#linear-gradient-28)"/></g></g></g></svg>