<!-- Animated using SVGANIMA - https://svganima.com -->
<svg xmlns="http://www.w3.org/2000/svg" xmlns:xlink="http://www.w3.org/1999/xlink"
    viewBox="0 0 2919.93 2837.05" id="svg3109" preserveAspectRatio="xMidYMid" width="NaN"
    height="NaN">
    <defs id="defs5330">
        <linearGradient id="linear-gradient" x1="1811.49" y1="520.36" x2="2303.79" y2="3667.54"
            gradientUnits="userSpaceOnUse">
            <stop offset="0" stop-color="#aa80f9" id="stop7843"></stop>
            <stop offset="1" stop-color="#6165d7" id="stop3645"></stop>
        </linearGradient>
        <linearGradient id="linear-gradient-2" x1="1922.7" y1="1137.54" x2="2324.39" y2="3705.48"
            gradientUnits="userSpaceOnUse">
            <stop offset="0" stop-color="#e38ddd" id="stop4614"></stop>
            <stop offset="1" stop-color="#9571f6" id="stop3211"></stop>
        </linearGradient>
        <clipPath id="clip-path">
            <path
                d=" M 1780.09,2167.85 c -18.19,2.41 -59.87 -8.36 -69.58 -15.65 -64.62 -48.5 -191.49 -131.45 -208.62 -215.13 -2.92 -14.29,56.47 -44.12,61.84 -59.39,33.25 -28.21,46.54 -35.93,65 -78.28,54.42 -125 -184.14 -268.9,15.14 -395,146 -92.36,295.12 -73.38,212 -316.07 s -7.22 -745.55,299.88 -642.72 C 2332,504.62,2236,755.46,2354.45,890 c 112.57,127.83,82.46,265.83 -50.5,396 s -31.2,175.89,51.66,303.81 c 99.54,153.65 -151.3,252.5 -271,288.25 C 1988.22,1906.88,1762.2,2045.23,1780.09,2167.85 Z "
                fill="url(#linear-gradient)" id="path2528"></path>
        </clipPath>
        <clipPath id="clip-path-2">
            <path
                d=" M 1576,2532 c -17.76 -4.56 -52.4 -30.14 -58.68 -40.53 -41.79 -69.14 -128.44 -193.52 -113 -277.53,2.63 -14.34,68.88 -19.81,79.56 -32,41.39 -13.73,56.6 -15.93,89.53 -48.31,97.23 -95.61 -70.23 -318.25,161.74 -360.68,169.91 -31.09,301.15,42.29,314.83 -213.86 S 2322,865,2568.38,1075.19 c 141.39,120.63 -41.46,317.37,18.12,486.44,56.61,160.65 -22.91,277.38 -194.92,348.42 s -94.71,151.47 -65.68,301.09 c 34.86,179.73 -234.75,177.61 -359.14,166 C 1866.6,2367.81,1605.24,2411.61,1576,2532 Z "
                fill="url(#linear-gradient-2)" id="path5897"></path>
        </clipPath>
        <linearGradient id="linear-gradient-5" x1="665.33" y1="2708.79" x2="1744.31" y2="579.23"
            gradientUnits="userSpaceOnUse">
            <stop offset="0.06" stop-color="#cce0f4" stop-opacity="0.45" id="stop6474"></stop>
            <stop offset="0.18" stop-color="#b7d5ee" stop-opacity="0.51" id="stop2080"></stop>
            <stop offset="0.38" stop-color="#7fb7e0" stop-opacity="0.66" id="stop8588"></stop>
            <stop offset="0.64" stop-color="#2387c7" stop-opacity="0.91" id="stop819"></stop>
            <stop offset="0.73" stop-color="#0075be" id="stop158"></stop>
        </linearGradient>
        <linearGradient id="linear-gradient-6" x1="934.18" y1="358.36" x2="1828.85" y2="358.36"
            gradientUnits="userSpaceOnUse">
            <stop offset="0" stop-color="#444b8c" id="stop3967"></stop>
            <stop offset="1" stop-color="#26264f" id="stop6995"></stop>
        </linearGradient>
        <linearGradient id="linear-gradient-7" x1="1707.83" y1="1040.69" x2="1667.62" y2="1105.73"
            gradientUnits="userSpaceOnUse">
            <stop offset="0" stop-color="#ffc444" id="stop3536"></stop>
            <stop offset="1" stop-color="#f36f56" id="stop6234"></stop>
        </linearGradient>
        <linearGradient id="linear-gradient-8" x1="2280.47" y1="1810.42" x2="2296.7" y2="1843.8"
            xlink:href="#linear-gradient-7"></linearGradient>
        <linearGradient id="linear-gradient-9" x1="989.57" y1="2660.55" x2="989.57" y2="2555.82"
            gradientTransform="translate(1249.56)" xlink:href="#linear-gradient-7"></linearGradient>
        <linearGradient id="linear-gradient-10" x1="670.35" y1="2690.39" x2="670.35" y2="2564.18"
            gradientTransform="translate(1249.56)" xlink:href="#linear-gradient-7"></linearGradient>
        <linearGradient id="linear-gradient-11" x1="599.74" y1="2194.6" x2="1012.68" y2="2194.6"
            gradientTransform="translate(1249.56)" gradientUnits="userSpaceOnUse">
            <stop offset="0" stop-color="#311944" id="stop30"></stop>
            <stop offset="1" stop-color="#893976" id="stop2673"></stop>
        </linearGradient>
        <linearGradient id="linear-gradient-12" x1="586.62" y1="1886.77" x2="884.12" y2="2386.45"
            xlink:href="#linear-gradient-11"></linearGradient>
        <linearGradient id="linear-gradient-13" x1="703.74" y1="1817.05" x2="1001.23" y2="2316.73"
            xlink:href="#linear-gradient-11"></linearGradient>
        <linearGradient id="linear-gradient-14" x1="2026.19" y1="1575.67" x2="2361.64" y2="1575.67"
            gradientUnits="userSpaceOnUse">
            <stop offset="0" stop-color="#fcb148" id="stop6347"></stop>
            <stop offset="0.05" stop-color="#fdba46" id="stop3292"></stop>
            <stop offset="0.14" stop-color="#ffc244" id="stop93"></stop>
            <stop offset="0.32" stop-color="#ffc444" id="stop6569"></stop>
            <stop offset="0.48" stop-color="#fdb946" id="stop7017"></stop>
            <stop offset="0.78" stop-color="#f99c4d" id="stop4896"></stop>
            <stop offset="0.87" stop-color="#f8924f" id="stop677"></stop>
            <stop offset="1" stop-color="#f8924f" id="stop4393"></stop>
        </linearGradient>
        <linearGradient id="linear-gradient-15" x1="2143.02" y1="1098.84" x2="2143.02" y2="2143.55"
            xlink:href="#linear-gradient-14"></linearGradient>
        <linearGradient id="linear-gradient-16" x1="780.22" y1="1267.95" x2="841.2" y2="1364.87"
            gradientTransform="translate(1249.56)" xlink:href="#linear-gradient-2"></linearGradient>
        <linearGradient id="linear-gradient-17" x1="853.84" y1="1253.08" x2="786.82" y2="1361.49"
            gradientTransform="translate(1249.56)" xlink:href="#linear-gradient-7"></linearGradient>
        <linearGradient id="linear-gradient-18" x1="280.68" y1="795.49" x2="215.83" y2="900.4"
            gradientTransform="translate(1618.84 531.69) rotate(-13.66)"
            xlink:href="#linear-gradient-7"></linearGradient>
        <linearGradient id="linear-gradient-19" x1="2059.76" y1="790.03" x2="2621.41" y2="1682.74"
            xlink:href="#linear-gradient-6"></linearGradient>
        <linearGradient id="linear-gradient-20" x1="1835.47" y1="1098.83" x2="1835.47" y2="2143.54"
            xlink:href="#linear-gradient-14"></linearGradient>
        <linearGradient id="linear-gradient-21" x1="1844.73" y1="1372.46" x2="2163.82" y2="2028.62"
            xlink:href="#linear-gradient-14"></linearGradient>
        <linearGradient id="linear-gradient-22" x1="1688.2" y1="715.65" x2="2588.77" y2="715.65"
            gradientTransform="matrix(1, 0, 0, 1, 0, 0)" xlink:href="#linear-gradient-11"></linearGradient>
        <linearGradient id="linear-gradient-23" x1="2319.46" y1="994.54" x2="2439.78" y2="994.54"
            gradientTransform="matrix(1, 0, 0, 1, 0, 0)" xlink:href="#linear-gradient-11"></linearGradient>
        <linearGradient id="linear-gradient-24" x1="2082.74" y1="268.03" x2="2265.31" y2="1462.63"
            gradientUnits="userSpaceOnUse">
            <stop offset="0" stop-color="#ff9085" id="stop4977"></stop>
            <stop offset="1" stop-color="#fb6fbb" id="stop8310"></stop>
        </linearGradient>
        <linearGradient id="linear-gradient-25" x1="2279" y1="238.04" x2="2461.57" y2="1432.64"
            xlink:href="#linear-gradient-24"></linearGradient>
        <linearGradient id="linear-gradient-26" x1="419.03" y1="2083.51" x2="2312.25" y2="3289.6"
            gradientUnits="userSpaceOnUse">
            <stop offset="0" stop-color="#ab316d" id="stop8538"></stop>
            <stop offset="1" stop-color="#792d3d" id="stop7571"></stop>
        </linearGradient>
        <linearGradient id="linear-gradient-27" x1="429.86" y1="2066.5" x2="2323.09" y2="3272.6"
            xlink:href="#linear-gradient-26"></linearGradient>
        <linearGradient id="linear-gradient-28" x1="446.95" y1="1866.3" x2="1539.98" y2="3492.79"
            xlink:href="#linear-gradient-24"></linearGradient>
    </defs>
    <g style="isolation:isolate" id="g2392">
        <g id="Illustration">
            <g id="Deco-2">
                <path
                    d=" M 1780.09,2167.85 c -18.19,2.41 -59.87 -8.36 -69.58 -15.65 -64.62 -48.5 -191.49 -131.45 -208.62 -215.13 -2.92 -14.29,56.47 -44.12,61.84 -59.39,33.25 -28.21,46.54 -35.93,65 -78.28,54.42 -125 -184.14 -268.9,15.14 -395,146 -92.36,295.12 -73.38,212 -316.07 s -7.22 -745.55,299.88 -642.72 C 2332,504.62,2236,755.46,2354.45,890 c 112.57,127.83,82.46,265.83 -50.5,396 s -31.2,175.89,51.66,303.81 c 99.54,153.65 -151.3,252.5 -271,288.25 C 1988.22,1906.88,1762.2,2045.23,1780.09,2167.85 Z "
                    fill="url(#linear-gradient)" id="path3956"></path>
                <g clip-path="url(#clip-path)" id="g4325">
                    <g style="mix-blend-mode:soft-light" id="g8559">
                        <path
                            d=" M 1610.29,2051.15 l -2.55 -3 c 454 -393.51,625.31 -1013.73,458.29 -1659.09 l 3.77 -1 c 79.16,305.85,82.08,618,8.44,902.58 C 2000.82,1590,1839,1852.9,1610.29,2051.15 Z "
                            fill="#fcfdfe" id="path5323"></path>
                        <path
                            d=" M 2404.31,1649 c -164.07 -9.26 -416.76,56.71 -563.29,147 l -2 -3.32 c 147.11 -90.69,400.82 -156.91,565.56 -147.62 Z "
                            fill="#fcfdfe" id="path9492"></path>
                        <path
                            d=" M 1698.53,1972.88 l -3.27 -2.12 c 48.72 -75,57.63 -171.85,26.48 -287.71 -22.84 -85 -66.29 -178 -129.14 -276.51 l 3.29 -2.1 c 63.06,98.86,106.67,192.26,129.62,277.6 C 1757,1799,1747.88,1896.86,1698.53,1972.88 Z "
                            fill="#fcfdfe" id="path5651"></path>
                        <path
                            d=" M 2087.12,1249.92 l -3.38 -2 c 84.57 -146.18,245.13 -222.08,364.93 -260 l 1.18,3.72 C 2330.7,1029.39,2171.06,1104.81,2087.12,1249.92 Z "
                            fill="#fcfdfe" id="path2641"></path>
                        <path
                            d=" M 2132.06,865.94 l -3.83 0.73 C 2092.61,679.77,1944,546.35,1858.6,483.45 l 2.31 -3.14 C 1946.78,543.54,2096.19,677.73,2132.06,865.94 Z "
                            fill="#fcfdfe" id="path2384"></path>
                    </g>
                </g>
            </g>
            <g id="Deco-1">
                <path
                    d=" M 1576,2532 c -17.76 -4.56 -52.4 -30.14 -58.68 -40.53 -41.79 -69.14 -128.44 -193.52 -113 -277.53,2.63 -14.34,68.88 -19.81,79.56 -32,41.39 -13.73,56.6 -15.93,89.53 -48.31,97.23 -95.61 -70.23 -318.25,161.74 -360.68,169.91 -31.09,301.15,42.29,314.83 -213.86 S 2322,865,2568.38,1075.19 c 141.39,120.63 -41.46,317.37,18.12,486.44,56.61,160.65 -22.91,277.38 -194.92,348.42 s -94.71,151.47 -65.68,301.09 c 34.86,179.73 -234.75,177.61 -359.14,166 C 1866.6,2367.81,1605.24,2411.61,1576,2532 Z "
                    fill="url(#linear-gradient-2)" id="path2043"></path>
                <g clip-path="url(#clip-path-2)" id="g9267">
                    <g style="mix-blend-mode:soft-light" id="g5167">
                        <path
                            d=" M 1462.14,2360.31 l -1.26 -3.69 c 568.19 -195.21,959 -706.38,1045.41 -1367.38 l 3.87 0.51 C 2469.21,1303,2355.21,1593.57,2180.48,1830,1996.79,2078.59,1748.4,2262,1462.14,2360.31 Z "
                            fill="#fcfdfe" id="path5266"></path>
                        <path
                            d=" M 2349,2284.18 c -148.71 -69.93 -407.74 -103.24 -577.42 -74.25 l -0.66 -3.84 c 170.35 -29.1,430.42,4.34,579.73,74.56 Z "
                            fill="#fcfdfe" id="path5957"></path>
                        <path
                            d=" M 1573.24,2320.71 l -2.24 -3.19 c 73.26 -51.39,117.71 -137.84,132.15 -256.94,10.58 -87.33,5.07 -189.86 -16.38 -304.74 l 3.84 -0.72 c 21.52,115.28,27,218.21,16.41,305.93 C 1692.45,2181.3,1647.44,2268.66,1573.24,2320.71 Z "
                            fill="#fcfdfe" id="path2749"></path>
                        <path
                            d=" M 2204,1795.49 l -2.4 -3.07 c 133.09 -104,310.38 -114.32,435.68 -104.71 l -0.3,3.89 C 2512.35,1682,2336.09,1692.3,2204,1795.49 Z "
                            fill="#fcfdfe" id="path6578"></path>
                        <path
                            d=" M 2389.24,1456.17 l -3.83 -0.76 c 36.85 -186.65 -51.08 -366 -106.77 -456.24 l 3.32 -2 C 2338,1087.88,2426.34,1268.2,2389.24,1456.17 Z "
                            fill="#fcfdfe" id="path5714"></path>
                    </g>
                </g>
            </g>
            <g id="Board">
                <path
                    d=" M 2152.81,418.24,491.2,316.9 c -38.27 -2 -72.72,42.06 -72.72,79 V 2651.46 c 0,51.27,49.68,61.59,87.95,57.47 l 1646.38 -177.25 c 30.07 -3.24,54.35 -32.25,54.35 -64.81 V 480 C 2207.16,447.43,2182.88,419.78,2152.81,418.24 Z "
                    opacity="0.75" fill="url(#linear-gradient-5)" id="path3199"></path>
                <path
                    d=" M 2180.14,400.32,515.25,314 c -38.27 -2 -69.44,26.6 -69.44,63.86 V 2651 c 0,37.25,31.17,64.07,69.44,59.92 l 1664.89 -180.65 c 30.07 -3.26,54.35 -32.5,54.35 -65.31 V 462.56 C 2234.49,429.74,2210.21,401.88,2180.14,400.32 Z "
                    fill="#662d91" opacity="0.73" style="mix-blend-mode:soft-light" id="path5007"></path>
                <path
                    d=" M 1503.28,567.77 l -569.1,7.5 L 946.94,440 c 1 -17.58,13 -32,28.89 -34.58 l 96.38 -15.62 c 11.35 -1.84,21.12 -9.74,26.08 -21.09 l 10.45 -23.93,252.1,16.41 Z "
                    fill="#97a6b7" opacity="0.3" style="mix-blend-mode:multiply" id="path9339"></path>
                <path
                    d=" M 1807.19,480 c -2.7 -15.3 -14.34 -26.05 -29 -26.74 l -90.93 -4.3 c -41.28 -1.95 -71.54 -37.29 -70 -82.07 l 3.51 -103.75 c 0.65 -19.19 -12.35 -34.56 -30.22 -35.69 l -29.87 -1.88 c -22.79 -1.43 -38 -22.6 -34.76 -47.09,5.58 -42.78 -22.22 -79.7 -62.52 -82.6 -40.62 -2.92 -78.53,29.8 -84.58,73.13 a 49.89,49.89,0,0,1 -6.32,18.48 c -9.38,15.87 -25.83,24.61 -41.93,23.59 l -30.82 -1.94 c -18.68 -1.17 -36.42,12.64 -41.15,32.08 L 1233,346.53 c -11.08,45.55 -52.89,78.46 -97.28,76.36 l -99.75 -4.71 c -16.34 -0.77 -32.37,9.27 -39.9,25 L 935.91,568.92 c -4.92,10.3,1.14,21.43,11.87,21.8 L 1812.85,621 c 9.47 0.33,17.51 -9.62,15.76 -19.51 Z M 1451.11,185.67 c -11.91 -0.78 -20.18 -11.7 -18.45 -24.39 s 12.81 -22.31,24.72 -21.5,20.11,11.74,18.38,24.39 S 1463,186.45,1451.11,185.67 Z "
                    fill="url(#linear-gradient-6)" id="path9211"></path>
                <path
                    d=" M 1812.31,482.81 c -2.7 -15.31 -14.33 -26.05 -29 -26.75 l -90.94 -4.29 c -41.27 -1.95 -71.53 -37.3 -70 -82.07 l 3.51 -103.76 c 0.65 -19.18 -12.35 -34.56 -30.21 -35.68 l -29.88 -1.89 c -22.78 -1.43 -38 -22.6 -34.76 -47.08,5.59 -42.79 -22.22 -79.71 -62.52 -82.61 -40.62 -2.91 -78.53,29.8 -84.57,73.13 a 50.07,50.07,0,0,1 -6.32,18.48 c -9.39,15.87 -25.83,24.61 -41.94,23.6 l -30.82 -1.95 c -18.67 -1.17 -36.42,12.65 -41.15,32.09 l -25.63,105.31 c -11.08,45.55 -52.88,78.46 -97.28,76.37 L 1041,421 c -16.34 -0.77 -32.37,9.27 -39.89,25 L 941,571.74 c -4.92,10.29,1.14,21.42,11.87,21.79 L 1818,623.82 c 9.47 0.34,17.5 -9.62,15.76 -19.51 Z M 1456.24,188.48 c -11.92 -0.78 -20.19 -11.7 -18.45 -24.39 s 12.8 -22.31,24.71 -21.49,20.12,11.73,18.39,24.38 S 1468.13,189.26,1456.24,188.48 Z "
                    fill="#97a6b7" id="path7781"></path>
                <path
                    d=" M 1664.26,540.59 c -77.16 -50.22 -136.37 -14.61 -184.47 -71.25 -51.48 -60.63 -16.76 -140.45 -70 -178.12 -34.1 -24.11 -64.52 -2.84 -104.19 -9.37 -14.52 -2.39 -30 -8.48 -46.12 -20.34 l -21.38,87.83 c -11.08,45.55 -52.88,78.46 -97.28,76.37 L 1041,421 c -16.34 -0.77 -32.37,9.27 -39.89,25 L 941,571.74 c -4.92,10.29,1.14,21.42,11.87,21.79 l 786.18,27.53 C 1719.28,587.91,1694.68,560.38,1664.26,540.59 Z "
                    fill="#fff" opacity="0.5" style="mix-blend-mode:soft-light" id="path6535"></path>
                <polygon
                    points="1285.2 827.28 781.44 803.03 781.44 701.66 1285.2 729.31 1285.2 827.28"
                    fill="#d8dee8" style="mix-blend-mode:soft-light" id="polygon7358"></polygon>
                <polygon
                    points="1981.67 941.93 1444.1 919.12 1444.1 822.19 1981.67 848.64 1981.67 941.93"
                    fill="#d8dee8" opacity="0.57" style="mix-blend-mode:overlay" id="polygon3597"></polygon>
                <polygon
                    points="1981.67 1077.34 1444.1 1059.82 1444.1 962.89 1981.67 984.06 1981.67 1077.34"
                    fill="#d8dee8" style="mix-blend-mode:soft-light" id="polygon5615"></polygon>
                <polygon
                    points="1275.05 1386.57 788.2 1381.9 788.2 1326.34 1275.05 1332.8 1275.05 1386.57"
                    fill="#d8dee8" opacity="0.69" style="mix-blend-mode:overlay" id="polygon5637"></polygon>
                <polygon
                    points="1981.67 1477.57 788.2 1473.42 788.2 1417.86 1981.67 1426.41 1981.67 1477.57"
                    fill="#d8dee8" style="mix-blend-mode:soft-light" id="polygon4402"></polygon>
                <polygon
                    points="1444.1 1556.98 788.2 1558.4 788.2 1502.84 1444.1 1503.83 1444.1 1556.98"
                    fill="#d8dee8" style="mix-blend-mode:overlay" id="polygon7981"></polygon>
                <polygon
                    points="1173.63 1691.34 788.2 1695.68 788.2 1640.11 1173.63 1637.19 1173.63 1691.34"
                    fill="#d8dee8" style="mix-blend-mode:soft-light" id="polygon5854"></polygon>
                <polygon
                    points="1981.67 2284.04 788.2 2349.38 788.2 1970.23 1981.67 1934.97 1981.67 2284.04"
                    fill="#d8dee8" opacity="0.6" style="mix-blend-mode:overlay" id="polygon7537"></polygon>
            </g>
            <g id="Woman">
                <path
                    d=" M 1705.72,1107.06 a 73.92,73.92,0,0,0,12 -37.87 c 0.93 -35.12 -25.13 -62.52 -28.63 -61 -1.88 0.85 0.51,11.14,1.85,15.7,2.79,9.5,5.79,10.42,5.54,14.78 -0.52,9 -13.48,9.32 -20.32,21.24 -4.92,8.58 -5.31,20.8,0,30.48 C 1685,1106.48,1704.88,1107.05,1705.72,1107.06 Z "
                    fill="url(#linear-gradient-7)" id="path8955"></path>
                <polygon
                    points="2262.24 1870.02 2252.23 1835.56 2294.03 1804.58 2320.09 1794.84 2304.66 1843.05 2262.24 1870.02"
                    fill="url(#linear-gradient-8)" id="polygon2085"></polygon>
                <path
                    d=" M 2210.49,2564 s 22.87,57.52,16.85,83 c 24.55 -0.48,40.44 -3.61,40.44 -3.61 s -9.87 -26.24 -11.8 -39.23 c -2.6 -17.57 -2.4 -46 -2.4 -46 Z "
                    fill="url(#linear-gradient-9)" id="path551"></path>
                <path
                    d=" M 1958.43,2698.58 a 18.09,18.09,0,0,1,4.32,10.57,17.18,17.18,0,0,1 -1.3,7.08 c -3.9,10.26 -10,11.61 -16.63,22.5 -4,6.65 -3.27,8.65 -7,11.66 -4.88,4 -10.78,4.18 -15.89,4.24 a 281.75,281.75,0,0,1 -36.74 -2.08 q 12.32 -15.86,26.22 -32.17,6.11 -7.12,12.19 -13.94 l 24.12 -8.15 Z "
                    fill="#26264f" id="path6480"></path>
                <path
                    d=" M 1938.36,2581.43 s -13.79,72,3.76,92.12 c 15,20.15 -7.22,5.77 -7.22,5.77 l -26.48,23.11 -15.88,27.44 s 14.62 -70.44,10.72 -98.39 -5.85 -46.8 -5.85 -46.8 Z "
                    fill="url(#linear-gradient-10)" id="path5212"></path>
                <path
                    d=" M 1886.36,1794.25 s -37,33.15 -37,169.66,17.55,432.91,17.55,432.91 L 1894.94,2609 s 29.12,1,48.62 -4.81 c 17.55 -80,46.15 -215.21,32.5 -328.31 -5.85 -122.85,48.75 -276.91,48.75 -276.91 s 46.8,156,80,234,96.26,322.36,102.11,339.92 c 38.79,3.51,55.36 -6.75,55.36 -6.75 s -24.87 -263 -48.27 -362.42 -21.45 -339.31 -60.45 -407.57 C 2065.76,1761.1,1886.36,1794.25,1886.36,1794.25 Z "
                    fill="url(#linear-gradient-11)" id="path1248"></path>
                <path
                    d=" M 1886.36,1794.25 s -37,33.15 -37,169.66,17.55,432.91,17.55,432.91 L 1894.94,2609 s 29.12,1,48.62 -4.81 c 17.55 -80,46.15 -215.21,32.5 -328.31 -5.85 -122.85,48.75 -276.91,48.75 -276.91 s 46.8,156,80,234,96.26,322.36,102.11,339.92 c 38.79,3.51,55.36 -6.75,55.36 -6.75 s -24.87 -263 -48.27 -362.42 -21.45 -339.31 -60.45 -407.57 C 2065.76,1761.1,1886.36,1794.25,1886.36,1794.25 Z "
                    fill="url(#linear-gradient-12)" id="path5490"></path>
                <path
                    d=" M 2078.83,2044.37 c 11.56,75.1,34.66,115.53,92.43,167.52,46.21,34.66,11.55,109.76,28.88,167.53,5.78,17.33,23.11,34.66,28.89,52,21.49,43,1.41,95.58,11.16,141.1,15.17 -2.1,22 -6.32,22 -6.32 s -24.87 -263 -48.27 -362.42 -21.45 -339.31 -60.45 -407.57 c -87.76 -35.1 -267.16 -2 -267.16 -2 s -37,33.15 -37,169.66 c 0,11.08 0.11,23.22 0.33,36.15,38.46,34,117.13,41.61,165.65,3.87 a 23.08,23.08,0,0,1,9.27 -4.2 l 0.25 -0.72 s 0.08 0.27 0.21 0.68 C 2047.1,1995.66,2073.82,2024.33,2078.83,2044.37 Z "
                    opacity="0.25" fill="url(#linear-gradient-13)" style="mix-blend-mode:multiply"
                    id="path640"></path>
                <path
                    d=" M 2221.33,2668.9 s -5.7,0 -5.23,7.36 -2.56,32.68,26.4,33.87,33.44 -2.05,34.39 -2.05 -7.6 -24.22 -7.6 -24.22 L 2260,2672 l -24.93 -2.62 Z "
                    fill="#26264f" id="path501"></path>
                <path
                    d=" M 2285.56,2694.32 c -0.62 -6.12 -4 -15.74 -7.48 -23.49 -5.12 -11.51 -0.92 -15.81 -5.81 -26.29 -1.69 -3.63 -3.33 -7.06 -6.9 -10.47 -0.82 -0.78 -8.81 -8.17 -20.46 -7.79 a 20.65,20.65,0,0,0 -9.63,2.26 c -4.49,2.39 -6.74,6 -8.66,9.14 -3,5 -2.33,6.48 -7,20.7 a 52,52,0,0,0 -2.59,13.37 c 7.6,0,36.81,1.19,43,5.7 s 9.26,12.11,9.26,19.71,3.8,11.16,7.6,10.92 C 2280.29,2707.87,2287,2701.58,2285.56,2694.32 Z "
                    fill="#444b8c" id="path9291"></path>
                <path
                    d=" M 1934.66,2663.44 c 6.52 0.1,11.31,5.29,14.92,17.81 s 20.94,23.59 0.72,20.94 -34.9,26 -42.12,36.58 -26.6,20 -26.12,9.65,9 -15.18,11.44 -25.77 S 1919.77,2663.2,1934.66,2663.44 Z "
                    fill="#444b8c" id="path2080"></path>
                <path
                    d=" M 2277.59,1810.73 c 4.79 -13.34,34.74 -101 -13.66 -180.87 -39.62 -65.42 -108.18 -86.76 -117.95 -89.65 -59.51 -17.57 -89.33,5 -108.11 -15.77 -31.86 -35.26,4.23 -155.36,74 -179.42,78.69 -27.12,173.09,77.15,211.35,145.64,50.18,89.85,37.83,179.15,34.93,197.54 a 308.22,308.22,0,0,1 -38.1,106.64 Z "
                    fill="url(#linear-gradient-14)" id="path9274"></path>
                <path
                    d=" M 2072.09,1328.07 c -70.24 -2.81 -124.4 -1.7 -155,28.88 -32.32,32.3 0.34,68.76 -6.68,153.24 -10.74,129.35 -93.17,161 -99.37,292.17 a 335.19,335.19,0,0,0,11.2,102.12 c 18.09,22.52,47.7,54.32,91.39,80.9,63.59,38.68,100.46,31.94,191.77,56.93,149.37,40.88,162.66,89.56,236.72,77.16,74.85 -12.54,140.52 -75.53,132.59 -110.12 -4.75 -20.72 -34.92 -14.85 -69.67 -46.44 -44.77 -40.73 -27.5 -79.6 -61.54 -123.36 -48.9 -62.85 -117 -24.43 -158.69 -78.9 -42.15 -55.11 -25.43 -163.69,10.1 -222.88,23.2 -38.66,33.14 -84,52.89 -124.5 a 28.23,28.23,0,0,0,2.71 -15.79 c -3.21 -26.4 -47.22 -40.72 -80.55 -51.23 C 2119.13,1330.23,2077.87,1328.3,2072.09,1328.07 Z "
                    fill="url(#linear-gradient-15)" id="path8765"></path>
                <path
                    d=" M 2012.93,1325.16 l 13.85 -4.26 s 3.63,18.75,48.17,21.1 a 66.54,66.54,0,0,0,40.7 -13.85 l 9.47,6.9 s -20.77,25.94 -53.79,25.28 C 2028.7,1359.47,2012.93,1325.16,2012.93,1325.16 Z "
                    fill="url(#linear-gradient-16)" id="path5828"></path>
                <path
                    d=" M 2041.14,1268.11 c 2.67 -20.6,19 -33.8,22.51 -36.62,14.87 -11.83,17.9 -13,23 -14 l 7 -1.06 0.76,0 c 4.09 0.24,16.33,5,18.56,6.59,7.11,5,1.87,40.41 -19.69,84.46 q -1.26,5.6 -2.54,11.19 c 18.79,3.3,23.44,6.69,23.59,9.4 0.32,5.86 -20.25,13.34 -39.32,13.83 -23.91 0.6 -49.29 -9.68 -48.81 -17.36 0.2 -3.11,4.71 -6.94,22.07 -10.7 l 8.14 -11.45 C 2053.93,1299.46,2039.17,1283.28,2041.14,1268.11 Z "
                    fill="url(#linear-gradient-17)" id="path48"></path>
                <path
                    d=" M 2070.69,1260.35 c 5.43 -3.24,9.56,3.73,7,9.83 s -11.13,9.92 -16.34,6.28 S 2063.4,1264.72,2070.69,1260.35 Z "
                    fill="url(#linear-gradient-18)" id="path4226"></path>
                <path
                    d=" M 2773.6,1260.25 c -71.38 -77.46 -237.48 -56.22 -329.6,6 -42.81,28.91 -64.78,63.06 -115.36,65.92 -38.46,2.18 -99.63 -12.28 -131.85 -53.93 -4.05 -5.25 -20.29 -27.26 -44.66 -55 -10.75 -12.24 -21.44 -23.72 -38 -26.32 -4.21 -0.66 -18.21 -2.94 -27.47,6.1 -7.5,7.33 -9.34,20.07 -7.12,29.25,1.33,5.49,3,6.07,2.8,9.66 -0.69,10.1 -19.08,14.5 -18.06,19.59 0.73,3.63,10.3,2.3,11.95,6.86,1.81,5 -8.7,9.3 -13.22,21.87 -8.46,5.67 -13.81,19.77 -15.66,38.63 -2.72,27.73 0.07,50.26,5.32,67.23,25.3,81.71,43.4,140.15,87.19,172.79,58,43.21,110.2,3.31,257.69 -3,202 -8.64,252.33,59.82,324.91,13 C 2813.1,1520.39,2847.72,1340.67,2773.6,1260.25 Z "
                    fill="url(#linear-gradient-19)" id="path1909"></path>
                <path
                    d=" M 1714.25,1102.14 c -1.8,16.9 -7.89,91.65,43.67,154.77,48.18,59,116.42,70.76,129.1,72.68,61.35,9.27,87.81 -17.17,109.25 0.84,36.38,30.58,17,154.48 -48.81,187.86 -74.25,37.62 -182 -52.76 -229.27 -115.38 -62 -82.14 -62 -172.29 -61.62 -190.91 a 308.21,308.21,0,0,1,23.16 -110.84,54.78,54.78,0,0,1,34.52,1 Z "
                    fill="url(#linear-gradient-20)" id="path7306"></path>
                <path
                    d=" M 2344.37,2070 c -18 -18.42,1.81 -55.55 -24.72 -83.15 -24.63 -25.62 -52.5 -4.93 -92.14 -27 -50.84 -28.28 -36.83 -80 -85.4 -107.87 -34.92 -20 -51.33,1.5 -105.62 -9 s -120.21 -47.84 -152.82 -114.61 a 197,197,0,0,1 -19.64 -81.79 c -24.38,43.55 -49.66,85.28 -53,155.71 a 335.19,335.19,0,0,0,11.2,102.12 c 18.09,22.52,47.7,54.32,91.39,80.9,63.59,38.68,100.46,31.94,191.77,56.93,149.37,40.88,162.66,89.56,236.72,77.16,47.84 -8,91.82 -36.63,115.34 -65.28 C 2388.44,2084.92,2357.4,2083.39,2344.37,2070 Z "
                    opacity="0.3" fill="url(#linear-gradient-21)" style="mix-blend-mode:multiply"
                    id="path1573"></path>
            </g>
            <g id="Email" opacity="0.8">
                <path
                    d=" M 2540.53,937.28 l -797.31,28 c -30.19,0 -55 -25.62 -55 -57 l 0 -386.41 c 0 -31.38,24.78 -56.49,55 -55.81 l 795.64,25.12 c 27.53 0.63,50,25.56,49.94,55.4 l -0.44,367.57 C 2588.29,944,2568.06,937.17,2540.53,937.28 Z "
                    fill="url(#linear-gradient-22)" id="path3206"></path>
                <polygon
                    points="2319.47 916.25 2319.81 1066.18 2334.48 1072.83 2439.78 921.44 2319.47 916.25"
                    fill="url(#linear-gradient-23)" id="polygon9175"></polygon>
                <path
                    d=" M 2554.27,969 l -798.35 -3.09 c -30.3,0 -55.15 -25.75 -55.16 -57.24 l 0 -388.22 c 0 -31.52,24.86 -56.76,55.18 -56.09 l 798.92,25.11 c 27.64 0.62,50.18,25.67,50.14,55.66 l -0.45,369.39 C 2604.47,944.5,2581.89,969,2554.27,969 Z "
                    fill="url(#linear-gradient-24)" id="path6572"></path>
                <polygon points="2334.61 915.26 2334.48 1072.83 2455.39 920.44 2334.61 915.26"
                    fill="url(#linear-gradient-25)" id="polygon9755"></polygon>
                <path
                    d=" M 2369.91,588.45 l -385.26 -15.56 a 23.52,23.52,0,0,0 -17.13,6.23,22.52,22.52,0,0,0 -7.28,16.39 l -2.7,242.32 a 29.72,29.72,0,0,0,9.34,22,31.1,31.1,0,0,0,21.22,8.68 h 1.34 l 378.2 -3.36 A 29.5,29.5,0,0,0,2396.26,836 l 2.59 -217 A 30.35,30.35,0,0,0,2369.91,588.45 Z m 1.59,35.78 L 2234.12,743.39 a 47.35,47.35,0,0,1 -32,11.62,48.5,48.5,0,0,1 -27.51 -9.28 L 1992.75,614.07 a 6.67,6.67,0,0,1 -1.54 -9.41,6.94,6.94,0,0,1,9.59 -1.34 l 181.65,131.73 a 34.36,34.36,0,0,0,42.86 -1.66 l 137.54 -119.14 a 6.6,6.6,0,0,1,8.65,10 Z "
                    fill="#fff" id="path5008"></path>
            </g>
            <g id="Gear" opacity="0.84"
                transform="matrix(1 -2.4492937051703357e-16 2.4492937051703357e-16 1 350.7249634685277 657.5164517293151)"
>
                <path
                    d="M 971.65 2489 C 1005.03 2505.95 1046.98 2490.39 1065.33 2454.24 S 1071.5 2375.04 1038.11 2358.0899999999997 C 1036.3799999999999 2357.2099999999996 1034.62 2356.47 1032.85 2355.7599999999998 A 422.71 422.71 0 0 0 1046.85 2295.43 C 1048.77 2295.43 1050.6899999999998 2295.43 1052.6399999999999 2295.22 C 1090.7299999999998 2291.83 1120.9599999999998 2256.83 1120.1599999999999 2217.04 S 1087.84 2147.7599999999998 1049.7499999999998 2151.16 C 1047.7499999999998 2151.33 1045.7499999999998 2151.6499999999996 1043.8599999999997 2151.99 A 388.33 388.33 0 0 0 1027.5499999999997 2094.3799999999997 C 1029.2999999999997 2093.3799999999997 1031.0499999999997 2092.2999999999997 1032.7499999999998 2091.0999999999995 C 1065.3399999999997 2068.2699999999995 1075.7499999999998 2023.2099999999994 1056.0199999999998 1990.4499999999994 S 993.8699999999998 1949.6599999999994 961.2799999999997 1972.4499999999994 C 959.6099999999998 1973.6199999999994 958.0399999999997 1974.8799999999994 956.4899999999998 1976.1599999999994 A 344.69 344.69 0 0 0 914.2199999999998 1936.7099999999994 C 915.2999999999998 1934.9499999999994 916.3499999999998 1933.1699999999994 917.2999999999998 1931.2899999999993 C 935.6499999999999 1895.1399999999992 959.6399999999999 1855.6599999999994 925.9899999999999 1839.2299999999993 C 848.1499999999999 1801.2299999999993 814.7499999999999 1833.7599999999993 796.3999999999999 1869.9099999999994 C 795.4499999999998 1871.7799999999993 794.6299999999999 1873.6799999999994 793.8399999999999 1875.5899999999995 A 343.63 343.63 0 0 0 737.05 1864.7499999999995 C 737.17 1862.7499999999995 737.26 1860.7499999999995 737.2199999999999 1858.6899999999996 C 736.42 1818.9099999999996 748.2199999999999 1797.3799999999997 709.9899999999999 1796.6299999999997 C 626.6199999999999 1795.0099999999998 598.4899999999999 1831.1999999999996 599.2799999999999 1870.9799999999996 C 599.3299999999998 1873.0599999999995 599.4999999999999 1875.0899999999995 599.6999999999998 1877.1099999999997 A 387.79 387.79 0 0 0 543.58 1898 C 542.71 1896.22 541.8100000000001 1894.46 540.7800000000001 1892.74 C 521 1860 478.63 1852 446 1874.81 S 403 1942.7 422.73 1975.46 C 423.73 1977.14 424.84000000000003 1978.7 425.97 1980.25 A 424.5 424.5 0 0 0 385.53000000000003 2027.17 C 383.92 2026.17 382.28000000000003 2025.17 380.53000000000003 2024.29 C 347.14000000000004 2007.29 305.20000000000005 2022.8999999999999 286.85 2059.05 S 280.68 2138.25 314.06 2155.2000000000003 C 315.79 2156.0800000000004 317.56 2156.82 319.33 2157.5200000000004 A 424.74 424.74 0 0 0 305.33 2217.8500000000004 C 303.41999999999996 2217.8500000000004 301.5 2217.8500000000004 299.55 2218.0600000000004 C 261.46000000000004 2221.4600000000005 231.23000000000002 2256.4600000000005 232.02 2296.2500000000005 S 264.35 2365.5300000000007 302.44 2362.1300000000006 C 304.44 2361.9500000000007 306.38 2361.640000000001 308.33 2361.2900000000004 A 389.29 389.29 0 0 0 324.63 2418.9100000000003 C 322.88 2419.9100000000003 321.14 2420.9900000000002 319.44 2422.1800000000003 C 286.85 2445.01 276.44 2490.0800000000004 296.17 2522.8300000000004 S 381.24 2570.8300000000004 413.83000000000004 2547.9700000000003 C 415.50000000000006 2546.8 394.15000000000003 2538.3700000000003 395.70000000000005 2537.09 A 345.38 345.38 0 0 0 438 2576.54 C 436.93 2578.3 435.88 2580.08 434.93 2581.95 C 416.57 2618.1 428.76 2661.1499999999996 462.14 2678.1 S 537.48 2679.49 555.8299999999999 2643.3399999999997 C 556.78 2641.4599999999996 557.5999999999999 2639.5599999999995 558.3899999999999 2637.66 A 344.47 344.47 0 0 0 615.1799999999998 2648.5 C 615.0599999999998 2650.5 614.9599999999998 2652.5 614.9999999999999 2654.56 C 615.7999999999998 2694.34 647.3299999999999 2723.84 685.4199999999998 2720.45 S 753.7399999999998 2682.0499999999997 752.9399999999998 2642.2599999999998 C 752.9399999999998 2640.1899999999996 752.7299999999998 2638.1499999999996 752.5199999999999 2636.1299999999997 A 387.86 387.86 0 0 0 808.6599999999999 2615.2999999999997 C 809.5299999999999 2617.08 810.4299999999998 2618.8399999999997 811.4599999999998 2620.5499999999997 C 831.1899999999998 2653.31 873.6099999999998 2661.35 906.1999999999998 2638.5499999999997 S 949.1999999999998 2570.66 929.4699999999998 2537.8999999999996 C 928.4699999999998 2536.22 927.3499999999998 2534.6499999999996 926.2299999999998 2533.1099999999997 A 424.42 424.42 0 0 0 966.6599999999997 2486.1899999999996 C 968.28 2487.17 969.92 2488.16 971.65 2489 Z M 555.45 2494.28 C 434.24000000000007 2432.7400000000002 389.99 2276.44 456.63000000000005 2145.19 S 675.56 1957.46 796.78 2019 S 962.24 2236.84 895.5999999999999 2368.09 S 676.67 2555.87 555.45 2494.32 Z"
                    fill="url(#linear-gradient-26)" id="path9023"
                    transform="matrix(1 0 0 1 -350.7250855388402 -657.5164517293151)"></path>
                <path
                    d="M 1052.65 2295.26 C 1090.74 2291.8700000000003 1120.97 2256.86 1120.17 2217.0800000000004 S 1087.8500000000001 2147.8 1049.76 2151.2000000000003 C 1047.76 2151.3700000000003 1045.76 2151.69 1043.87 2152.03 A 388.33 388.33 0 0 0 1027.56 2094.42 C 1029.31 2093.42 1031.06 2092.34 1032.76 2091.14 C 1065.35 2068.31 1105.66 2013.1399999999999 1082.67 1982.59 C 1039.04 1924.59 993.8800000000001 1949.6999999999998 961.2900000000001 1972.53 C 959.6200000000001 1973.7 958.0500000000001 1974.96 956.5000000000001 1976.24 A 344.69 344.69 0 0 0 914.2300000000001 1936.79 C 915.3100000000002 1935.03 916.3600000000001 1933.25 917.3100000000002 1931.3799999999999 A 75.84 75.84 0 0 0 921.5800000000002 1871.57 Q 874.3700000000001 1954.6699999999998 828.5800000000002 2038.57 C 925.2800000000002 2109.43 956.0700000000002 2249.08 895.5800000000002 2368.13 C 844.3600000000001 2469.02 742.5800000000002 2525.67 643.1200000000001 2518.57 C 638.6800000000001 2530.07 634.3300000000002 2541.6400000000003 629.5800000000002 2553.03 C 616.6900000000002 2583.94 602.0500000000002 2614.21 587.3900000000001 2644.4500000000003 Q 601.2200000000001 2647.0600000000004 615.1600000000001 2648.53 C 615.0400000000001 2650.53 614.94 2652.53 614.9800000000001 2654.59 C 615.7800000000001 2694.3700000000003 639.9800000000001 2728.17 708.9800000000001 2724.51 C 747.1700000000001 2722.51 753.7300000000001 2682.0800000000004 752.9800000000001 2642.2900000000004 C 752.9800000000001 2640.2200000000003 752.7700000000001 2638.1800000000003 752.5600000000002 2636.1600000000003 A 387.86 387.86 0 0 0 808.7000000000002 2615.3300000000004 C 809.5700000000002 2617.1100000000006 810.4700000000001 2618.8700000000003 811.5000000000001 2620.5800000000004 C 831.2300000000001 2653.3400000000006 899.7000000000002 2667.2500000000005 932.2900000000001 2644.4200000000005 S 949.2900000000001 2570.6600000000003 929.5100000000001 2537.9000000000005 C 928.5100000000001 2536.2200000000007 927.3900000000001 2534.6500000000005 926.2700000000001 2533.1000000000004 A 422.33 422.33 0 0 0 966.7 2486.1900000000005 C 968.32 2487.1900000000005 969.96 2488.1900000000005 971.7 2489.0700000000006 C 1005.08 2506.0200000000004 1047.03 2490.4500000000007 1065.38 2454.3000000000006 S 1071.5500000000002 2375.1100000000006 1038.16 2358.1600000000008 C 1036.43 2357.2800000000007 1034.67 2356.540000000001 1032.9 2355.830000000001 A 422.71 422.71 0 0 0 1046.9 2295.500000000001 C 1048.78 2295.47 1050.7 2295.44 1052.65 2295.26 Z"
                    fill="url(#linear-gradient-27)" id="path9169"
                    transform="matrix(1 0 0 1 -350.7250855388402 -657.5164517293151)"></path>
                <path
                    d="M 1088.56 2299.35 C 1126.6499999999999 2295.95 1156.8799999999999 2260.95 1156.08 2221.16 S 1123.76 2151.8799999999997 1085.6699999999998 2155.2799999999997 C 1083.6699999999998 2155.4599999999996 1081.6699999999998 2155.7699999999995 1079.7799999999997 2156.12 A 388.11 388.11 0 0 0 1063.4699999999998 2098.5 C 1065.2199999999998 2097.5 1066.9699999999998 2096.42 1068.6699999999998 2095.23 C 1101.2599999999998 2072.4 1111.6699999999998 2027.33 1091.9399999999998 1994.58 S 1029.7899999999997 1953.78 997.1999999999998 1976.58 C 995.5299999999999 1977.75 993.9599999999998 1979.01 992.3999999999999 1980.3 A 343.83 343.83 0 0 0 950.1399999999999 1940.85 C 951.2099999999999 1939.08 952.2699999999999 1937.3 953.2199999999999 1935.4299999999998 C 971.5699999999999 1899.2799999999997 959.3899999999999 1856.2299999999998 925.9999999999999 1839.2799999999997 S 850.6699999999998 1837.8899999999996 832.31 1874.0399999999997 C 831.3599999999999 1875.9199999999998 830.54 1877.8199999999997 829.76 1879.7199999999998 A 345.71 345.71 0 0 0 773 1868.91 C 773.12 1866.91 773.21 1864.91 773.17 1862.8500000000001 C 772.37 1823.0700000000002 740.8499999999999 1793.5700000000002 702.76 1796.9700000000003 S 634.43 1835.3600000000004 635.23 1875.1500000000003 C 635.23 1877.2300000000002 635.45 1879.2600000000002 635.65 1881.2800000000004 A 387.74 387.74 0 0 0 579.52 1902.1100000000004 C 578.65 1900.3300000000004 577.75 1898.5700000000004 576.72 1896.8600000000004 C 556.98 1864.1000000000004 514.5600000000001 1856.0600000000004 481.97 1878.8600000000004 S 438.97 1946.7600000000004 458.70000000000005 1979.5100000000004 C 459.70000000000005 1981.1900000000005 460.82000000000005 1982.7600000000004 461.95000000000005 1984.3100000000004 A 423.47 423.47 0 0 0 421.51000000000005 2031.2200000000005 C 419.90000000000003 2030.2200000000005 418.26000000000005 2029.2200000000005 416.51000000000005 2028.3400000000004 C 383.12000000000006 2011.3900000000003 341.18000000000006 2026.9600000000003 322.82000000000005 2063.1000000000004 S 316.66 2142.3 350.0400000000001 2159.2500000000005 C 351.7700000000001 2160.1300000000006 353.5400000000001 2160.8700000000003 355.31000000000006 2161.5800000000004 A 424.11 424.11 0 0 0 341.31000000000006 2221.9100000000003 C 339.40000000000003 2221.9100000000003 337.4800000000001 2221.9100000000003 335.5300000000001 2222.1200000000003 C 297.44000000000005 2225.51 267.2000000000001 2260.5200000000004 268.0000000000001 2300.3 S 300.3300000000001 2369.5800000000004 338.42000000000013 2366.1800000000003 C 340.42000000000013 2366.01 342.3600000000001 2365.6900000000005 344.3100000000001 2365.3500000000004 A 389.51 389.51 0 0 0 360.6100000000001 2422.9600000000005 C 358.8600000000001 2423.9600000000005 357.1200000000001 2425.0400000000004 355.42000000000013 2426.2400000000007 C 322.83000000000015 2449.0700000000006 312.42000000000013 2494.1300000000006 332.1400000000001 2526.890000000001 S 394.30000000000007 2567.690000000001 426.8900000000001 2544.890000000001 C 428.5600000000001 2543.710000000001 430.1300000000001 2542.4500000000007 431.6800000000001 2541.170000000001 A 343.83 343.83 0 0 0 473.9400000000001 2580.620000000001 C 472.8700000000001 2582.380000000001 471.8200000000001 2584.1600000000008 470.8700000000001 2586.040000000001 C 452.5100000000001 2622.190000000001 464.7000000000001 2665.230000000001 498.0800000000001 2682.1800000000007 S 573.4100000000001 2683.5700000000006 591.7700000000001 2647.4200000000005 C 592.7700000000001 2645.5500000000006 593.5400000000001 2643.6500000000005 594.33 2641.7400000000007 A 344.55 344.55 0 0 0 651.11 2652.580000000001 C 651 2654.580000000001 650.9 2656.580000000001 650.94 2658.640000000001 C 651.74 2698.420000000001 683.2700000000001 2727.920000000001 721.36 2724.5300000000007 S 789.6800000000001 2686.1300000000006 788.88 2646.350000000001 C 788.88 2644.270000000001 788.67 2642.2400000000007 788.46 2640.2200000000007 A 389 389 0 0 0 844.6 2619.390000000001 C 845.46 2621.1600000000008 846.37 2622.920000000001 847.4 2624.6300000000006 C 867.13 2657.390000000001 909.55 2665.4300000000007 942.14 2642.6300000000006 S 985.14 2574.7400000000007 965.41 2541.9800000000005 C 964.41 2540.3100000000004 963.29 2538.7400000000007 962.17 2537.1900000000005 A 423.5 423.5 0 0 0 1002.5999999999999 2490.2700000000004 C 1004.2199999999999 2491.2700000000004 1005.8499999999999 2492.2700000000004 1007.5999999999999 2493.1500000000005 C 1040.98 2510.1500000000005 1082.9199999999998 2494.5400000000004 1101.28 2458.3900000000003 S 1107.45 2379.1900000000005 1074.06 2362.2400000000002 C 1072.33 2361.36 1070.57 2360.6200000000003 1068.8 2359.92 A 423.34 423.34 0 0 0 1082.8 2299.59 C 1084.69 2299.55 1086.61 2299.52 1088.56 2299.35 Z M 947.0699999999999 2380.08 C 875.6999999999999 2520.64 712.6199999999999 2581.15 582.81 2515.24 S 405.63 2282 477 2141.41 S 711.44 1940.34 841.25 2006.2499999999998 S 1018.43 2239.52 947.07 2380.08 Z"
                    fill="url(#linear-gradient-28)" id="path8880"
                    transform="matrix(1 0 0 1 -350.7250855388402 -657.5164517293151)"></path>
                <animateTransform attributeName="transform" attributeType="auto" type="rotate"
                    values="236.6 350.72 1578.26;236.6 350.72 1578.26;236.6 350.72 1578.26"
                    calcMode="spline" keyTimes="0;0;1" keySplines="0 0 1 1;0 0 1 1" dur="4.8s"
                    begin="0s" repeatCount="indefinite" additive="sum" accumulate="none"
                    fill="freeze" id="animateTransform7439"></animateTransform>
            </g>
        </g>
    </g>
</svg>